<?xml version="1.0" encoding="UTF-8" standalone="no"?>
<!DOCTYPE svg PUBLIC "-//W3C//DTD SVG 1.1//EN" "http://www.w3.org/Graphics/SVG/1.1/DTD/svg11.dtd">
<svg width="100%" height="100%" viewBox="0 0 70 70" version="1.1" xmlns="http://www.w3.org/2000/svg" xmlns:xlink="http://www.w3.org/1999/xlink" xml:space="preserve" xmlns:serif="http://www.serif.com/" style="fill-rule:evenodd;clip-rule:evenodd;stroke-linejoin:round;stroke-miterlimit:2;">
    <circle cx="34.75" cy="35" r="34.75" style="fill:rgb(121,155,145);"/>
    <g>
        <path d="M17.712,42.192C15.133,42.114 12.7,40.942 11.111,38.924C9.359,36.697 8.538,33.299 9.989,30.255C11.321,27.462 14.233,25.663 17.446,25.619C17.889,23.358 18.948,20.388 21.462,17.758C26.318,12.679 32.899,12.746 34.586,12.767C36.643,12.793 42.435,12.886 46.704,17.374C49.208,20.007 50.122,23.03 50.451,25.162C53.889,24.985 57.074,26.828 58.484,29.787C59.936,32.832 59.115,36.229 57.363,38.456C55.987,40.204 53.977,41.318 51.788,41.635L51.788,52.231C51.788,54.108 50.893,55.775 49.506,56.83C49.927,57.833 50.152,58.899 50.152,60.001L50.152,66.154C49.865,66.296 49.576,66.434 49.285,66.569C48.999,66.701 48.71,66.83 48.419,66.954L48.419,60.001C48.419,59.191 48.263,58.407 47.974,57.665C47.58,56.654 46.939,55.718 46.107,54.891C44.626,53.418 42.551,52.289 40.141,51.679L40.141,53.732C40.141,55.513 39.233,57.084 37.855,58.006C37.038,58.553 36.056,58.873 35,58.873L34.038,58.873C32.971,58.873 31.978,58.554 31.148,58.006C29.723,57.066 28.782,55.45 28.782,53.617L28.782,51.602C26.276,52.185 24.117,53.331 22.593,54.845C21.833,55.602 21.233,56.451 20.84,57.365C20.497,58.163 20.311,59.01 20.311,59.89L20.311,66.613C20.02,66.48 19.731,66.343 19.445,66.202C19.154,66.058 18.865,65.911 18.578,65.76L18.578,59.89C18.578,58.64 18.871,57.438 19.411,56.322C18.362,55.277 17.712,53.829 17.712,52.231L17.712,42.192ZM17.198,27.36C14.76,27.487 12.57,28.868 11.554,31.001C10.406,33.408 11.087,36.091 12.473,37.853C14.031,39.831 16.606,40.781 19.165,40.369C17.919,37.823 17.274,34.929 17.436,31.878L19.166,31.969C19.001,35.071 19.763,37.993 21.182,40.487C23.909,45.279 29.067,48.488 34.753,48.346C40.166,48.21 44.974,45.065 47.566,40.487C48.98,37.989 49.735,35.065 49.568,31.97L51.298,31.877C51.454,34.761 50.888,37.512 49.773,39.961C52.176,40.194 54.537,39.244 56.001,37.385C57.387,35.623 58.068,32.941 56.92,30.533C55.813,28.21 53.316,26.78 50.621,26.888C50.633,27.181 50.634,27.42 50.633,27.593L50.628,28.161L50.06,28.166C48.311,28.182 44.344,27.986 40.239,25.585C37.507,23.987 35.751,22.018 34.725,20.625C33.349,22.132 31.386,23.947 28.73,25.578C24.427,28.22 20.309,29.144 17.796,29.507L17.144,29.601L17.136,28.943C17.132,28.628 17.134,28.077 17.198,27.36ZM30.515,49.612L30.515,53.617C30.515,55.561 32.094,57.14 34.038,57.14L35,57.14C36.881,57.14 38.408,55.613 38.408,53.732L38.408,49.577C37.243,49.875 36.034,50.047 34.797,50.078C33.329,50.115 31.893,49.951 30.515,49.612ZM43.858,35.208C42.855,35.208 42.041,34.394 42.041,33.391C42.041,32.387 42.855,31.573 43.858,31.573C44.862,31.573 45.676,32.387 45.676,33.391C45.676,34.394 44.862,35.208 43.858,35.208ZM34.569,31.169C35.264,32.694 35.957,34.22 36.652,35.745L32.415,35.745C33.133,34.22 33.851,32.694 34.569,31.169ZM28.183,35.687L29.916,35.653C29.964,38.116 31.878,40.131 34.216,40.291C36.723,40.463 39.007,38.455 39.156,35.81L40.886,35.907C40.681,39.531 37.532,42.255 34.098,42.019C30.895,41.801 28.25,39.061 28.183,35.687ZM24.743,35.208C23.739,35.208 22.925,34.394 22.925,33.391C22.925,32.387 23.739,31.573 24.743,31.573C25.747,31.573 26.56,32.387 26.56,33.391C26.56,34.394 25.747,35.208 24.743,35.208Z" style="fill:white;"/>
    </g>
    <path d="M18.578,65.76C7.535,59.938 0,48.342 0,35C0,15.821 15.571,0.25 34.75,0.25C53.929,0.25 69.5,15.821 69.5,35C69.5,48.65 61.613,60.472 50.152,66.154L50.152,60.001C50.152,58.899 49.927,57.833 49.506,56.83C50.893,55.775 51.788,54.108 51.788,52.231L51.788,41.635C53.977,41.318 55.987,40.204 57.363,38.456C59.115,36.229 59.936,32.832 58.484,29.787C57.074,26.828 53.889,24.985 50.451,25.162C50.122,23.03 49.208,20.007 46.704,17.374C42.435,12.886 36.643,12.793 34.586,12.767C32.899,12.746 26.318,12.679 21.462,17.758C18.948,20.388 17.889,23.358 17.446,25.619C14.233,25.663 11.321,27.462 9.989,30.255C8.538,33.299 9.359,36.697 11.111,38.924C12.7,40.942 15.133,42.114 17.712,42.192L17.712,52.231C17.712,53.829 18.362,55.277 19.411,56.322C18.871,57.438 18.578,58.64 18.578,59.89L18.578,65.76ZM48.419,66.954C44.223,68.754 39.602,69.75 34.75,69.75C29.6,69.75 24.709,68.627 20.311,66.613L20.311,59.89C20.311,59.01 20.497,58.163 20.84,57.365C21.233,56.451 21.833,55.602 22.593,54.845C24.117,53.331 26.276,52.185 28.782,51.602L28.782,53.617C28.782,55.45 29.723,57.066 31.148,58.006C31.978,58.554 32.971,58.873 34.038,58.873L35,58.873C36.056,58.873 37.038,58.553 37.855,58.006C39.233,57.084 40.141,55.513 40.141,53.732L40.141,51.679C42.551,52.289 44.626,53.418 46.107,54.891C46.939,55.718 47.58,56.654 47.974,57.665C48.263,58.407 48.419,59.191 48.419,60.001L48.419,66.954ZM30.515,49.612C31.893,49.951 33.329,50.115 34.797,50.078C36.034,50.047 37.243,49.875 38.408,49.577L38.408,53.732C38.408,55.613 36.881,57.14 35,57.14L34.038,57.14C32.094,57.14 30.515,55.561 30.515,53.617L30.515,49.612ZM17.198,27.36C17.134,28.077 17.132,28.628 17.136,28.943L17.144,29.601L17.796,29.507C20.309,29.144 24.427,28.22 28.73,25.578C31.386,23.947 33.349,22.132 34.725,20.625C35.751,22.018 37.507,23.987 40.239,25.585C44.344,27.986 48.311,28.182 50.06,28.166L50.628,28.161L50.633,27.593C50.634,27.42 50.633,27.181 50.621,26.888C53.316,26.78 55.813,28.21 56.92,30.533C58.068,32.941 57.387,35.623 56.001,37.385C54.537,39.244 52.176,40.194 49.773,39.961C50.888,37.512 51.454,34.761 51.298,31.877L49.568,31.97C49.735,35.065 48.98,37.989 47.566,40.487C44.974,45.065 40.166,48.21 34.753,48.346C29.067,48.488 23.909,45.279 21.182,40.487C19.763,37.993 19.001,35.071 19.166,31.969L17.436,31.878C17.274,34.929 17.919,37.823 19.165,40.369C16.606,40.781 14.031,39.831 12.473,37.853C11.087,36.091 10.406,33.408 11.554,31.001C12.57,28.868 14.76,27.487 17.198,27.36ZM43.858,35.208C44.862,35.208 45.676,34.394 45.676,33.391C45.676,32.387 44.862,31.573 43.858,31.573C42.855,31.573 42.041,32.387 42.041,33.391C42.041,34.394 42.855,35.208 43.858,35.208ZM24.743,35.208C25.747,35.208 26.56,34.394 26.56,33.391C26.56,32.387 25.747,31.573 24.743,31.573C23.739,31.573 22.925,32.387 22.925,33.391C22.925,34.394 23.739,35.208 24.743,35.208ZM34.569,31.169C33.851,32.694 33.133,34.22 32.415,35.745L36.652,35.745C35.957,34.22 35.264,32.694 34.569,31.169ZM28.183,35.687C28.25,39.061 30.895,41.801 34.098,42.019C37.532,42.255 40.681,39.531 40.886,35.907L39.156,35.81C39.007,38.455 36.723,40.463 34.216,40.291C31.878,40.131 29.964,38.116 29.916,35.653L28.183,35.687Z" style="fill:rgb(121,155,145);"/>
</svg>
