<svg width="361" height="361" viewBox="0 0 361 361" fill="none" xmlns="http://www.w3.org/2000/svg">
<circle cx="180.5" cy="180.5" r="180.5" fill="#C94B62"/>
<mask id="mask0_592_3737" style="mask-type:alpha" maskUnits="userSpaceOnUse" x="0" y="0" width="361" height="361">
<circle cx="180.5" cy="180.5" r="180.5" fill="#FDAA2D"/>
</mask>
<g mask="url(#mask0_592_3737)">
<path d="M92 209H269V270C269 286.569 255.569 300 239 300H122C105.431 300 92 286.569 92 270V209Z" fill="white"/>
<path d="M169.286 260H186.924C225.052 260 256 282.564 256 310.362V373H101V309.786C101 282.308 131.598 260 169.286 260Z" fill="#C94B62" stroke="white" stroke-width="9" stroke-miterlimit="10"/>
<path d="M155.1 240H202.91C203.51 240 204 240.49 204 241.09V277.8C204 290.05 194.05 300 181.8 300H176.8C164.22 300 154 289.78 154 277.2V241.09C154 240.49 154.49 240 155.09 240H155.1Z" fill="#C94B62" stroke="white" stroke-width="9" stroke-miterlimit="10"/>
<path d="M95.0599 164.52C92.4199 214.24 133.2 255.51 180.63 254.32C226.53 253.17 264.56 212.61 261.96 164.52" fill="#C94B62"/>
<path d="M95.0599 164.52C92.4199 214.24 133.2 255.51 180.63 254.32C226.53 253.17 264.56 212.61 261.96 164.52" stroke="white" stroke-width="9" stroke-linejoin="round"/>
<path d="M259.41 134.14C276.49 132.07 292.76 140.76 299.72 155.36C306.47 169.52 302.57 185.31 294.42 195.67C284.65 208.08 268.04 213.61 252.04 209.72" stroke="white" stroke-width="9" stroke-miterlimit="10"/>
<path d="M128.52 181.58C133.734 181.58 137.96 177.354 137.96 172.14C137.96 166.926 133.734 162.7 128.52 162.7C123.307 162.7 119.08 166.926 119.08 172.14C119.08 177.354 123.307 181.58 128.52 181.58Z" fill="white"/>
<path d="M227.81 181.58C233.024 181.58 237.25 177.354 237.25 172.14C237.25 166.926 233.024 162.7 227.81 162.7C222.597 162.7 218.37 166.926 218.37 172.14C218.37 177.354 222.597 181.58 227.81 181.58Z" fill="white"/>
<path d="M150.89 183.98C151.19 199.14 163.03 211.49 177.42 212.47C192.85 213.53 206.96 201.24 207.88 184.96" stroke="white" stroke-width="9" stroke-miterlimit="10"/>
<path d="M179.56 160.6C175.83 168.52 172.1 176.45 168.37 184.37H190.38C186.77 176.45 183.17 168.52 179.56 160.6Z" fill="white"/>
<path d="M96.26 136.57C79.18 134.5 62.91 143.19 55.95 157.79C49.2 171.95 53.1 187.74 61.25 198.1C71.02 210.51 87.63 216.04 103.63 212.15" stroke="white" stroke-width="9" stroke-miterlimit="10"/>
<path d="M92.0061 149C91.9237 142.412 92.3668 115.278 113.649 93.013C138.044 67.4989 171.137 67.9088 179.609 68.0188C189.926 68.1487 219.01 68.5087 240.416 91.0134C259.451 111.029 260.049 135.563 259.998 142.002C251.186 142.082 231.202 141.102 210.528 129.005C194.646 119.717 185.319 107.94 180.64 101.011C173.6 109.149 162.861 119.667 147.66 129.005C125.759 142.452 104.796 147.15 92.0061 149Z" fill="white" stroke="white" stroke-width="6" stroke-miterlimit="10"/>
</g>
</svg>
