<svg width="130" height="300" viewBox="0 0 130 300" fill="none" xmlns="http://www.w3.org/2000/svg">
<g clip-path="url(#clip0_529_3521)">
<path d="M101.149 121.811C101.141 110.552 101.128 99.2984 101.119 88.0401C109.86 90.6559 118.985 88.1042 124.114 81.7442C130.786 73.4693 127.893 62.2196 123.764 56.1032C114.762 42.7634 91.6817 42.2719 83.9411 51.0896C81.0731 54.3551 79.0942 60.2834 81.5518 63.9464C83.9369 67.5025 90.3781 68.7335 93.5538 66.3485C99.4009 61.9503 97.3792 42.8318 86.6852 32.672C74.5379 21.1317 53.0899 22.4396 40.5152 32.4455C33.4927 38.0319 26.5257 48.4951 28.4748 58.6849C28.7398 60.0569 30.6631 69.2037 36.7539 70.1141C41.0067 70.7467 45.8879 67.1521 46.9137 62.7112C48.1404 57.3983 43.3832 52.9104 42.0625 51.6623C34.8305 44.8364 20.1272 42.7207 10.4205 50.8118C4.62895 55.6373 0.179499 64.4636 2.60297 73.1445C5.50089 83.5137 17.4131 90.8525 30.599 88.5787C30.4623 99.4095 30.3255 110.24 30.1844 121.071C53.8422 121.319 77.4956 121.567 101.153 121.815L101.149 121.811Z" fill="white" stroke="#EA8E8C" stroke-width="3.84679" stroke-miterlimit="10"/>
<path d="M100.696 88.4761C100.376 93.8573 95.8491 98.0631 90.5662 98.0161C85.1337 97.9691 80.6116 93.4384 80.5988 87.8905C80.509 83.8001 77.7863 80.6415 74.9397 80.2739C71.4263 79.8208 67.0837 83.5266 67.3615 88.9249C68.8233 96.0713 63.6515 102.081 58.5652 102.295C53.6884 102.5 48.2302 97.4049 48.5721 90.4636C49.7005 95.6738 48.0891 100.687 44.4732 103.342C43.6867 103.919 40.7717 105.881 37.6601 105.145C33.2705 104.111 29.7913 98.0332 30.6205 90.2798" stroke="#EA8E8C" stroke-width="3.84679" stroke-linecap="square" stroke-linejoin="bevel"/>
<path d="M55.2014 39.9339C61.929 39.9339 67.3829 34.4801 67.3829 27.7524C67.3829 21.0248 61.929 15.5709 55.2014 15.5709C48.4737 15.5709 43.0199 21.0248 43.0199 27.7524C43.0199 34.4801 48.4737 39.9339 55.2014 39.9339Z" fill="white" stroke="#EA8E8C" stroke-width="3.84679" stroke-linecap="square" stroke-linejoin="bevel"/>
<path d="M100.311 138.1C101.726 159.334 84.5396 177.209 64.2627 176.978C44.6356 176.756 28.1499 159.642 28.9834 139.07" stroke="#EA8E8C" stroke-width="3.84679" stroke-miterlimit="10"/>
<path d="M29.8639 123.931C22.5507 123.144 15.6479 126.952 12.7585 133.231C9.95465 139.322 11.7114 146.05 15.2589 150.431C19.5075 155.679 26.6369 157.945 33.45 156.192" stroke="#EA8E8C" stroke-width="3.84679" stroke-miterlimit="10"/>
<path d="M80.0349 150.07C82.2632 150.07 84.0697 148.263 84.0697 146.035C84.0697 143.806 82.2632 142 80.0349 142C77.8065 142 76 143.806 76 146.035C76 148.263 77.8065 150.07 80.0349 150.07Z" fill="#EA8E8C"/>
<path d="M48.0348 150.07C50.2632 150.07 52.0697 148.263 52.0697 146.035C52.0697 143.806 50.2632 142 48.0348 142C45.8065 142 44 143.806 44 146.035C44 148.263 45.8065 150.07 48.0348 150.07Z" fill="#EA8E8C"/>
<path d="M57.4435 161.088C57.4649 157.605 60.1448 154.733 63.4487 154.459C66.9878 154.168 70.2704 156.947 70.5311 160.682" stroke="#EA8E8C" stroke-width="3.84679" stroke-miterlimit="10"/>
<path d="M64.173 140.313C65.8143 143.677 67.4513 147.045 69.0926 150.408L59.6893 150.537C61.1853 147.13 62.6813 143.719 64.173 140.313Z" fill="#EA8E8C"/>
<path d="M99.6104 124.452C106.898 123.469 113.903 127.085 116.964 133.287C119.93 139.301 118.357 146.071 114.929 150.546C110.826 155.91 103.761 158.368 96.9005 156.799" stroke="#EA8E8C" stroke-width="3.84679" stroke-miterlimit="10"/>
<path d="M54.479 21.9951C54.184 20.0332 52.936 13.3441 47.0205 7.98849C42.0966 3.53477 36.6683 2.47476 34.5441 2.17557" stroke="#EA8E8C" stroke-width="3.84679" stroke-linecap="square" stroke-linejoin="bevel"/>
<path d="M89.7198 98.6701C89.7711 102.444 89.8224 106.223 89.8737 109.997L89.7198 98.6701Z" fill="white"/>
<path d="M89.7198 98.6701C89.7711 102.444 89.8224 106.223 89.8737 109.997" stroke="#EA8E8C" stroke-width="3.84679" stroke-linecap="square" stroke-linejoin="bevel"/>
<path d="M67.0325 95.9859C67.0966 100.705 67.1607 105.423 67.2248 110.142L67.0325 95.9859Z" fill="white"/>
<path d="M67.0325 95.9859C67.0966 100.705 67.1607 105.423 67.2248 110.142" stroke="#EA8E8C" stroke-width="3.84679" stroke-linecap="square" stroke-linejoin="bevel"/>
<path d="M46.0161 103.538C46.046 105.876 46.0802 108.21 46.1101 110.548L46.0161 103.538Z" fill="white"/>
<path d="M46.0161 103.538C46.046 105.876 46.0802 108.21 46.1101 110.548" stroke="#EA8E8C" stroke-width="3.84679" stroke-linecap="square" stroke-linejoin="bevel"/>
<path d="M28.0474 123.379C27.9533 126.44 30.3511 129 33.4115 129.094H33.4542C34.9502 129.141 36.335 128.637 37.4079 127.756C37.878 130.376 40.1904 132.342 42.9387 132.308H42.9814C45.4476 132.274 47.542 130.744 48.4097 128.598C49.2004 130.568 51.1067 131.979 53.3635 132.052C56.1845 132.137 58.6122 130.248 59.3004 127.628C60.1894 129.359 61.9675 130.577 64.0575 130.641C66.6263 130.722 68.866 129.158 69.7679 126.897C70.7339 128.619 72.5803 129.773 74.6918 129.744C77.3461 129.709 79.5686 127.94 80.2995 125.529C80.9791 127.859 83.1461 129.538 85.6893 129.504C88.2325 129.47 90.314 127.893 91.156 125.692L91.1646 126.452C91.2073 129.517 93.7205 131.962 96.7851 131.919L97.2638 131.911C100.546 131.868 103.171 129.167 103.128 125.884L103.013 117.297L28.2226 118.314L28.2354 119.208H28.1841L28.0516 123.379H28.0474Z" fill="#EA8E8C"/>
<path d="M44.6056 171.567C40.0279 172.618 27.996 175.982 19.5117 186.112C5.23159 203.166 13.8484 224.058 14.7203 226.076" stroke="#EA8E8C" stroke-width="3.84679" stroke-linecap="square" stroke-linejoin="bevel"/>
<path d="M93.9898 262.394L95.8662 273.729L70.845 278.153L70.2209 266.232L93.9898 262.394Z" stroke="#EA8E8C" stroke-width="3.84679" stroke-linecap="square" stroke-linejoin="bevel"/>
<path d="M90.4379 199.811C93.5795 219.335 96.721 238.86 99.8626 258.384C91.3868 261.825 76.7391 266.45 58.2446 265.693C45.4947 265.172 35.0699 262.265 27.8037 259.581C31.5223 239.035 35.2408 218.489 38.9551 197.943" stroke="#EA8E8C" stroke-width="3.84679" stroke-linecap="square" stroke-linejoin="bevel"/>
<path d="M82.3427 171.652C80.7741 180.342 79.2097 189.035 77.6411 197.725C69.379 197.297 61.1127 196.87 52.8507 196.443L50.2862 173.362C48.2901 172.366 46.2983 171.366 44.3023 170.37C44.1612 182.197 44.0159 194.019 43.8748 205.846C41.7506 207.944 39.6263 210.039 37.5063 212.137C34.1767 227.576 30.8428 243.014 27.5132 258.457C35.3777 261.449 48.3414 265.262 64.6689 265.078C79.308 264.911 91.045 261.594 98.5804 258.812C96.7297 245.006 94.879 231.196 93.0282 217.39C90.1773 213.403 87.3307 209.41 84.4798 205.423C85.7621 194.451 87.0443 183.483 88.3266 172.511C86.3305 172.225 84.3388 171.943 82.3427 171.656V171.652Z" fill="#EA8E8C"/>
<path d="M89.7371 275.238L90.3739 287.402C90.3739 287.402 90.0149 288.706 85.745 288.928C81.475 289.15 80.9621 287.466 80.9621 287.466L80.4279 277.221C83.5309 276.558 86.6383 275.896 89.7414 275.238H89.7371Z" fill="white" stroke="#EA8E8C" stroke-width="3.84679" stroke-linecap="square" stroke-linejoin="bevel"/>
<path d="M89.925 287.658C95.755 287.329 100.598 287.547 104.214 287.868C108.496 288.244 111.099 288.765 112.177 291.283C112.963 293.125 112.634 295.352 112.253 296.878C100.696 297.1 89.1343 297.318 77.5768 297.54C77.3888 296.279 77.1537 293.711 77.9615 290.706C78.4573 288.859 79.1754 287.483 79.7225 286.594C80.3294 287.325 81.569 288.599 83.4496 289.133C86.6424 290.043 89.2924 288.146 89.925 287.663V287.658Z" fill="#EA8E8C" stroke="#EA8E8C" stroke-width="3.84679" stroke-linecap="square" stroke-linejoin="bevel"/>
<path d="M34.6681 262.325L33.0354 273.699L58.1464 277.593L58.5139 265.659L34.6681 262.325Z" stroke="#EA8E8C" stroke-width="3.84679" stroke-linecap="square" stroke-linejoin="bevel"/>
<path d="M39.1945 275.079C39.0705 279.14 38.9423 283.196 38.8184 287.257C38.8184 287.257 39.2073 288.552 43.4772 288.684C47.7472 288.817 48.2302 287.12 48.2302 287.12L48.5465 276.866C45.4306 276.272 42.3104 275.674 39.1945 275.079Z" fill="white" stroke="#EA8E8C" stroke-width="3.84679" stroke-linecap="square" stroke-linejoin="bevel"/>
<path d="M39.2714 287.5C33.4371 287.295 28.5987 287.616 24.9913 288.013C20.7171 288.483 18.1226 289.056 17.1054 291.595C16.3574 293.454 16.7335 295.673 17.1438 297.19C28.7055 297.164 40.2673 297.139 51.829 297.117C51.9872 295.856 52.1709 293.279 51.299 290.291C50.7647 288.458 50.0167 287.094 49.4483 286.218C48.8584 286.962 47.6446 288.261 45.7767 288.838C42.6053 289.817 39.9125 287.975 39.2714 287.505V287.5Z" fill="#EA8E8C" stroke="#EA8E8C" stroke-width="3.84679" stroke-linecap="square" stroke-linejoin="bevel"/>
<path d="M32.9755 221.447L11.177 231.277L21.0077 247.947C21.4351 250.511 19.7255 253.931 19.7255 253.931C19.8665 252.507 20.0118 251.08 20.1529 249.656C18.5842 249.088 17.0199 248.515 15.4513 247.947C12.1558 246.19 8.86042 245.673 7.33026 247.092C4.68025 249.545 8.60825 256.589 9.03994 257.35C11.9336 262.432 18.8065 269.083 25.7093 267.181C28.6543 266.369 30.6461 264.266 31.8257 262.65" fill="white"/>
<path d="M32.9755 221.447L11.177 231.277L21.0077 247.947C21.4351 250.511 19.7255 253.931 19.7255 253.931C19.8665 252.507 20.0118 251.08 20.1529 249.656C18.5842 249.088 17.0199 248.515 15.4513 247.947C12.1558 246.19 8.86042 245.673 7.33026 247.092C4.68025 249.545 8.60825 256.589 9.03994 257.35C11.9336 262.432 18.8065 269.083 25.7093 267.181C28.6543 266.369 30.6461 264.266 31.8257 262.65" stroke="#EA8E8C" stroke-width="3.84679" stroke-linecap="square" stroke-linejoin="bevel"/>
<path d="M86.1039 170.977C90.6816 172.028 102.713 175.392 111.198 185.522C125.478 202.576 116.861 223.468 115.989 225.486" stroke="#EA8E8C" stroke-width="3.84679" stroke-linecap="square" stroke-linejoin="bevel"/>
<path d="M95.3789 221.874C103.432 224.81 111.484 227.751 119.537 230.687L109.706 247.357C109.279 249.921 110.988 253.341 110.988 253.341C110.847 251.917 110.702 250.49 110.561 249.067C112.13 248.498 113.694 247.925 115.263 247.357C118.558 245.6 121.853 245.083 123.384 246.502C126.034 248.955 122.106 255.999 121.674 256.76C118.78 261.842 111.907 268.493 105.004 266.591C102.059 265.779 100.068 263.676 98.888 262.06" fill="white"/>
<path d="M95.3789 221.874C103.432 224.81 111.484 227.751 119.537 230.687L109.706 247.357C109.279 249.921 110.988 253.341 110.988 253.341C110.847 251.917 110.702 250.49 110.561 249.067C112.13 248.498 113.694 247.925 115.263 247.357C118.558 245.6 121.853 245.083 123.384 246.502C126.034 248.955 122.106 255.999 121.674 256.76C118.78 261.842 111.907 268.493 105.004 266.591C102.059 265.779 100.068 263.676 98.888 262.06" stroke="#EA8E8C" stroke-width="3.84679" stroke-linecap="square" stroke-linejoin="bevel"/>
</g>
<defs>
<clipPath id="clip0_529_3521">
<rect width="130" height="299.46" fill="white"/>
</clipPath>
</defs>
</svg>
