<svg width="390" height="390" viewBox="0 0 390 390" fill="none" xmlns="http://www.w3.org/2000/svg">
<ellipse cx="221.139" cy="366.107" rx="110.251" ry="17.5706" transform="rotate(-1.24402 221.139 366.107)" fill="#ECD4D3"/>
<path d="M152.334 165.867C150.857 152.707 149.375 139.551 147.898 126.391C138.028 130.604 127.022 128.833 120.185 122.075C111.292 113.284 113.183 99.7535 117.198 92.0548C125.952 75.2748 152.867 71.6374 163.081 80.9159C166.864 84.3544 169.966 91.0211 167.578 95.6278C165.263 100.097 157.894 102.394 153.867 100.025C146.452 95.6606 146.28 73.0414 157.437 59.7517C170.107 44.6531 195.35 43.3417 211.374 53.3726C220.32 58.9762 229.855 70.2817 228.923 82.4498C228.8 84.0916 227.761 95.0346 220.761 96.9027C215.875 98.2097 209.694 94.6523 207.907 89.5933C205.77 83.5468 210.733 77.6723 212.118 76.0346C219.667 67.0995 236.575 62.6752 248.994 70.8465C256.405 75.7218 262.776 85.4471 261.089 95.9168C259.075 108.423 246.125 118.574 230.41 117.666C232.004 130.309 233.602 142.952 235.196 155.59C207.578 159.016 179.957 162.437 152.339 165.863L152.334 165.867Z" stroke="#EA8E8C" stroke-width="4.52527" stroke-miterlimit="10"/>
<path d="M148.445 126.836C149.533 133.083 155.378 137.403 161.547 136.646C167.891 135.87 172.578 129.975 171.86 123.491C171.423 118.696 174.187 114.644 177.468 113.837C181.513 112.843 187.085 116.602 187.471 122.946C186.714 131.492 193.547 137.835 199.522 137.412C205.251 137.008 210.955 130.327 209.635 122.255C209.005 128.496 211.558 134.139 216.134 136.767C217.126 137.335 220.796 139.243 224.339 137.972C229.332 136.182 232.595 128.616 230.602 119.662" stroke="#EA8E8C" stroke-width="4.52527" stroke-linecap="square" stroke-linejoin="bevel"/>
<path d="M191.767 64.0518C199.617 65.0548 206.795 59.5039 207.798 51.6535C208.801 43.803 203.25 36.6259 195.399 35.6229C187.549 34.6198 180.372 40.1707 179.369 48.0212C178.366 55.8716 183.917 63.0487 191.767 64.0518Z" fill="white" stroke="#EA8E8C" stroke-width="4.52527" stroke-linecap="square" stroke-linejoin="bevel"/>
<path d="M155.467 184.789C156.626 209.8 179.08 228.413 202.75 225.456C225.662 222.595 242.665 200.406 238.971 176.475" stroke="#EA8E8C" stroke-width="4.52527" stroke-miterlimit="10"/>
<path d="M235.934 158.898C244.377 157.012 252.953 160.55 257.158 167.505C261.243 174.257 260.077 182.35 256.515 187.937C252.242 194.635 244.21 198.231 236.014 197.078" stroke="#EA8E8C" stroke-width="4.52527" stroke-miterlimit="10"/>
<path d="M171.988 191.644C174.588 191.977 176.965 190.138 177.298 187.538C177.63 184.938 175.791 182.56 173.191 182.228C170.591 181.896 168.213 183.734 167.881 186.335C167.549 188.935 169.387 191.312 171.988 191.644Z" fill="#EA8E8C"/>
<path d="M221.667 186.698C224.267 187.03 226.644 185.192 226.977 182.592C227.309 179.991 225.47 177.614 222.87 177.282C220.27 176.95 217.892 178.788 217.56 181.388C217.228 183.989 219.066 186.366 221.667 186.698Z" fill="#EA8E8C"/>
<path d="M183.978 187.742C184.881 195.314 191.421 200.899 198.668 200.675C206.439 200.436 212.885 193.58 212.537 185.395" stroke="#EA8E8C" stroke-width="4.52527" stroke-miterlimit="10"/>
<path d="M197.552 178.624C196.079 182.775 194.61 186.926 193.137 191.077L204.145 189.98C201.947 186.196 199.75 182.408 197.547 178.624L197.552 178.624Z" fill="#EA8E8C"/>
<path d="M154.48 168.747C145.83 168.564 138.121 173.717 135.369 181.37C132.697 188.794 135.433 196.499 140.029 201.273C145.538 206.995 154.12 208.938 161.932 206.195" stroke="#EA8E8C" stroke-width="4.52527" stroke-miterlimit="10"/>
<path d="M193.66 43.0041C193.746 40.6681 194.314 32.6862 200.521 25.6476C205.685 19.7887 211.891 17.8292 214.334 17.1985" stroke="#EA8E8C" stroke-width="4.52527" stroke-linecap="square" stroke-linejoin="bevel"/>
<path d="M162.624 137.3C163.063 141.721 163.502 146.141 163.946 150.557Z" fill="#EA8E8C"/>
<path d="M162.624 137.3C163.063 141.721 163.502 146.141 163.946 150.557" stroke="#EA8E8C" stroke-width="4.52527" stroke-linecap="square" stroke-linejoin="bevel"/>
<path d="M188.79 131.159L190.438 147.732Z" fill="#EA8E8C"/>
<path d="M188.79 131.159L190.438 147.732" stroke="#EA8E8C" stroke-width="4.52527" stroke-linecap="square" stroke-linejoin="bevel"/>
<path d="M214.355 137.204L215.173 145.408Z" fill="#EA8E8C"/>
<path d="M214.355 137.204L215.173 145.408" stroke="#EA8E8C" stroke-width="4.52527" stroke-linecap="square" stroke-linejoin="bevel"/>
<path d="M237.983 158.014C238.501 161.583 236.036 164.887 232.467 165.405L232.415 165.413C230.67 165.662 228.989 165.254 227.616 164.369C227.41 167.491 224.973 170.099 221.754 170.418L221.703 170.421C218.818 170.707 216.167 169.197 214.867 166.801C214.2 169.204 212.161 171.113 209.532 171.497C206.243 171.969 203.159 170.085 202.007 167.114C201.201 169.257 199.276 170.912 196.849 171.266C193.854 171.699 191.028 170.167 189.678 167.642C188.781 169.784 186.773 171.377 184.298 171.624C181.192 171.931 178.356 170.165 177.188 167.441C176.702 170.253 174.393 172.502 171.414 172.801C168.436 173.1 165.793 171.53 164.521 169.066L164.611 169.955C164.968 173.544 162.356 176.733 158.767 177.09L158.207 177.146C154.367 177.527 150.939 174.722 150.553 170.881L149.551 160.828L237.111 152.109L237.215 153.157L237.273 153.144L237.98 158.004L237.983 158.014Z" fill="#EA8E8C"/>
<path d="M231.091 208.464C236.185 210.973 249.449 218.369 257.237 234.107C270.345 260.595 256.146 286.887 254.723 289.416" stroke="#EA8E8C" stroke-width="4.52527" stroke-linecap="square" stroke-linejoin="bevel"/>
<path d="M184.582 225.811C184.149 234.434 178.865 242.067 171.006 245.42C163.529 248.608 154.846 247.442 148.38 242.403C145.866 250.111 143.352 257.825 140.838 265.533C147.656 273.683 158.014 277.429 167.486 275.086C176.502 272.853 181.319 265.945 182.571 264.024" stroke="#EA8E8C" stroke-width="4.52527" stroke-linecap="square" stroke-linejoin="bevel"/>
<path d="M185.587 325.367L184.079 338.802L213.744 342.462V328.419L185.587 325.367Z" fill="white" stroke="#EA8E8C" stroke-width="4.52527" stroke-linecap="square" stroke-linejoin="bevel"/>
<path d="M105.597 218.553L108.824 229.421C108.382 229.376 107.906 229.331 107.399 229.287C104.447 229.028 100.436 228.809 96.2512 228.975C92.0911 229.14 87.6243 229.69 83.8224 231.042C80.0438 232.385 76.5543 234.66 75.0095 238.513C72.2058 245.507 74.7909 251.666 77.759 255.813C79.2513 257.899 80.8939 259.562 82.1544 260.699C82.7876 261.271 83.332 261.717 83.7239 262.024C83.9201 262.177 84.0787 262.297 84.1918 262.38C84.2483 262.422 84.2936 262.455 84.3265 262.479L84.3666 262.507L84.3795 262.516L84.3841 262.52L84.386 262.521C84.3868 262.521 84.3876 262.522 85.6845 260.668L84.3876 262.522C84.6001 262.671 84.8367 262.782 85.0869 262.85L143.071 278.729C144.184 279.034 145.348 278.452 145.772 277.379L160.103 241.146C160.296 240.752 160.375 240.301 160.313 239.846C160.188 238.929 159.518 238.181 158.621 237.956C153.677 236.717 148.733 235.479 143.79 234.242L143.741 234.229C139.127 233.074 134.514 231.919 129.9 230.763C129.458 229.827 129.015 228.89 128.572 227.954C127.566 225.826 126.56 223.698 125.556 221.569C125.512 221.476 125.461 221.386 125.405 221.3C124.879 220.491 124.352 219.683 123.825 218.876L123.823 218.874L123.82 218.87C123.315 218.095 122.81 217.321 122.306 216.548C122.29 216.516 122.27 216.479 122.248 216.436C122.17 216.289 122.059 216.085 121.916 215.841C121.632 215.355 121.213 214.696 120.666 214.002C119.63 212.685 117.88 210.913 115.453 210.334L115.452 210.334C113.345 209.834 111.511 209.935 109.967 210.592C108.425 211.249 107.414 212.36 106.771 213.449C106.14 214.519 105.834 215.615 105.68 216.401C105.601 216.802 105.558 217.146 105.534 217.396C105.522 217.522 105.515 217.626 105.511 217.705C105.509 217.744 105.507 217.776 105.506 217.802L105.505 217.836L105.505 217.849L105.504 217.854L105.504 217.857C105.504 217.858 105.504 217.859 107.766 217.909L105.504 217.859C105.499 218.094 105.531 218.328 105.597 218.553ZM122.189 216.371C122.217 216.411 122.236 216.44 122.244 216.452C122.244 216.452 122.244 216.452 122.244 216.452C122.226 216.425 122.207 216.398 122.189 216.371Z" fill="white" stroke="#EA8E8C" stroke-width="4.52527" stroke-linecap="square" stroke-linejoin="round"/>
<path d="M184.516 253.717C182.022 276.846 179.533 299.975 177.04 323.104C187.206 326.624 204.699 331.159 226.38 329.138C241.328 327.745 253.396 323.687 261.763 320.087C254.12 291.593 246.477 263.104 238.84 234.61" stroke="#EA8E8C" stroke-width="4.52527" stroke-linecap="square" stroke-linejoin="bevel"/>
<path d="M193.632 225.811C194.472 234.359 195.307 242.906 196.146 251.454L221.789 244.917C221.287 235.53 220.784 226.148 220.281 216.76C222.126 215.418 223.967 214.08 225.812 212.738C227.32 223.634 228.829 234.524 230.337 245.42C235.531 251.791 240.73 258.156 245.924 264.527C250.786 282.462 255.643 300.392 260.506 318.327C251.45 322.325 236.456 327.599 217.264 328.384C200.053 329.087 186.065 325.91 177.04 323.104C179.051 306.597 181.062 290.085 183.073 273.578C185.25 266.875 187.433 260.168 189.61 253.465C188.604 244.581 187.599 235.701 186.593 226.816C188.941 226.48 191.284 226.148 193.632 225.811Z" fill="#EA8E8C"/>
<path d="M192.067 340.676V355.006C192.067 355.006 192.569 356.514 197.598 356.514C202.626 356.514 203.128 354.503 203.128 354.503V342.436C199.443 341.847 195.752 341.264 192.067 340.676Z" fill="white" stroke="#EA8E8C" stroke-width="4.52527" stroke-linecap="square" stroke-linejoin="bevel"/>
<path d="M189.765 357.035C182.467 356.779 176.414 357.18 171.902 357.677C166.555 358.265 163.31 358.981 162.038 362.157C161.102 364.483 161.572 367.258 162.086 369.156C176.548 369.124 191.011 369.092 205.473 369.065C205.671 367.488 205.901 364.264 204.81 360.527C204.142 358.233 203.206 356.527 202.495 355.431C201.757 356.362 200.239 357.987 197.902 358.709C193.935 359.933 190.567 357.629 189.765 357.041V357.035Z" fill="#EA8E8C" stroke="#EA8E8C" stroke-width="4.81191" stroke-linecap="square" stroke-linejoin="bevel"/>
<path d="M253.868 323.738L256.488 336.997L227.23 343.111L226.063 329.118L253.868 323.738Z" fill="white" stroke="#EA8E8C" stroke-width="4.52527" stroke-linecap="square" stroke-linejoin="bevel"/>
<path d="M248.258 339.627C248.655 344.388 249.052 349.145 249.45 353.907C249.45 353.907 249.072 355.45 244.064 355.868C239.057 356.285 238.388 354.324 238.388 354.324L237.387 342.297C241.012 341.407 244.638 340.517 248.263 339.622L248.258 339.627Z" fill="white" stroke="#EA8E8C" stroke-width="4.52527" stroke-linecap="square" stroke-linejoin="bevel"/>
<path d="M250.955 356.763C258.248 356.351 264.305 356.624 268.828 357.025C274.186 357.495 277.442 358.147 278.789 361.297C279.773 363.601 279.361 366.386 278.885 368.295C264.428 368.573 249.966 368.846 235.509 369.124C235.273 367.547 234.979 364.333 235.99 360.575C236.61 358.265 237.508 356.543 238.193 355.431C238.952 356.346 240.502 357.939 242.855 358.607C246.849 359.746 250.164 357.372 250.955 356.768V356.763Z" fill="#EA8E8C" stroke="#EA8E8C" stroke-width="4.81191" stroke-linecap="square" stroke-linejoin="bevel"/>
<path d="M102.187 218.895L103.635 182.226C103.459 181.351 103.218 180.476 102.896 179.616C99.6884 171.063 90.1502 166.729 81.5974 169.937C73.0447 173.145 68.7105 182.683 71.9184 191.236C72.2402 192.101 72.6324 192.915 73.0799 193.69L98.2856 220.369" stroke="#EA8E8C" stroke-width="4.02246" stroke-linecap="square" stroke-linejoin="bevel"/>
<path d="M101.338 219.096L97.0891 184.679C96.8578 183.825 96.5813 182.965 96.2595 182.1C93.0516 173.547 86.49 168.097 81.5976 169.927C76.7104 171.762 75.3478 180.179 78.5557 188.737C78.8775 189.602 79.2395 190.431 79.6266 191.226L99.0551 219.951" stroke="#EA8E8C" stroke-width="4.02246" stroke-linecap="square" stroke-linejoin="bevel"/>
<path d="M81.5977 169.927L100.186 219.504" stroke="#EA8E8C" stroke-width="4.02246" stroke-linecap="square" stroke-linejoin="bevel"/>
<path d="M101.266 219.093L99.1331 219.893C97.2506 220.599 96.297 222.698 97.003 224.58L110.019 259.281C110.725 261.164 112.823 262.118 114.706 261.412L116.838 260.612C118.721 259.906 119.674 257.807 118.968 255.925L105.953 221.223C105.247 219.341 103.148 218.387 101.266 219.093Z" fill="#EA8E8C"/>
<path d="M108.842 136.321C109.284 134.046 112.539 134.046 112.98 136.321L114.754 145.452C114.918 146.295 115.577 146.955 116.421 147.119L125.552 148.892C127.827 149.334 127.827 152.589 125.552 153.031L116.421 154.804C115.577 154.968 114.918 155.628 114.754 156.472L112.98 165.603C112.539 167.878 109.284 167.878 108.842 165.603L107.068 156.472C106.905 155.628 106.245 154.968 105.401 154.804L96.2701 153.031C93.9954 152.589 93.9954 149.334 96.2701 148.892L105.401 147.119C106.245 146.955 106.905 146.295 107.068 145.452L108.842 136.321Z" fill="white"/>
<path d="M285.889 178.422C286.11 177.285 287.737 177.285 287.958 178.422L289.188 184.753C289.27 185.175 289.6 185.504 290.022 185.586L296.352 186.816C297.49 187.037 297.49 188.664 296.352 188.885L290.022 190.115C289.6 190.197 289.27 190.527 289.188 190.948L287.958 197.279C287.737 198.416 286.11 198.416 285.889 197.279L284.66 190.948C284.578 190.527 284.248 190.197 283.826 190.115L277.495 188.885C276.358 188.664 276.358 187.037 277.495 186.816L283.826 185.586C284.248 185.504 284.578 185.175 284.66 184.753L285.889 178.422Z" fill="white"/>
<path d="M267.991 196.397C268.433 194.122 271.688 194.122 272.13 196.397L273.903 205.528C274.067 206.372 274.727 207.031 275.57 207.195L284.701 208.969C286.976 209.41 286.976 212.665 284.701 213.107L275.57 214.881C274.727 215.044 274.067 215.704 273.903 216.548L272.13 225.679C271.688 227.954 268.433 227.954 267.991 225.679L266.218 216.548C266.054 215.704 265.394 215.044 264.55 214.881L255.419 213.107C253.145 212.665 253.145 209.41 255.419 208.969L264.55 207.195C265.394 207.031 266.054 206.372 266.218 205.528L267.991 196.397Z" fill="white"/>
<path d="M68.2643 113.133C68.7061 110.859 71.9611 110.859 72.4029 113.133L73.405 118.293C73.5688 119.137 74.2286 119.796 75.0723 119.96L80.2318 120.962C82.5065 121.404 82.5065 124.659 80.2318 125.101L75.0723 126.103C74.2286 126.267 73.5688 126.927 73.405 127.77L72.4029 132.93C71.9611 135.205 68.7061 135.205 68.2643 132.93L67.2623 127.77C67.0984 126.927 66.4386 126.267 65.5949 126.103L60.4354 125.101C58.1607 124.659 58.1607 121.404 60.4354 120.962L65.5949 119.96C66.4386 119.796 67.0984 119.137 67.2623 118.293L68.2643 113.133Z" fill="white"/>
</svg>
