<svg width="359" height="359" viewBox="0 0 359 359" fill="none" xmlns="http://www.w3.org/2000/svg">
<rect width="359" height="359" rx="40" fill="#E0ADAC"/>
<path d="M300.9 192.28C294.61 186.01 285.39 183.7 277 186.31C264.55 190.17 261.17 202.62 261 203.31C260.7 202.92 255.76 196.6 248 197.31C241.77 197.88 236.43 202.73 235 209.31C232.08 203.71 226.27 200.22 220 200.31C213.51 200.4 207.63 204.32 205 210.31C204.72 209.55 201.19 200.5 192 198.31C184.09 196.43 175.38 200.43 171 208.31C169.87 201.74 165.04 196.56 159 195.31C151.63 193.78 143.67 198.36 141 206.31C140.21 199.6 135.43 194.03 129 192.31C122.21 190.49 114.9 193.31 111 199.31C110.9 198.33 109.99 190.75 104 187.31C97.5702 183.62 87.6902 186.05 82.0002 194.31C81.7402 189.97 80.6802 183.41 76.0002 180.31C69.1702 175.78 56.3002 182.91 56.1002 182.34C56.0402 182.18 57.0702 181.67 58.0802 181.22C57.0402 169.29 64.7002 161.12 70.9902 161.31C75.3902 161.44 79.7102 165.69 81.9902 171.31C82.8002 164.3 88.1002 158.6 94.9902 157.31C101.74 156.04 108.62 159.27 111.99 165.31C111.32 157.65 117.31 151.32 123.99 151.31C129.7 151.31 135.06 155.91 135.99 162.31C135.91 153.2 143.2 146.16 150.99 146.31C157.34 146.43 163.29 151.32 164.99 158.31C166.18 150.26 173.08 144.76 179.99 145.31C185.31 145.73 190.09 149.7 191.99 155.31C192.16 155.01 195.89 148.51 202.99 148.31C208.77 148.14 214.22 152.22 215.99 158.31C218.63 153.78 223.85 151.37 228.99 152.31C234.05 153.24 238.05 157.23 238.99 162.31C241.16 157.68 246.24 155.2 250.99 156.31C256.19 157.52 259.78 162.74 258.99 168.31C263.39 164.3 269.65 163.12 274.99 165.31C282.18 168.25 283.86 175.68 283.99 176.31C287.9 172.78 293.12 171.54 296.99 173.31C302.53 175.85 305.44 184.62 300.89 192.28H300.9Z" stroke="white" stroke-width="6" stroke-linejoin="bevel"/>
<path d="M82.3199 181.34C78.2699 163.88 84.6399 149.02 87.0799 143.34C101.74 109.15 143.28 86.97 183.25 90.34C216.92 93.18 254.64 114.83 267.04 151.69C269.79 159.85 274.74 172.66 270.85 187.34C261.23 223.64 206.38 242.48 163.83 237.34C134.93 233.85 90.5399 216.75 82.3199 181.34Z" fill="white" stroke="white" stroke-width="6" stroke-miterlimit="10"/>
<path d="M55 181.3C65.33 214.97 75.67 248.63 86 282.3C98.56 290.64 129.02 308.45 172 310.3C215.58 312.18 247.83 296.6 261 289.3C275.33 256.97 289.67 224.63 304 192.3C303.47 185.17 298.02 179.74 292 179.3C284.77 178.77 277.54 185.51 278 194.3C274.19 186.53 265.46 182.84 258 185.3C251.82 187.34 247.39 193.32 247 200.3C246.46 192.86 239.82 187.49 233 188.3C226.85 189.03 221.91 194.61 222 201.3C220.52 194.95 215.06 190.45 209 190.3C202.04 190.13 195.69 195.74 195 203.3C193.79 195.67 187.23 190.17 180 190.3C173.65 190.42 167.9 194.86 166 201.3C165.84 194.15 161.23 188.05 155 186.3C147.44 184.18 138.72 188.8 136 197.3C135.91 196.89 133.64 187.12 125 184.3C117.39 181.82 108.17 185.82 104 194.3C105.8 187.54 102.52 180.72 97 178.3C90.42 175.41 81.58 179.18 79 187.3C80.6 179.12 74.8 171.84 68 171.3C62.45 170.86 56.72 174.94 55 181.3Z" fill="#E0ADAC" stroke="white" stroke-width="6" stroke-linejoin="bevel"/>
<path d="M254.561 48.3804C255.215 45.1814 259.785 45.1814 260.439 48.3804L262.958 60.7035C263.199 61.8811 264.119 62.8013 265.296 63.042L277.62 65.5608C280.819 66.2146 280.819 70.7854 277.62 71.4392L265.296 73.958C264.119 74.1987 263.199 75.1189 262.958 76.2965L260.439 88.6196C259.785 91.8186 255.215 91.8186 254.561 88.6196L252.042 76.2965C251.801 75.1189 250.881 74.1987 249.704 73.958L237.38 71.4392C234.181 70.7854 234.181 66.2146 237.38 65.5608L249.704 63.042C250.881 62.8013 251.801 61.8811 252.042 60.7035L254.561 48.3804Z" fill="white"/>
<path d="M81.2751 257.945L77.3987 238.98C76.309 233.648 68.691 233.648 67.6013 238.98L63.7249 257.945C63.6446 258.338 63.3379 258.645 62.9454 258.725L43.9799 262.601C38.6482 263.691 38.6482 271.309 43.9799 272.399L62.9454 276.275C63.3379 276.355 63.6446 276.662 63.7249 277.055L67.6013 296.02C68.691 301.352 76.309 301.352 77.3987 296.02L81.2751 277.055C81.3554 276.662 81.6621 276.355 82.0546 276.275L101.02 272.399C106.352 271.309 106.352 263.691 101.02 262.601L82.0546 258.725C81.6621 258.645 81.3554 258.338 81.2751 257.945Z" fill="white" stroke="#E0ADAC" stroke-width="4"/>
<path d="M238.596 105.624L235.399 89.9799C234.309 84.6482 226.691 84.6482 225.601 89.9799L222.404 105.624C222.323 106.017 222.017 106.323 221.624 106.404L205.98 109.601C200.648 110.691 200.648 118.309 205.98 119.399L221.624 122.596C222.017 122.677 222.323 122.983 222.404 123.376L225.601 139.02C226.691 144.352 234.309 144.352 235.399 139.02L238.596 123.376C238.677 122.983 238.983 122.677 239.376 122.596L255.02 119.399C260.352 118.309 260.352 110.691 255.02 109.601L239.376 106.404C238.983 106.323 238.677 106.017 238.596 105.624Z" fill="white" stroke="#E0ADAC" stroke-width="4"/>
</svg>
