<svg width="359" height="359" viewBox="0 0 359 359" fill="none" xmlns="http://www.w3.org/2000/svg">
<g clip-path="url(#clip0_629_2131)">
<path d="M286.409 182.991C280.633 177.238 272.168 175.119 264.465 177.514C253.034 181.055 249.93 192.477 249.774 193.11C249.499 192.752 244.963 186.954 237.838 187.605C232.118 188.128 227.215 192.578 225.902 198.615C223.221 193.477 217.887 190.275 212.13 190.358C206.171 190.44 200.773 194.037 198.358 199.532C198.101 198.835 194.86 190.532 186.422 188.523C179.159 186.798 171.162 190.468 167.141 197.697C166.103 191.67 161.669 186.917 156.123 185.771C149.356 184.367 142.048 188.569 139.596 195.862C138.871 189.706 134.482 184.596 128.578 183.018C122.344 181.349 115.632 183.936 112.052 189.44C111.96 188.541 111.124 181.587 105.625 178.431C99.7208 175.046 90.6495 177.275 85.4252 184.853C85.1865 180.871 84.2133 174.853 79.9163 172.009C73.6454 167.853 61.8287 174.394 61.6451 173.871C61.59 173.725 62.5357 173.257 63.4631 172.844C62.5082 161.899 69.5412 154.404 75.3164 154.578C79.3563 154.697 83.3227 158.596 85.4161 163.752C86.1598 157.321 91.026 152.092 97.352 150.908C103.55 149.743 109.866 152.706 112.961 158.248C112.345 151.22 117.845 145.413 123.978 145.404C129.221 145.404 134.142 149.624 134.996 155.495C134.923 147.138 141.616 140.679 148.768 140.816C154.599 140.926 160.062 145.413 161.623 151.826C162.715 144.44 169.05 139.394 175.395 139.899C180.279 140.284 184.668 143.926 186.413 149.073C186.569 148.798 189.993 142.835 196.512 142.651C201.819 142.495 206.823 146.238 208.448 151.826C210.872 147.67 215.665 145.459 220.384 146.321C225.03 147.174 228.703 150.835 229.566 155.495C231.558 151.248 236.222 148.972 240.584 149.991C245.358 151.101 248.654 155.89 247.929 161C251.969 157.321 257.716 156.238 262.619 158.248C269.221 160.945 270.763 167.761 270.883 168.339C274.473 165.101 279.265 163.963 282.819 165.587C287.905 167.917 290.577 175.963 286.399 182.991H286.409Z" fill="white" stroke="white" stroke-width="6" stroke-linejoin="bevel"/>
<path d="M86.7932 177.514C83.0747 161.495 88.9234 147.862 91.1636 142.651C104.633 111.293 142.764 90.9357 179.462 94.0274C210.376 96.6329 245.009 116.495 256.394 150.312C258.919 157.798 263.464 169.55 259.892 183.018C251.06 216.321 200.699 233.605 161.632 228.89C135.097 225.688 94.3405 210 86.7932 177.514Z" fill="white" stroke="white" stroke-width="6" stroke-miterlimit="10"/>
<path d="M60.635 174.761C70.1195 205.651 79.6132 236.532 89.0977 267.422C100.63 275.073 128.597 291.413 168.059 293.11C208.072 294.835 237.682 280.541 249.774 273.844C262.931 244.183 276.098 214.514 289.255 184.853C288.768 178.312 283.764 173.33 278.237 172.927C271.599 172.44 264.96 178.624 265.383 186.688C261.885 179.56 253.869 176.174 247.02 178.431C241.346 180.303 237.278 185.789 236.92 192.193C236.424 185.367 230.328 180.44 224.066 181.183C218.419 181.853 213.884 186.972 213.966 193.11C212.607 187.284 207.594 183.156 202.03 183.018C195.64 182.862 189.81 188.009 189.176 194.945C188.065 187.945 182.042 182.899 175.404 183.018C169.574 183.128 164.294 187.202 162.55 193.11C162.403 186.55 158.17 180.954 152.45 179.349C145.509 177.404 137.503 181.642 135.005 189.44C134.923 189.064 132.838 180.101 124.906 177.514C117.918 175.238 109.453 178.908 105.624 186.688C107.277 180.486 104.266 174.229 99.1974 172.009C93.1559 169.358 85.0395 172.816 82.6706 180.266C84.1397 172.761 78.8144 166.082 72.571 165.587C67.4752 165.183 62.2142 168.927 60.635 174.761Z" fill="#A6C05B" stroke="white" stroke-width="6" stroke-linejoin="bevel"/>
<path d="M171.465 98.8073C178.387 98.8073 183.998 93.2006 183.998 86.2844C183.998 79.3682 178.387 73.7615 171.465 73.7615C164.543 73.7615 158.932 79.3682 158.932 86.2844C158.932 93.2006 164.543 98.8073 171.465 98.8073Z" fill="#A6C05B" stroke="white" stroke-width="6" stroke-miterlimit="10"/>
<path d="M146.501 92.8165C142.681 87.3303 142.314 81.1651 142.406 77.7156C145.987 78.5413 150.844 80.0917 156.013 83.1651C163.771 87.7798 168.481 93.5963 170.979 97.2202C172.98 94.5963 176.258 90.9725 181.17 87.8532C188.58 83.1559 195.769 82.1009 199.561 81.8257C199.23 85.3303 198.101 91.3119 193.712 96.1468C182.501 108.514 156.15 106.679 146.501 92.8165Z" fill="#A6C05B" stroke="white" stroke-width="6" stroke-miterlimit="10"/>
<path d="M163.542 103.734C163.661 106.697 163.771 109.661 163.89 112.633C165.093 113.395 167.857 114.908 171.676 115.009C176.295 115.129 179.591 113.11 180.729 112.33C180.931 109.229 181.133 106.129 181.344 103.028C177.552 103.716 173.127 104.174 168.197 104.037C166.571 103.991 165.02 103.881 163.542 103.734Z" fill="#A6C05B" stroke="white" stroke-width="6" stroke-miterlimit="10"/>
</g>
<path d="M72.5608 56.3804C73.2146 53.1814 77.7854 53.1814 78.4392 56.3804L82.3156 75.3459C82.5563 76.5234 83.4766 77.4437 84.6541 77.6844L103.62 81.5608C106.819 82.2146 106.819 86.7854 103.62 87.4392L84.6541 91.3156C83.4766 91.5563 82.5563 92.4766 82.3156 93.6541L78.4392 112.62C77.7854 115.819 73.2146 115.819 72.5608 112.62L68.6844 93.6541C68.4437 92.4766 67.5234 91.5563 66.3459 91.3156L47.3804 87.4392C44.1814 86.7854 44.1814 82.2146 47.3804 81.5608L66.3459 77.6844C67.5234 77.4437 68.4437 76.5234 68.6844 75.3459L72.5608 56.3804Z" fill="white"/>
<path d="M302.561 246.38C303.215 243.181 307.785 243.181 308.439 246.38L312.316 265.346C312.556 266.523 313.477 267.444 314.654 267.684L333.62 271.561C336.819 272.215 336.819 276.785 333.62 277.439L314.654 281.316C313.477 281.556 312.556 282.477 312.316 283.654L308.439 302.62C307.785 305.819 303.215 305.819 302.561 302.62L298.684 283.654C298.444 282.477 297.523 281.556 296.346 281.316L277.38 277.439C274.181 276.785 274.181 272.215 277.38 271.561L296.346 267.684C297.523 267.444 298.444 266.523 298.684 265.346L302.561 246.38Z" fill="white"/>
<path d="M264.061 289.38C264.715 286.181 269.285 286.181 269.939 289.38L271.185 295.476C271.426 296.654 272.346 297.574 273.524 297.815L279.62 299.061C282.819 299.715 282.819 304.285 279.62 304.939L273.524 306.185C272.346 306.426 271.426 307.346 271.185 308.524L269.939 314.62C269.285 317.819 264.715 317.819 264.061 314.62L262.815 308.524C262.574 307.346 261.654 306.426 260.476 306.185L254.38 304.939C251.181 304.285 251.181 299.715 254.38 299.061L260.476 297.815C261.654 297.574 262.574 296.654 262.815 295.476L264.061 289.38Z" fill="white"/>
<defs>
<clipPath id="clip0_629_2131">
<rect width="234" height="225" fill="white" transform="translate(58 71)"/>
</clipPath>
</defs>
</svg>
