<svg width="160" height="160" viewBox="0 0 160 160" fill="none" xmlns="http://www.w3.org/2000/svg">
<path d="M37.2468 62.9708H20.7629C15.6482 62.9708 11.4848 58.8074 11.4848 53.6927V37.2182C11.4942 32.1035 15.6576 27.9401 20.7723 27.9401H37.2562C42.3709 27.9401 46.5343 32.1035 46.5343 37.2182V53.7021C46.5343 58.8168 42.3709 62.9802 37.2562 62.9802L37.2468 62.9708ZM20.7723 32.6498C18.2573 32.6498 16.2039 34.6938 16.2039 37.2182V53.7021C16.2039 56.2171 18.2479 58.2705 20.7723 58.2705H37.2562C39.7712 58.2705 41.8246 56.2265 41.8246 53.7021V37.2182C41.8246 34.7032 39.7806 32.6498 37.2562 32.6498H20.7723Z" fill="white"/>
<path d="M69.0749 94.6858C68.3025 94.6858 67.5301 94.5916 66.7671 94.3938L50.8013 90.3247C45.8467 89.0625 42.8419 84.0043 44.1041 79.0497L48.1733 63.0744C49.4355 58.1198 54.4937 55.115 59.4483 56.3772L75.4235 60.4464C80.3781 61.7086 83.3829 66.7668 82.1207 71.7214L78.0515 87.6967C77.4393 90.0986 75.9322 92.1143 73.8034 93.3765C72.3528 94.2431 70.7327 94.6764 69.0843 94.6764L69.0749 94.6858ZM57.1594 60.8043C55.1248 60.8043 53.2597 62.1796 52.7323 64.2424L48.6631 80.2083C48.0414 82.6479 49.5203 85.1346 51.9599 85.7563L67.9351 89.8254C70.3747 90.4471 72.8615 88.9683 73.4831 86.5287L77.5523 70.5628C78.174 68.1232 76.6951 65.6365 74.2555 65.0148L58.2803 60.9456C57.9035 60.8514 57.5267 60.8043 57.1499 60.8043H57.1594Z" fill="white"/>
<path d="M16.1191 107.515C14.8475 107.515 13.5665 107.251 12.3702 106.714C10.1002 105.716 8.367 103.889 7.47216 101.571L1.52854 86.2084C-0.317658 81.4327 2.06544 76.0543 6.84106 74.2175L22.2135 68.2833C26.9891 66.4371 32.3676 68.8202 34.2043 73.5958L40.1385 88.9682C41.0334 91.276 40.9674 93.8004 39.969 96.061C38.9705 98.3311 37.1432 100.064 34.826 100.959L19.4536 106.893C18.3704 107.308 17.24 107.524 16.1097 107.524L16.1191 107.515ZM25.5479 72.3525C25.0016 72.3525 24.4459 72.4467 23.909 72.6633L8.53655 78.5975C6.19113 79.5018 5.01371 82.1486 5.92738 84.5035L11.8616 99.8759C12.3043 101.016 13.1615 101.91 14.2729 102.41C15.3844 102.899 16.6278 102.937 17.7675 102.494L33.1399 96.5602C34.2797 96.1175 35.1745 95.2604 35.6738 94.1489C36.1636 93.0374 36.2012 91.794 35.7585 90.6543L29.8243 75.2819C29.1273 73.4734 27.3941 72.3619 25.5574 72.3619L25.5479 72.3525Z" fill="white"/>
<path d="M135.171 51.3285L72.1832 114.316L38.4336 148.065C47.8059 157.438 64.2427 156.185 75.1597 145.277C83.835 136.602 86.397 124.423 82.3655 115.088L140.653 56.8011L152.521 68.6695L158.003 63.1875L146.135 51.319L140.653 45.837L135.171 51.319V51.3285Z" fill="white"/>
<path d="M54.2205 155.77C47.7023 155.77 41.8057 153.434 37.4446 149.064L36.4461 148.065L140.653 43.8589L160 63.2063L152.521 70.6853L140.653 58.8168L84.0328 115.437C87.857 125.412 84.7581 137.685 76.1582 146.285C70.6384 151.805 63.6022 155.139 56.3304 155.695C55.6239 155.752 54.9175 155.78 54.2205 155.78V155.77ZM40.4776 148.037C44.6221 151.616 50.1136 153.331 56.1232 152.879C62.7261 152.379 69.1313 149.328 74.1707 144.288C82.2148 136.244 84.9935 124.734 81.0751 115.663L80.6983 114.777L140.662 54.8136L152.53 66.682L156.006 63.2063L140.653 47.8527L40.4776 148.028V148.037Z" fill="white"/>
</svg>
