<svg width="140" height="123" viewBox="0 0 140 123" fill="none" xmlns="http://www.w3.org/2000/svg">
<g id="Group 37">
<path id="Vector" d="M126.84 122.46H12.63C5.66001 122.46 0 116.79 0 109.82V61.1C0 57.73 1.30998 54.55 3.69998 52.17L22.89 32.98C24.33 31.54 25.13 29.62 25.13 27.58V12.63C25.13 5.66 30.8 0 37.76 0H41.36L46.98 9.74L52.6 0H56.52L62.14 9.74L67.76 0H71.68L77.3 9.74L82.92 0H86.84L92.46 9.74L98.08 0H101.68C108.65 0 114.32 5.67 114.32 12.63V27.58C114.32 29.62 115.11 31.54 116.56 32.98L135.75 52.17C138.14 54.56 139.45 57.73 139.45 61.1V109.82C139.45 116.79 133.78 122.46 126.82 122.46H126.84ZM37.76 5C33.55 5 30.13 8.42 30.13 12.63V27.58C30.13 30.95 28.82 34.13 26.43 36.51L7.23999 55.7C5.79999 57.14 5 59.06 5 61.1V109.82C5 114.03 8.42 117.46 12.63 117.46H126.84C131.05 117.46 134.47 114.03 134.47 109.82V61.1C134.47 59.06 133.68 57.14 132.23 55.7L113.04 36.51C110.65 34.12 109.34 30.95 109.34 27.58V12.63C109.34 8.42 105.91 5 101.7 5H100.98L92.47 19.74L84.89 6.61L77.31 19.74L69.73 6.61L62.15 19.74L54.57 6.61L46.99 19.74L38.48 5H37.76Z" fill="white"/>
<path id="Vector_2" d="M134.01 53.94L114.82 34.75C112.92 32.85 111.85 30.27 111.85 27.58V12.63C111.85 7.03002 107.31 2.49002 101.71 2.49002H99.55L92.4799 14.73L85.41 2.49002H84.38L77.31 14.73L70.24 2.49002H69.21L62.14 14.73L55.0699 2.49002H54.0399L46.97 14.73L39.9 2.49002H37.74C32.14 2.49002 27.5999 7.03002 27.5999 12.63V27.58C27.5999 30.27 26.53 32.85 24.63 34.75L5.43997 53.94C3.53997 55.84 2.46997 58.42 2.46997 61.11V109.83C2.46997 115.43 7.00995 119.97 12.61 119.97H126.82C132.42 119.97 136.96 115.43 136.96 109.83V61.11C136.96 58.42 135.89 55.84 133.99 53.94H134.01ZM104.97 44.48H104.57C102.52 44.53 100.61 45.34 99.15 46.8L86.7299 59.22C85.2299 60.72 84.41 62.71 84.41 64.83V101.18C84.41 105.55 87.97 109.11 92.34 109.11H104.97V114.11H92.34C85.21 114.11 79.41 108.31 79.41 101.18V64.83C79.41 61.38 80.7599 58.13 83.2 55.69L94.4 44.49H33.65V39.49H104.51C104.68 39.49 104.84 39.49 105.01 39.49L104.96 44.49L104.97 44.48Z" fill="white"/>
</g>
</svg>
