<svg width="169" height="136" viewBox="0 0 169 136" fill="none" xmlns="http://www.w3.org/2000/svg">
<g id="Group 40">
<g id="Group">
<path id="Vector" d="M38.5836 37.19H21.0836C15.6536 37.19 11.2336 32.77 11.2336 27.34V9.85C11.2436 4.42 15.6636 0 21.0936 0H38.5936C44.0236 0 48.4436 4.42 48.4436 9.85V27.35C48.4436 32.78 44.0236 37.2 38.5936 37.2L38.5836 37.19ZM21.0936 5C18.4236 5 16.2436 7.17 16.2436 9.85V27.35C16.2436 30.02 18.4136 32.2 21.0936 32.2H38.5936C41.2636 32.2 43.4436 30.03 43.4436 27.35V9.85C43.4436 7.18 41.2736 5 38.5936 5H21.0936Z" fill="white"/>
<path id="Vector_2" d="M72.3736 70.86C71.5536 70.86 70.7336 70.76 69.9236 70.55L52.9736 66.23C47.7136 64.89 44.5236 59.52 45.8636 54.26L50.1836 37.3C51.5236 32.04 56.8936 28.85 62.1536 30.19L79.1136 34.51C84.3736 35.85 87.5636 41.22 86.2236 46.48L81.9036 63.44C81.2536 65.99 79.6536 68.13 77.3936 69.47C75.8536 70.39 74.1336 70.85 72.3836 70.85L72.3736 70.86ZM59.7236 34.89C57.5636 34.89 55.5836 36.35 55.0236 38.54L50.7036 55.49C50.0436 58.08 51.6136 60.72 54.2036 61.38L71.1636 65.7C73.7536 66.36 76.3936 64.79 77.0536 62.2L81.3736 45.25C82.0336 42.66 80.4636 40.02 77.8736 39.36L60.9136 35.04C60.5136 34.94 60.1136 34.89 59.7136 34.89H59.7236Z" fill="white"/>
<path id="Vector_3" d="M16.1536 84.48C14.8036 84.48 13.4436 84.2 12.1736 83.63C9.76356 82.57 7.92356 80.63 6.97356 78.17L0.663564 61.86C-1.29644 56.79 1.23356 51.08 6.30356 49.13L22.6236 42.83C27.6936 40.87 33.4036 43.4 35.3536 48.47L41.6536 64.79C42.6036 67.24 42.5336 69.92 41.4736 72.32C40.4136 74.73 38.4736 76.57 36.0136 77.52L19.6936 83.82C18.5436 84.26 17.3436 84.49 16.1436 84.49L16.1536 84.48ZM26.1636 47.15C25.5836 47.15 24.9936 47.25 24.4236 47.48L8.10356 53.78C5.61356 54.74 4.36356 57.55 5.33356 60.05L11.6336 76.37C12.1036 77.58 13.0136 78.53 14.1936 79.06C15.3736 79.58 16.6936 79.62 17.9036 79.15L34.2236 72.85C35.4336 72.38 36.3836 71.47 36.9136 70.29C37.4336 69.11 37.4736 67.79 37.0036 66.58L30.7036 50.26C29.9636 48.34 28.1236 47.16 26.1736 47.16L26.1636 47.15Z" fill="white"/>
</g>
<g id="Group_2">
<path id="Vector_4" d="M142.544 24.83L75.6735 91.7L39.8435 127.53C49.7935 137.48 67.2435 136.15 78.8335 124.57C88.0435 115.36 90.7635 102.43 86.4835 92.52L148.364 30.64L160.964 43.24L166.784 37.42L154.184 24.82L148.364 19L142.544 24.82V24.83Z" fill="white"/>
<path id="Vector_5" d="M56.6035 135.71C49.6835 135.71 43.4235 133.23 38.7935 128.59L37.7335 127.53L148.364 16.9L168.904 37.44L160.964 45.38L148.364 32.78L88.2535 92.89C92.3135 103.48 89.0235 116.51 79.8935 125.64C74.0335 131.5 66.5635 135.04 58.8435 135.63C58.0935 135.69 57.3435 135.72 56.6035 135.72V135.71ZM42.0135 127.5C46.4135 131.3 52.2435 133.12 58.6235 132.64C65.6335 132.11 72.4335 128.87 77.7835 123.52C86.3235 114.98 89.2735 102.76 85.1135 93.13L84.7135 92.19L148.374 28.53L160.974 41.13L164.664 37.44L148.364 21.14L42.0135 127.49V127.5Z" fill="white"/>
</g>
</g>
</svg>
