<svg width="390" height="390" viewBox="0 0 390 390" fill="none" xmlns="http://www.w3.org/2000/svg">
<ellipse cx="164.065" cy="366.84" rx="101.868" ry="16.2345" transform="rotate(2.49986 164.065 366.84)" fill="#ECD4D3"/>
<path d="M235.388 166.009C236.001 152.682 236.613 139.354 237.231 126.031C247.434 129.612 258.381 127.105 264.809 119.856C273.167 110.429 270.371 96.9488 265.822 89.4769C255.909 73.1856 228.61 71.3164 218.96 81.3211C215.383 85.0292 212.708 91.9388 215.414 96.4068C218.038 100.748 225.596 102.567 229.486 99.9173C236.654 95.039 235.327 72.289 223.225 59.6653C209.482 45.3294 184.021 45.6789 168.581 56.8285C159.959 63.0543 151.125 75.0498 152.867 87.2227C153.1 88.864 154.873 99.8008 162.031 101.214C167.031 102.202 173.009 98.2203 174.468 93.0128C176.215 86.7921 170.835 81.2148 169.336 79.6647C161.155 71.1847 143.866 67.8565 131.921 76.8937C124.793 82.2887 119.034 92.4859 121.425 102.901C124.277 115.337 137.974 124.689 153.708 122.733C152.943 135.549 152.179 148.361 151.409 161.177C179.402 162.788 207.395 164.398 235.382 166.009H235.388Z" stroke="#EA8E8C" stroke-width="4.55912" stroke-miterlimit="10"/>
<path d="M236.71 126.517C236.031 132.87 230.439 137.601 224.188 137.251C217.759 136.892 212.653 131.279 212.947 124.714C213.068 119.866 210.024 115.976 206.67 115.383C202.537 114.653 197.187 118.797 197.218 125.205C198.55 133.746 192.096 140.575 186.063 140.544C180.278 140.519 174.098 134.177 174.893 125.98C175.942 132.216 173.749 138.057 169.321 141C168.359 141.638 164.802 143.796 161.155 142.753C156.019 141.284 152.235 133.893 153.648 124.765" stroke="#EA8E8C" stroke-width="4.55912" stroke-linecap="square" stroke-linejoin="bevel"/>
<path d="M186.225 66.5344C194.199 66.5344 200.663 60.0706 200.663 52.0972C200.663 44.1237 194.199 37.66 186.225 37.66C178.252 37.66 171.788 44.1237 171.788 52.0972C171.788 60.0706 178.252 66.5344 186.225 66.5344Z" fill="white" stroke="#EA8E8C" stroke-width="4.55912" stroke-linecap="square" stroke-linejoin="bevel"/>
<path d="M233.493 185.244C233.99 210.461 212.643 230.663 188.652 229.265C165.431 227.907 146.865 206.732 148.992 182.422" stroke="#EA8E8C" stroke-width="4.55912" stroke-miterlimit="10"/>
<path d="M150.882 164.55C142.27 163.213 133.881 167.337 130.112 174.611C126.455 181.667 128.162 189.727 132.118 195.112C136.855 201.56 145.168 204.64 153.333 202.943" stroke="#EA8E8C" stroke-width="4.55912" stroke-miterlimit="10"/>
<path d="M216.422 193.319C219.063 193.319 221.204 191.178 221.204 188.537C221.204 185.895 219.063 183.755 216.422 183.755C213.781 183.755 211.64 185.895 211.64 188.537C211.64 191.178 213.781 193.319 216.422 193.319Z" fill="#EA8E8C"/>
<path d="M166.155 191.637C168.796 191.637 170.937 189.496 170.937 186.855C170.937 184.214 168.796 182.073 166.155 182.073C163.514 182.073 161.373 184.214 161.373 186.855C161.373 189.496 163.514 191.637 166.155 191.637Z" fill="#EA8E8C"/>
<path d="M205.029 190.097C204.624 197.771 198.418 203.82 191.118 204.073C183.287 204.347 176.357 197.888 176.165 189.631" stroke="#EA8E8C" stroke-width="4.55912" stroke-miterlimit="10"/>
<path d="M190.774 181.83C192.527 185.902 194.285 189.98 196.037 194.053L184.898 193.683C186.858 189.732 188.819 185.781 190.779 181.83H190.774Z" fill="#EA8E8C"/>
<path d="M233.423 169.049C242.105 168.289 250.195 172.965 253.473 180.472C256.649 187.756 254.41 195.684 250.104 200.79C244.947 206.91 236.447 209.427 228.413 207.188" stroke="#EA8E8C" stroke-width="4.55912" stroke-miterlimit="10"/>
<path d="M185.693 45.2382C185.455 42.8979 184.351 34.9093 177.644 28.2428C172.061 22.6959 165.699 21.1407 163.196 20.6646" stroke="#EA8E8C" stroke-width="4.55912" stroke-linecap="square" stroke-linejoin="bevel"/>
<path d="M223.149 137.976L222.704 151.395Z" fill="white"/>
<path d="M223.149 137.976L222.704 151.395" stroke="#EA8E8C" stroke-width="4.55912" stroke-linecap="square" stroke-linejoin="bevel"/>
<path d="M196.438 133.533C196.25 139.121 196.063 144.713 195.875 150.301Z" fill="white"/>
<path d="M196.438 133.533C196.25 139.121 196.063 144.713 195.875 150.301" stroke="#EA8E8C" stroke-width="4.55912" stroke-linecap="square" stroke-linejoin="bevel"/>
<path d="M171.134 141.309C171.043 144.075 170.952 146.846 170.855 149.612Z" fill="white"/>
<path d="M171.134 141.309C171.043 144.075 170.952 146.846 170.855 149.612" stroke="#EA8E8C" stroke-width="4.55912" stroke-linecap="square" stroke-linejoin="bevel"/>
<path d="M148.759 163.796C148.476 167.418 151.176 170.579 154.792 170.862H154.843C156.611 171.004 158.278 170.482 159.6 169.505C160.01 172.63 162.639 175.092 165.891 175.199H165.942C168.865 175.3 171.428 173.603 172.578 171.111C173.404 173.486 175.582 175.264 178.252 175.477C181.59 175.736 184.569 173.633 185.526 170.568C186.478 172.671 188.52 174.206 190.987 174.398C194.026 174.636 196.762 172.909 197.957 170.28C199.001 172.372 201.128 173.841 203.631 173.927C206.777 174.033 209.507 172.068 210.505 169.251C211.184 172.048 213.651 174.155 216.665 174.256C219.633 174.358 222.227 172.605 223.346 170.047L223.316 170.948C223.194 174.581 226.031 177.615 229.663 177.736L230.231 177.757C234.121 177.888 237.378 174.839 237.51 170.948L237.85 160.777L149.251 157.818L149.215 158.877H149.154L148.764 163.806L148.759 163.796Z" fill="#EA8E8C"/>
<path d="M152.933 211.043C147.802 213.571 134.439 221.023 126.592 236.878C113.386 263.564 127.691 290.053 129.125 292.601" stroke="#EA8E8C" stroke-width="4.55912" stroke-linecap="square" stroke-linejoin="bevel"/>
<path d="M199.791 228.52C200.227 237.208 205.551 244.897 213.468 248.276C221.001 251.488 229.75 250.313 236.264 245.237C238.797 253.002 241.33 260.773 243.863 268.539C236.993 276.75 226.558 280.524 217.014 278.164C207.932 275.915 203.079 268.954 201.817 267.019" stroke="#EA8E8C" stroke-width="4.55912" stroke-linecap="square" stroke-linejoin="bevel"/>
<path d="M198.779 328.821L200.298 342.356L170.411 346.044V331.896L198.779 328.821Z" fill="white" stroke="#EA8E8C" stroke-width="4.55912" stroke-linecap="square" stroke-linejoin="bevel"/>
<path d="M225.874 241.767L242.292 277.612L299.783 258.549C299.783 258.549 312.736 248.428 307.275 236.65C301.814 224.873 271.81 231.195 271.81 231.195L275.29 216.707C275.29 216.707 274.758 209.635 267.798 211.682C264.465 212.664 262.641 217.127 262.621 217.153C261.648 218.834 260.671 220.516 259.698 222.198C258.269 225.693 256.836 229.189 255.407 232.679C245.56 235.708 235.712 238.732 225.864 241.762L225.874 241.767Z" fill="white" stroke="#EA8E8C" stroke-width="4.55912" stroke-linecap="square" stroke-linejoin="bevel"/>
<path d="M199.857 256.635C202.37 279.937 204.877 303.239 207.39 326.541C197.147 330.087 179.523 334.656 157.68 332.62C142.62 331.217 130.462 327.129 122.033 323.502C129.733 294.794 137.432 266.092 145.127 237.385" stroke="#EA8E8C" stroke-width="4.55912" stroke-linecap="square" stroke-linejoin="bevel"/>
<path d="M190.673 228.52C189.827 237.132 188.986 245.743 188.14 254.355L162.305 247.77C162.812 238.312 163.318 228.859 163.825 219.402C161.966 218.049 160.112 216.702 158.253 215.349C156.733 226.327 155.213 237.299 153.693 248.276C148.461 254.694 143.223 261.108 137.99 267.526C133.091 285.595 128.198 303.659 123.299 321.729C132.423 325.756 147.529 331.07 166.864 331.86C184.204 332.569 198.297 329.368 207.39 326.541C205.364 309.911 203.337 293.275 201.311 276.644C199.118 269.892 196.919 263.134 194.726 256.381C195.739 247.43 196.752 238.484 197.765 229.533C195.399 229.194 193.039 228.859 190.673 228.52Z" fill="#EA8E8C"/>
<path d="M192.953 343.764V358.202C192.953 358.202 192.446 359.721 187.38 359.721C182.315 359.721 181.808 357.695 181.808 357.695V345.537C185.521 344.945 189.239 344.357 192.953 343.764Z" fill="white" stroke="#EA8E8C" stroke-width="4.55912" stroke-linecap="square" stroke-linejoin="bevel"/>
<path d="M192.405 358.475C199.325 358.445 205.044 359.007 209.304 359.605C214.35 360.314 217.399 361.094 218.514 364.139C219.329 366.368 218.808 368.982 218.26 370.765C204.568 370.309 190.87 369.858 177.178 369.402C177.036 367.903 176.914 364.843 178.054 361.337C178.753 359.184 179.69 357.599 180.394 356.581C181.068 357.482 182.456 359.068 184.65 359.818C188.373 361.094 191.625 359.012 192.405 358.48V358.475Z" fill="#EA8E8C" stroke="#EA8E8C" stroke-width="4.55912" stroke-linecap="square" stroke-linejoin="bevel"/>
<path d="M129.986 327.179L127.347 340.538L156.824 346.698L157.999 332.6L129.986 327.179Z" fill="white" stroke="#EA8E8C" stroke-width="4.55912" stroke-linecap="square" stroke-linejoin="bevel"/>
<path d="M134.55 342.554C134.149 347.351 133.749 352.143 133.349 356.94C133.349 356.94 133.729 358.496 138.774 358.916C143.82 359.336 144.494 357.361 144.494 357.361L145.502 345.244C141.849 344.347 138.197 343.45 134.545 342.549L134.55 342.554Z" fill="white" stroke="#EA8E8C" stroke-width="4.55912" stroke-linecap="square" stroke-linejoin="bevel"/>
<path d="M133.876 357.259C126.982 356.657 121.237 356.738 116.942 356.981C111.851 357.27 108.75 357.791 107.388 360.735C106.39 362.887 106.694 365.537 107.089 367.36C120.771 368.044 134.459 368.733 148.141 369.417C148.41 367.933 148.779 364.894 147.939 361.307C147.422 359.103 146.621 357.442 146.003 356.368C145.259 357.209 143.744 358.673 141.495 359.24C137.68 360.203 134.611 357.857 133.876 357.259Z" fill="#EA8E8C" stroke="#EA8E8C" stroke-width="4.55912" stroke-linecap="square" stroke-linejoin="bevel"/>
<path d="M301.849 215.319L292.994 204.802C292.118 203.759 291.687 202.411 291.804 201.059L292.452 193.516C292.695 190.689 290.598 188.202 287.777 187.964L286.687 187.873L282.589 193.744L279.555 187.26L279.033 187.214L274.935 193.086L271.901 186.601L271.642 186.581L271.384 186.561L267.286 192.432L264.251 185.948L263.73 185.902L259.632 191.773L256.597 185.289L255.508 185.198C252.681 184.955 250.194 187.052 249.956 189.874L249.308 197.417C249.191 198.774 248.543 200.031 247.499 200.907L236.983 209.762C235.939 210.638 235.291 211.894 235.174 213.252L233.067 237.841C232.824 240.668 234.921 243.155 237.743 243.393L266.561 245.865L295.38 248.337C298.207 248.58 300.694 246.483 300.932 243.661L303.039 219.073C303.156 217.715 302.73 216.367 301.849 215.329V215.319Z" fill="#EA8E8C"/>
<path d="M284.692 243.17L278.319 242.623C275.412 242.375 273.259 239.817 273.507 236.909L275.082 218.561C275.204 217.163 275.873 215.871 276.942 214.969L283.75 209.24C284.895 208.278 286.328 207.882 287.711 208.029L251.714 204.944" stroke="white" stroke-width="2.53285" stroke-miterlimit="10"/>
<path d="M313.355 160.284C313.763 158.182 316.771 158.182 317.179 160.284L317.629 162.605C317.781 163.384 318.39 163.994 319.17 164.145L321.491 164.596C323.593 165.004 323.593 168.012 321.491 168.42L319.17 168.871C318.39 169.022 317.781 169.632 317.629 170.411L317.179 172.732C316.771 174.834 313.763 174.834 313.355 172.732L312.904 170.411C312.753 169.632 312.143 169.022 311.364 168.871L309.043 168.42C306.941 168.012 306.941 165.004 309.043 164.596L311.364 164.145C312.143 163.994 312.753 163.384 312.904 162.605L313.355 160.284Z" fill="white"/>
<path d="M301.182 172.943C301.59 170.842 304.598 170.842 305.006 172.943L306.011 178.118C306.163 178.898 306.772 179.508 307.552 179.659L312.727 180.664C314.828 181.072 314.828 184.08 312.727 184.488L307.552 185.493C306.772 185.644 306.163 186.254 306.011 187.033L305.006 192.208C304.598 194.31 301.59 194.31 301.182 192.208L300.177 187.033C300.026 186.254 299.416 185.644 298.637 185.493L293.462 184.488C291.36 184.08 291.36 181.072 293.462 180.664L298.637 179.659C299.416 179.508 300.026 178.898 300.177 178.118L301.182 172.943Z" fill="white"/>
<path d="M239.345 225.53C239.753 223.428 242.76 223.428 243.168 225.53L243.619 227.851C243.771 228.63 244.38 229.24 245.16 229.391L247.481 229.842C249.582 230.25 249.582 233.258 247.481 233.666L245.16 234.117C244.38 234.268 243.771 234.878 243.619 235.657L243.168 237.978C242.76 240.08 239.753 240.08 239.345 237.978L238.894 235.657C238.742 234.878 238.133 234.268 237.353 234.117L235.032 233.666C232.931 233.258 232.931 230.25 235.032 229.842L237.353 229.391C238.133 229.24 238.742 228.63 238.894 227.851L239.345 225.53Z" fill="white"/>
<path d="M223.276 208.975C223.685 206.873 226.692 206.873 227.1 208.975L228.105 214.15C228.257 214.929 228.866 215.539 229.646 215.69L234.821 216.695C236.923 217.104 236.923 220.111 234.821 220.519L229.646 221.524C228.866 221.676 228.257 222.285 228.105 223.065L227.1 228.24C226.692 230.342 223.685 230.342 223.276 228.24L222.271 223.065C222.12 222.285 221.51 221.676 220.731 221.524L215.556 220.519C213.454 220.111 213.454 217.104 215.556 216.695L220.731 215.69C221.51 215.539 222.12 214.929 222.271 214.15L223.276 208.975Z" fill="white"/>
</svg>
