<svg width="390" height="390" viewBox="0 0 390 390" fill="none" xmlns="http://www.w3.org/2000/svg">
<ellipse cx="185.943" cy="365.938" rx="104.606" ry="16.6709" transform="rotate(-1.24402 185.943 365.938)" fill="#ECD4D3"/>
<path d="M231.035 160.57C231.024 147.208 231.009 133.851 230.999 120.49C241.373 123.594 252.203 120.566 258.291 113.017C266.209 103.196 262.775 89.8448 257.875 82.5856C247.191 66.7534 219.798 66.17 210.612 76.6352C207.208 80.5109 204.859 87.5468 207.776 91.8942C210.606 96.1148 218.251 97.5758 222.02 94.7452C228.96 89.5252 226.56 66.8346 213.868 54.7765C199.451 41.0799 173.996 42.6322 159.072 54.5077C150.737 61.1378 142.469 73.556 144.782 85.6496C145.096 87.278 147.379 98.1338 154.608 99.2143C159.655 99.9651 165.448 95.6988 166.666 90.4282C168.122 84.1227 162.476 78.7963 160.908 77.315C152.325 69.2137 134.875 66.7027 123.354 76.3055C116.481 82.0327 111.2 92.5081 114.076 102.811C117.515 115.118 131.653 123.828 147.303 121.129C147.141 133.983 146.978 146.838 146.811 159.692C174.889 159.987 202.962 160.281 231.04 160.575L231.035 160.57Z" stroke="#EA8E8C" stroke-width="4.56553" stroke-miterlimit="10"/>
<path d="M230.497 121.007C230.157 128.155 224.075 133.06 218.475 132.33C214.193 131.772 210.424 127.947 209.557 122.889C208.101 118.795 204.621 115.949 200.933 115.787C195.89 115.564 190.762 120.378 190.787 126.947C189.783 132.852 185.238 137.118 180.494 137.413C174.387 137.793 167.929 131.569 168.634 123.371C169.973 129.555 168.061 135.505 163.769 138.655C162.836 139.34 159.376 141.669 155.683 140.796C150.474 139.568 146.344 132.355 147.328 123.153" stroke="#EA8E8C" stroke-width="4.56553" stroke-linecap="square" stroke-linejoin="bevel"/>
<path d="M176.502 63.3952C184.487 63.3952 190.959 56.9224 190.959 48.9377C190.959 40.9531 184.487 34.4802 176.502 34.4802C168.517 34.4802 162.044 40.9531 162.044 48.9377C162.044 56.9224 168.517 63.3952 176.502 63.3952Z" fill="white" stroke="#EA8E8C" stroke-width="4.56553" stroke-linecap="square" stroke-linejoin="bevel"/>
<path d="M230.04 179.902C231.719 205.104 211.321 226.319 187.256 226.045C163.962 225.781 144.396 205.469 145.385 181.054" stroke="#EA8E8C" stroke-width="4.56553" stroke-miterlimit="10"/>
<path d="M146.436 163.086C137.756 162.153 129.564 166.672 126.134 174.124C122.807 181.353 124.891 189.338 129.102 194.537C134.144 200.767 142.606 203.455 150.692 201.376" stroke="#EA8E8C" stroke-width="4.56553" stroke-miterlimit="10"/>
<path d="M209.064 187.953C211.709 187.953 213.853 185.809 213.853 183.164C213.853 180.519 211.709 178.375 209.064 178.375C206.419 178.375 204.275 180.519 204.275 183.164C204.275 185.809 206.419 187.953 209.064 187.953Z" fill="#EA8E8C"/>
<path d="M164.789 188.46C167.433 188.46 169.577 186.316 169.577 183.671C169.577 181.027 167.433 178.883 164.789 178.883C162.144 178.883 160 181.027 160 183.671C160 186.316 162.144 188.46 164.789 188.46Z" fill="#EA8E8C"/>
<path d="M173.625 190.56C173.666 197.515 179.018 203.252 185.613 203.79C192.684 204.368 199.228 198.824 199.75 191.362" stroke="#EA8E8C" stroke-width="4.56553" stroke-miterlimit="10"/>
<path d="M187.155 178.497C189.103 182.489 191.046 186.487 192.994 190.479L181.833 190.631C183.609 186.588 185.384 182.54 187.155 178.497Z" fill="#EA8E8C"/>
<path d="M229.208 163.705C237.857 162.538 246.172 166.83 249.804 174.19C253.324 181.328 251.458 189.363 247.389 194.674C242.519 201.041 234.134 203.958 225.992 202.096" stroke="#EA8E8C" stroke-width="4.56553" stroke-miterlimit="10"/>
<path d="M175.65 42.1047C175.3 39.7762 173.819 31.8373 166.798 25.4811C160.954 20.1952 154.511 18.9372 151.99 18.5821" stroke="#EA8E8C" stroke-width="4.56553" stroke-linecap="square" stroke-linejoin="bevel"/>
<path d="M217.475 133.106C217.536 137.585 217.597 142.069 217.658 146.549L217.475 133.106Z" fill="white"/>
<path d="M217.475 133.106C217.536 137.585 217.597 142.069 217.658 146.549" stroke="#EA8E8C" stroke-width="4.56553" stroke-linecap="square" stroke-linejoin="bevel"/>
<path d="M190.543 129.92C190.62 135.52 190.696 141.121 190.772 146.721L190.543 129.92Z" fill="white"/>
<path d="M190.543 129.92C190.62 135.52 190.696 141.121 190.772 146.721" stroke="#EA8E8C" stroke-width="4.56553" stroke-linecap="square" stroke-linejoin="bevel"/>
<path d="M165.601 138.884C165.637 141.658 165.677 144.428 165.713 147.203L165.601 138.884Z" fill="white"/>
<path d="M165.601 138.884C165.637 141.658 165.677 144.428 165.713 147.203" stroke="#EA8E8C" stroke-width="4.56553" stroke-linecap="square" stroke-linejoin="bevel"/>
<path d="M144.28 162.432C144.168 166.064 147.014 169.102 150.646 169.214H150.697C152.472 169.27 154.116 168.671 155.389 167.626C155.947 170.736 158.691 173.069 161.953 173.029H162.004C164.931 172.988 167.417 171.172 168.446 168.625C169.385 170.964 171.647 172.638 174.326 172.724C177.674 172.826 180.555 170.584 181.372 167.474C182.427 169.528 184.537 170.974 187.018 171.05C190.067 171.147 192.725 169.29 193.795 166.607C194.942 168.651 197.133 170.021 199.639 169.985C202.789 169.944 205.427 167.844 206.295 164.983C207.101 167.748 209.673 169.742 212.691 169.701C215.71 169.66 218.18 167.788 219.18 165.176L219.19 166.079C219.24 169.716 222.223 172.618 225.86 172.567L226.429 172.557C230.324 172.506 233.439 169.3 233.388 165.404L233.251 155.213L144.488 156.42L144.503 157.481H144.442L144.285 162.432H144.28Z" fill="#EA8E8C"/>
<path d="M163.932 219.622C158.499 220.87 144.219 224.863 134.149 236.885C117.201 257.126 127.428 281.922 128.462 284.316" stroke="#EA8E8C" stroke-width="4.56553" stroke-linecap="square" stroke-linejoin="bevel"/>
<path d="M222.538 326.405L224.764 339.858L195.068 345.108L194.328 330.96L222.538 326.405Z" fill="white" stroke="#EA8E8C" stroke-width="4.56553" stroke-linecap="square" stroke-linejoin="bevel"/>
<path d="M218.328 253.144C222.056 276.316 225.785 299.489 229.513 322.661C219.454 326.745 202.069 332.234 180.119 331.336C164.987 330.717 152.614 327.267 143.991 324.082C148.404 299.697 152.817 275.312 157.226 250.927" stroke="#EA8E8C" stroke-width="4.56553" stroke-linecap="square" stroke-linejoin="bevel"/>
<path d="M208.715 219.724C206.853 230.037 204.996 240.355 203.134 250.668C193.329 250.161 183.518 249.653 173.712 249.146L170.669 221.753C168.3 220.571 165.936 219.384 163.567 218.202C163.399 232.238 163.227 246.27 163.059 260.306C160.538 262.797 158.017 265.283 155.501 267.773C151.549 286.096 147.592 304.419 143.641 322.747C152.975 326.298 168.36 330.823 187.739 330.605C205.113 330.407 219.043 326.471 227.986 323.169C225.79 306.783 223.593 290.393 221.397 274.008C218.013 269.275 214.635 264.537 211.251 259.804C212.773 246.782 214.295 233.765 215.817 220.743C213.448 220.404 211.084 220.069 208.715 219.729V219.724Z" fill="#EA8E8C"/>
<path d="M217.495 341.649L218.251 356.086C218.251 356.086 217.825 357.633 212.757 357.897C207.69 358.161 207.081 356.162 207.081 356.162L206.447 344.003C210.13 343.216 213.818 342.43 217.5 341.649H217.495Z" fill="white" stroke="#EA8E8C" stroke-width="4.56553" stroke-linecap="square" stroke-linejoin="bevel"/>
<path d="M217.713 356.39C224.633 356 230.38 356.258 234.672 356.639C239.755 357.085 242.844 357.704 244.122 360.692C245.056 362.878 244.665 365.521 244.214 367.332C230.497 367.596 216.775 367.855 203.058 368.119C202.835 366.622 202.556 363.573 203.514 360.007C204.103 357.816 204.955 356.182 205.604 355.127C206.325 355.995 207.796 357.506 210.028 358.14C213.817 359.221 216.962 356.969 217.713 356.395V356.39Z" fill="#EA8E8C" stroke="#EA8E8C" stroke-width="4.56553" stroke-linecap="square" stroke-linejoin="bevel"/>
<path d="M152.137 327.338L150.194 340.837L179.997 345.458L180.433 331.295L152.137 327.338Z" fill="white" stroke="#EA8E8C" stroke-width="4.56553" stroke-linecap="square" stroke-linejoin="bevel"/>
<path d="M157.505 342.476C157.357 347.295 157.205 352.109 157.058 356.928C157.058 356.928 157.52 358.465 162.587 358.622C167.655 358.78 168.228 356.766 168.228 356.766L168.604 344.596C164.906 343.891 161.203 343.181 157.505 342.476Z" fill="white" stroke="#EA8E8C" stroke-width="4.56553" stroke-linecap="square" stroke-linejoin="bevel"/>
<path d="M157.596 357.217C150.671 356.974 144.929 357.354 140.647 357.826C135.575 358.384 132.495 359.064 131.288 362.077C130.4 364.284 130.847 366.916 131.334 368.717C145.056 368.687 158.778 368.656 172.5 368.631C172.687 367.135 172.905 364.076 171.871 360.53C171.237 358.353 170.349 356.735 169.674 355.695C168.974 356.578 167.533 358.12 165.317 358.805C161.553 359.967 158.357 357.78 157.596 357.222V357.217Z" fill="#EA8E8C" stroke="#EA8E8C" stroke-width="4.56553" stroke-linecap="square" stroke-linejoin="bevel"/>
<path d="M213.183 218.922C218.616 220.17 232.896 224.163 242.966 236.185C259.914 256.426 249.687 281.221 248.652 283.616" stroke="#EA8E8C" stroke-width="4.56553" stroke-linecap="square" stroke-linejoin="bevel"/>
<path d="M224.187 279.329C233.744 282.814 243.301 286.304 252.858 289.789L241.191 309.573C240.683 312.617 242.712 316.675 242.712 316.675C242.545 314.986 242.373 313.292 242.205 311.603C244.067 310.928 245.923 310.248 247.785 309.573C251.696 307.488 255.607 306.875 257.424 308.559C260.569 311.471 255.907 319.831 255.394 320.734C251.96 326.765 243.803 334.658 235.61 332.401C232.115 331.437 229.751 328.941 228.351 327.024" fill="white"/>
<path d="M224.187 279.329C233.744 282.814 243.301 286.304 252.858 289.789L241.191 309.573C240.683 312.617 242.712 316.675 242.712 316.675C242.545 314.986 242.373 313.292 242.205 311.603C244.067 310.928 245.923 310.248 247.785 309.573C251.696 307.488 255.607 306.875 257.424 308.559C260.569 311.471 255.907 319.831 255.394 320.734C251.96 326.765 243.803 334.658 235.61 332.401C232.115 331.437 229.751 328.941 228.351 327.024" stroke="#EA8E8C" stroke-width="4.56553" stroke-linecap="square" stroke-linejoin="bevel"/>
<path d="M166.559 251.53H117.81C111.573 251.53 106.518 256.586 106.518 262.822V311.572C106.518 317.809 111.573 322.864 117.81 322.864H166.559C172.796 322.864 177.851 317.809 177.851 311.572V262.822C177.851 256.586 172.796 251.53 166.559 251.53Z" fill="white" stroke="#EA8E8C" stroke-width="4.56553" stroke-linecap="square" stroke-linejoin="bevel"/>
<path d="M134.18 265.957L133.753 265.288C133.596 265.323 133.434 265.354 133.261 265.374C133.089 265.394 132.916 265.404 132.739 265.404C131.922 265.404 131.217 265.237 130.624 264.902C130.03 264.567 129.573 264.101 129.254 263.502C128.934 262.904 128.772 262.214 128.772 261.422V260.585C128.772 259.784 128.934 259.084 129.254 258.485C129.573 257.887 130.03 257.415 130.624 257.08C131.217 256.745 131.922 256.578 132.739 256.578C133.556 256.578 134.266 256.745 134.854 257.085C135.443 257.425 135.899 257.892 136.219 258.49C136.538 259.089 136.701 259.789 136.701 260.585V261.422C136.701 262.062 136.594 262.635 136.386 263.142C136.178 263.649 135.874 264.086 135.483 264.441L136.447 265.952H134.18V265.957ZM131.364 262.655C131.486 262.97 131.658 263.208 131.877 263.375C132.095 263.543 132.353 263.629 132.648 263.649C132.663 263.649 132.678 263.649 132.693 263.649C132.708 263.649 132.724 263.644 132.739 263.634L132.034 262.513H134.032L134.068 262.564L134.103 262.614C134.164 262.462 134.21 262.295 134.24 262.107C134.271 261.919 134.291 261.711 134.291 261.488V260.565C134.291 260.129 134.225 259.758 134.093 259.459C133.961 259.16 133.779 258.932 133.545 258.779C133.312 258.627 133.043 258.546 132.734 258.546C132.424 258.546 132.15 258.622 131.917 258.779C131.684 258.937 131.501 259.16 131.369 259.459C131.237 259.758 131.171 260.129 131.171 260.565V261.488C131.171 261.955 131.232 262.346 131.354 262.66L131.364 262.655Z" fill="#EA8E8C"/>
<path d="M142.697 263.036C142.93 262.812 143.052 262.457 143.052 261.975V256.725H145.528V262.305C145.528 262.929 145.376 263.477 145.076 263.938C144.777 264.4 144.346 264.765 143.788 265.019C143.23 265.273 142.57 265.404 141.804 265.404C141.038 265.404 140.379 265.278 139.821 265.019C139.263 264.76 138.832 264.4 138.532 263.938C138.233 263.477 138.081 262.929 138.081 262.305V256.725H140.551V261.975C140.551 262.462 140.668 262.817 140.906 263.036C141.145 263.254 141.439 263.365 141.804 263.365C142.169 263.365 142.464 263.254 142.702 263.03L142.697 263.036Z" fill="#EA8E8C"/>
<path d="M146.507 265.257L149.139 256.725H152.239L154.851 265.257H152.219L151.797 263.553H149.378L148.947 265.257H146.501H146.507ZM150.544 258.805L149.799 261.798H151.392L150.666 258.805H150.539H150.544Z" fill="#EA8E8C"/>
<path d="M117.815 251.53H166.559C172.794 251.53 177.851 256.593 177.851 262.822V271.522H106.518V262.822C106.518 256.588 111.58 251.53 117.81 251.53H117.815Z" stroke="#EA8E8C" stroke-width="4.56553" stroke-linecap="square" stroke-linejoin="bevel"/>
<path d="M129.767 250.257C134.119 250.364 138.472 250.47 142.824 250.577C142.834 249.567 142.733 248.091 142.185 246.437C140.77 242.161 137.401 239.873 135.813 238.793C129.457 234.471 109.942 229.864 103.332 241.019C98.2746 249.557 103.074 263.441 112.25 267.768C117.435 270.213 125.297 270.214 128.493 266.176C130.979 263.041 130.446 257.714 130.086 254.072C129.797 251.145 129.031 248.04 129.133 248.02C129.193 248.005 129.503 249.192 129.772 250.247L129.767 250.257Z" fill="white" stroke="#EA8E8C" stroke-width="4.56553" stroke-linecap="square" stroke-linejoin="bevel"/>
<path d="M121.31 306.956C119.631 306.236 118.297 305.231 117.313 303.943C116.329 302.654 115.766 301.163 115.618 299.453L115.598 299.2H122.487L122.528 299.438C122.619 299.976 122.862 300.463 123.258 300.904C123.654 301.345 124.181 301.695 124.841 301.959C125.5 302.223 126.287 302.355 127.195 302.355C128.103 302.355 128.858 302.213 129.508 301.924C130.157 301.635 130.659 301.239 131.014 300.732C131.369 300.224 131.547 299.646 131.547 298.992V298.951C131.547 297.794 131.121 296.917 130.269 296.313C129.416 295.709 128.204 295.41 126.626 295.41H123.557V290.51H126.591C127.524 290.51 128.321 290.373 128.98 290.099C129.64 289.825 130.157 289.434 130.517 288.937C130.877 288.44 131.06 287.862 131.06 287.207V287.167C131.06 286.512 130.908 285.944 130.598 285.473C130.289 285.001 129.843 284.641 129.259 284.392C128.676 284.143 127.976 284.017 127.164 284.017C126.352 284.017 125.612 284.143 124.988 284.402C124.364 284.661 123.872 285.021 123.512 285.483C123.152 285.944 122.933 286.492 122.852 287.106L122.832 287.284H116.278L116.298 287.01C116.43 285.315 116.953 283.844 117.871 282.591C118.789 281.338 120.037 280.364 121.62 279.669C123.202 278.974 125.049 278.624 127.159 278.624C129.269 278.624 131.187 278.934 132.78 279.558C134.373 280.182 135.605 281.059 136.473 282.185C137.34 283.312 137.771 284.641 137.771 286.162V286.203C137.771 287.395 137.508 288.435 136.975 289.323C136.442 290.211 135.732 290.936 134.839 291.499C133.946 292.062 132.967 292.458 131.907 292.681V292.818C134.033 293.026 135.727 293.706 136.995 294.847C138.263 295.988 138.892 297.5 138.892 299.372V299.413C138.892 301.158 138.416 302.674 137.457 303.968C136.498 305.262 135.149 306.266 133.404 306.981C131.659 307.696 129.594 308.052 127.205 308.052C124.963 308.052 122.999 307.691 121.32 306.971L121.31 306.956Z" fill="#EA8E8C"/>
<path d="M147.552 306.246C145.725 305.054 144.325 303.354 143.351 301.158C142.377 298.961 141.885 296.354 141.885 293.335V293.295C141.885 290.276 142.372 287.669 143.351 285.473C144.33 283.276 145.73 281.582 147.552 280.395C149.373 279.208 151.549 278.614 154.065 278.614C156.581 278.614 158.752 279.208 160.568 280.395C162.384 281.582 163.785 283.276 164.759 285.473C165.738 287.669 166.225 290.276 166.225 293.295V293.335C166.225 296.354 165.738 298.961 164.759 301.158C163.779 303.354 162.384 305.054 160.568 306.246C158.752 307.438 156.581 308.036 154.065 308.036C151.549 308.036 149.373 307.438 147.552 306.246ZM156.713 301.325C157.444 300.615 157.991 299.59 158.367 298.246C158.742 296.902 158.93 295.263 158.93 293.335V293.295C158.93 291.367 158.742 289.734 158.367 288.394C157.991 287.055 157.444 286.031 156.713 285.325C155.983 284.62 155.1 284.26 154.065 284.26C153.03 284.26 152.148 284.615 151.417 285.325C150.687 286.036 150.134 287.055 149.753 288.394C149.373 289.734 149.18 291.367 149.18 293.295V293.335C149.18 295.263 149.373 296.902 149.753 298.246C150.134 299.59 150.687 300.62 151.417 301.325C152.148 302.03 153.03 302.39 154.065 302.39C155.1 302.39 155.983 302.035 156.713 301.325Z" fill="#EA8E8C"/>
<path d="M92.0367 212.109C92.4559 209.95 95.5441 209.95 95.9633 212.109L97.6459 220.772C97.8014 221.573 98.4274 222.199 99.2279 222.354L107.891 224.037C110.05 224.456 110.05 227.544 107.891 227.963L99.2279 229.646C98.4274 229.801 97.8014 230.427 97.6459 231.228L95.9633 239.891C95.5441 242.05 92.4559 242.05 92.0367 239.891L90.3541 231.228C90.1986 230.427 89.5726 229.801 88.7721 229.646L80.1086 227.963C77.9504 227.544 77.9504 224.456 80.1086 224.037L88.7721 222.354C89.5726 222.199 90.1986 221.573 90.3541 220.772L92.0367 212.109Z" fill="white"/>
<path d="M190.537 289.109C190.956 286.95 194.044 286.95 194.463 289.109L194.926 291.492C195.082 292.292 195.708 292.918 196.508 293.074L198.891 293.537C201.05 293.956 201.05 297.044 198.891 297.463L196.508 297.926C195.708 298.082 195.082 298.708 194.926 299.508L194.463 301.891C194.044 304.05 190.956 304.05 190.537 301.891L190.074 299.508C189.918 298.708 189.292 298.082 188.492 297.926L186.109 297.463C183.95 297.044 183.95 293.956 186.109 293.537L188.492 293.074C189.292 292.918 189.918 292.292 190.074 291.492L190.537 289.109Z" fill="white"/>
<path d="M178.037 302.109C178.456 299.95 181.544 299.95 181.963 302.109L182.995 307.423C183.151 308.223 183.777 308.849 184.577 309.005L189.891 310.037C192.05 310.456 192.05 313.544 189.891 313.963L184.577 314.995C183.777 315.151 183.151 315.777 182.995 316.577L181.963 321.891C181.544 324.05 178.456 324.05 178.037 321.891L177.005 316.577C176.849 315.777 176.223 315.151 175.423 314.995L170.109 313.963C167.95 313.544 167.95 310.456 170.109 310.037L175.423 309.005C176.223 308.849 176.849 308.223 177.005 307.423L178.037 302.109Z" fill="white"/>
<path d="M108.518 189.054C108.728 187.975 110.272 187.975 110.482 189.054L112.217 197.992C112.295 198.392 112.608 198.705 113.008 198.783L121.946 200.518C123.025 200.728 123.025 202.272 121.946 202.482L113.008 204.217C112.608 204.295 112.295 204.608 112.217 205.008L110.482 213.946C110.272 215.025 108.728 215.025 108.518 213.946L106.783 205.008C106.705 204.608 106.392 204.295 105.992 204.217L97.0543 202.482C95.9752 202.272 95.9752 200.728 97.0543 200.518L105.992 198.783C106.392 198.705 106.705 198.392 106.783 197.992L108.518 189.054Z" fill="white"/>
</svg>
