<svg width="137" height="138" viewBox="0 0 137 138" fill="none" xmlns="http://www.w3.org/2000/svg">
<g id="Group">
<path id="Vector" d="M109.54 137.15H9.5C4.26 137.15 0 132.89 0 127.65V30.58H109.54V35.58H5V127.66C5 130.14 7.02 132.16 9.5 132.16H109.54V137.16V137.15Z" fill="white"/>
<path id="Vector_2" d="M87.47 31.45H82.47C82.47 16.87 70.6 5 56.02 5C41.44 5 29.57 16.87 29.57 31.45H24.57C24.57 14.11 38.68 0 56.02 0C73.36 0 87.47 14.11 87.47 31.45Z" fill="white"/>
<path id="Vector_3" d="M127.1 137.15H34.06C28.82 137.15 24.56 132.89 24.56 127.65V30.58H136.6V127.66C136.6 132.9 132.34 137.16 127.1 137.16V137.15ZM29.56 35.57V127.65C29.56 130.13 31.58 132.15 34.06 132.15H127.1C129.58 132.15 131.6 130.13 131.6 127.65V35.58H29.56V35.57Z" fill="white"/>
<path id="Vector_4" d="M112.04 31.45H107.04C107.04 16.87 95.17 5 80.59 5C66.01 5 54.14 16.87 54.14 31.45H49.14C49.14 14.11 63.25 0 80.59 0C97.93 0 112.04 14.11 112.04 31.45Z" fill="white"/>
<path id="Vector_5" d="M109.54 33.08H27.07V127.66C27.07 131.53 30.2 134.66 34.07 134.66H127.11C130.98 134.66 134.11 131.53 134.11 127.66V33.08H109.54ZM104.82 78.21L96.23 86.58C95.48 87.31 95.13 88.37 95.31 89.4L97.34 101.22C97.79 103.83 95.05 105.81 92.71 104.58L82.1 99C81.17 98.51 80.06 98.51 79.13 99L68.52 104.58C66.18 105.81 63.44 103.82 63.89 101.22L65.92 89.4C66.1 88.36 65.75 87.31 65 86.58L56.41 78.21C54.52 76.36 55.5601 73.15 58.1801 72.77L70.05 71.05C71.09 70.9 71.99 70.25 72.45 69.3L77.76 58.55C78.93 56.18 82.31 56.18 83.48 58.55L88.79 69.3C89.25 70.24 90.15 70.89 91.19 71.05L103.06 72.77C105.68 73.15 106.72 76.37 104.83 78.21H104.82Z" fill="white"/>
</g>
</svg>
