<svg width="359" height="359" viewBox="0 0 359 359" fill="none" xmlns="http://www.w3.org/2000/svg">
<path d="M55.0608 77.3804C55.7146 74.1814 60.2854 74.1814 60.9392 77.3804L63.7125 90.949C63.9532 92.1265 64.8735 93.0468 66.051 93.2875L79.6196 96.0608C82.8186 96.7146 82.8186 101.285 79.6196 101.939L66.051 104.713C64.8735 104.953 63.9532 105.873 63.7125 107.051L60.9392 120.62C60.2854 123.819 55.7146 123.819 55.0608 120.62L52.2875 107.051C52.0468 105.873 51.1265 104.953 49.949 104.713L36.3804 101.939C33.1814 101.285 33.1814 96.7146 36.3804 96.0608L49.949 93.2875C51.1265 93.0468 52.0468 92.1265 52.2875 90.949L55.0608 77.3804Z" fill="white"/>
<path d="M298.061 251.38C298.715 248.181 303.285 248.181 303.939 251.38L306.713 264.949C306.953 266.127 307.873 267.047 309.051 267.287L322.62 270.061C325.819 270.715 325.819 275.285 322.62 275.939L309.051 278.713C307.873 278.953 306.953 279.873 306.713 281.051L303.939 294.62C303.285 297.819 298.715 297.819 298.061 294.62L295.287 281.051C295.047 279.873 294.127 278.953 292.949 278.713L279.38 275.939C276.181 275.285 276.181 270.715 279.38 270.061L292.949 267.287C294.127 267.047 295.047 266.127 295.287 264.949L298.061 251.38Z" fill="white"/>
<path d="M253.25 287.529L298.346 179.521C300.623 174.052 296.675 168 290.827 168H69.1774C63.3289 168 59.3707 174.052 61.6579 179.521L106.754 287.529C120.404 293.984 146.033 303.915 179.548 303.999C213.563 304.095 239.558 294.005 253.26 287.529H253.25Z" fill="white"/>
<path d="M281.13 179.97C281.13 139.85 235.83 107.32 179.94 107.32C124.05 107.32 78.75 139.84 78.75 179.97C78.75 207.81 124.05 230.38 179.94 230.38C235.83 230.38 281.13 207.81 281.13 179.97Z" fill="#BCC69F" stroke="white" stroke-width="6" stroke-miterlimit="10"/>
<path d="M257.47 155.42C257.47 124.93 225.08 99.0599 180.15 89.8999C135.22 99.0599 102.83 124.93 102.83 155.42V156.48C102.83 172.93 137.45 186.27 180.15 186.27C222.85 186.27 257.47 172.93 257.47 156.48V155.42Z" fill="#BCC69F" stroke="white" stroke-width="6" stroke-miterlimit="10"/>
<path d="M224.16 121.26C224.16 103.9 205.72 89.18 180.15 83.96C154.57 89.17 136.14 103.9 136.14 121.26V121.87C136.14 131.23 155.85 138.83 180.15 138.83C204.45 138.83 224.16 131.24 224.16 121.87V121.26Z" fill="#BCC69F" stroke="white" stroke-width="6" stroke-miterlimit="10"/>
<path d="M231.51 146.94C245.593 146.94 257.01 135.523 257.01 121.44C257.01 107.357 245.593 95.9399 231.51 95.9399C217.427 95.9399 206.01 107.357 206.01 121.44C206.01 135.523 217.427 146.94 231.51 146.94Z" fill="#BCC69F" stroke="white" stroke-width="6" stroke-miterlimit="10"/>
<path d="M240.79 112.15C250.75 102.19 266.89 102.19 276.85 112.15" stroke="white" stroke-width="6" stroke-miterlimit="10"/>
<path d="M241.89 111.06C251.85 101.1 251.85 84.96 241.89 75C231.93 84.96 231.93 101.1 241.89 111.06Z" fill="#BCC69F" stroke="white" stroke-width="6" stroke-miterlimit="10"/>
</svg>
