<svg width="112" height="49" viewBox="0 0 112 49" fill="none" xmlns="http://www.w3.org/2000/svg">
<path d="M46.4686 0.456157V5.25787C49.7577 5.25787 52.4347 8.17491 52.4347 11.7522V11.8482C50.3339 8.93118 46.9127 7.0225 43.0593 7.0225C36.6851 7.0225 31.4992 12.2083 31.4992 18.5826C31.4992 24.9569 36.6851 30.1427 43.0593 30.1427C46.9247 30.1427 50.3339 28.2341 52.4347 25.317V29.8907H57.2364V11.7402C57.2364 5.50996 52.4107 0.444153 46.4686 0.444153V0.456157ZM43.0473 25.341C39.314 25.341 36.2889 22.3039 36.2889 18.5826C36.2889 14.8613 39.326 11.8242 43.0473 11.8242C46.7687 11.8242 49.8058 14.8613 49.8058 18.5826C49.8058 22.3039 46.7687 25.341 43.0473 25.341Z" fill="#EA8E8C"/>
<path d="M18.6426 7.0105C15.5455 7.0105 12.7365 8.24694 10.6598 10.2276C9.95155 4.71768 5.44994 0.456161 0 0.456161V5.25787C3.28917 5.25787 5.96613 8.17491 5.96613 11.7522V48.5813H10.7678V27.0216C12.8326 28.9543 15.6056 30.1427 18.6426 30.1427C25.0169 30.1427 30.2028 24.9569 30.2028 18.5826C30.2028 12.2084 25.0169 7.0225 18.6426 7.0225V7.0105ZM18.6426 25.341C14.9093 25.341 11.8842 22.304 11.8842 18.5826C11.8842 14.8613 14.9213 11.8242 18.6426 11.8242C22.364 11.8242 25.4011 14.8613 25.4011 18.5826C25.4011 22.304 22.364 25.341 18.6426 25.341Z" fill="#EA8E8C"/>
<path d="M100.224 30.6229C93.7415 30.6229 88.4596 25.353 88.4596 18.8587C88.4596 12.3644 93.7295 7.0945 100.224 7.0945C106.718 7.0945 111.988 12.3644 111.988 18.8587V21.2596H93.6935C94.6778 23.9125 97.2347 25.8212 100.224 25.8212V30.6229ZM93.6935 16.4578H106.754C105.77 13.8049 103.213 11.8962 100.224 11.8962C97.2347 11.8962 94.6778 13.7929 93.6935 16.4578Z" fill="#EA8E8C"/>
<path d="M112 0.432129H88.4356V5.23384H112V0.432129Z" fill="#EA8E8C"/>
<path d="M78.664 0.0120043C74.6906 0.0120043 71.4614 3.24116 71.4614 7.21457C71.4614 11.188 74.6906 14.4171 78.664 14.4171C79.2642 14.4171 79.8524 14.3331 80.4166 14.1891C79.0842 21.1515 75.915 25.8092 72.998 25.8092C69.1926 25.8092 64.9311 17.8504 64.9311 7.20257H60.1294C60.1294 20.5513 65.6634 30.6109 72.998 30.6109C80.3326 30.6109 85.8666 20.5513 85.8666 7.20257C85.8666 3.22915 82.6374 0 78.664 0V0.0120043ZM78.664 9.62743C77.3435 9.62743 76.2632 8.54705 76.2632 7.22658C76.2632 5.90611 77.3435 4.82572 78.664 4.82572C79.9845 4.82572 81.0649 5.90611 81.0649 7.22658C81.0649 8.54705 79.9845 9.62743 78.664 9.62743Z" fill="#EA8E8C"/>
</svg>
