<svg width="160" height="160" viewBox="0 0 160 160" fill="none" xmlns="http://www.w3.org/2000/svg">
<path d="M124.801 153.571H16.8511C11.1968 153.571 6.60004 148.974 6.60004 143.32V38.5756H124.801V43.9709H11.9953V143.331C11.9953 146.007 14.1751 148.187 16.8511 148.187H124.801V153.582V153.571Z" fill="white"/>
<path d="M100.986 39.5144H95.5904C95.5904 23.7817 82.7819 10.9732 67.0491 10.9732C51.3164 10.9732 38.5079 23.7817 38.5079 39.5144H33.1126C33.1126 20.8035 48.3382 5.57788 67.0491 5.57788C85.7601 5.57788 100.986 20.8035 100.986 39.5144Z" fill="white"/>
<path d="M143.749 153.571H43.3529C37.6986 153.571 33.1018 148.974 33.1018 143.32V38.5756H154V143.331C154 148.985 149.403 153.582 143.749 153.582V153.571ZM38.4971 43.9601V143.32C38.4971 145.996 40.6768 148.176 43.3529 148.176H143.749C146.425 148.176 148.605 145.996 148.605 143.32V43.9709H38.4971V43.9601Z" fill="white"/>
<path d="M127.498 39.5144H122.103C122.103 23.7817 109.294 10.9732 93.5617 10.9732C77.829 10.9732 65.0205 23.7817 65.0205 39.5144H59.6252C59.6252 20.8035 74.8508 5.57788 93.5617 5.57788C112.273 5.57788 127.498 20.8035 127.498 39.5144Z" fill="white"/>
<path d="M124.801 41.2733H35.8103V143.331C35.8103 147.507 39.1877 150.884 43.3637 150.884H143.76C147.936 150.884 151.313 147.507 151.313 143.331V41.2733H124.801ZM119.707 89.9714L110.438 99.0031C109.629 99.7909 109.251 100.935 109.445 102.046L111.636 114.801C112.122 117.617 109.165 119.754 106.64 118.426L95.1911 112.405C94.1876 111.876 92.9898 111.876 91.9863 112.405L80.5374 118.426C78.0124 119.754 75.0558 117.606 75.5414 114.801L77.7319 102.046C77.9261 100.924 77.5484 99.7909 76.7391 99.0031L67.47 89.9714C65.4306 87.9751 66.5528 84.5113 69.38 84.1013L82.1884 82.2453C83.3106 82.0835 84.2818 81.3821 84.7781 80.357L90.508 68.757C91.7705 66.1997 95.4177 66.1997 96.6802 68.757L102.41 80.357C102.906 81.3713 103.878 82.0727 105 82.2453L117.808 84.1013C120.635 84.5113 121.758 87.9859 119.718 89.9714H119.707Z" fill="white"/>
</svg>
