<svg width="70" height="70" viewBox="0 0 70 70" fill="none" xmlns="http://www.w3.org/2000/svg">
<circle cx="34.75" cy="35" r="34.75" fill="#C94B62"/>
<mask id="mask0_301_5015" style="mask-type:alpha" maskUnits="userSpaceOnUse" x="0" y="0" width="70" height="70">
<circle cx="34.75" cy="35" r="34.75" fill="#FDAA2D"/>
</mask>
<g mask="url(#mask0_301_5015)">
<path d="M17.7119 40.4868H51.7881V52.2306C51.7881 55.4204 49.2023 58.0062 46.0125 58.0062H23.4875C20.2977 58.0062 17.7119 55.4204 17.7119 52.2306V40.4868Z" fill="white"/>
<path d="M32.591 50.3054H35.9868C43.3272 50.3054 49.2853 54.6494 49.2853 60.001V72.0603H19.4446V59.8902C19.4446 54.6002 25.3353 50.3054 32.591 50.3054Z" fill="#C94B62" stroke="white" stroke-width="1.73269" stroke-miterlimit="10"/>
<path d="M29.86 46.455H39.0644C39.1799 46.455 39.2742 46.5493 39.2742 46.6648V53.7323C39.2742 56.0907 37.3586 58.0062 35.0003 58.0062H34.0377C31.6158 58.0062 29.6482 56.0387 29.6482 53.6168V46.6648C29.6482 46.5493 29.7425 46.455 29.858 46.455H29.86Z" fill="#C94B62" stroke="white" stroke-width="1.73269" stroke-miterlimit="10"/>
<path d="M18.301 31.9235C17.7927 41.4957 25.6437 49.441 34.775 49.2119C43.6117 48.9905 50.9332 41.1818 50.4327 31.9235" fill="#C94B62"/>
<path d="M18.301 31.9235C17.7927 41.4957 25.6437 49.441 34.775 49.2119C43.6117 48.9905 50.9332 41.1818 50.4327 31.9235" stroke="white" stroke-width="1.73269" stroke-linejoin="round"/>
<path d="M49.9418 26.0747C53.2301 25.6762 56.3624 27.3492 57.7023 30.16C59.0019 32.8861 58.251 35.926 56.682 37.9205C54.8011 40.3097 51.6033 41.3744 48.5229 40.6255" stroke="white" stroke-width="1.73269" stroke-miterlimit="10"/>
<path d="M24.7428 35.2079C25.7465 35.2079 26.5602 34.3942 26.5602 33.3905C26.5602 32.3868 25.7465 31.5731 24.7428 31.5731C23.7391 31.5731 22.9254 32.3868 22.9254 33.3905C22.9254 34.3942 23.7391 35.2079 24.7428 35.2079Z" fill="white"/>
<path d="M43.8582 35.2079C44.8619 35.2079 45.6756 34.3942 45.6756 33.3905C45.6756 32.3868 44.8619 31.5731 43.8582 31.5731C42.8544 31.5731 42.0408 32.3868 42.0408 33.3905C42.0408 34.3942 42.8544 35.2079 43.8582 35.2079Z" fill="white"/>
<path d="M29.0494 35.67C29.1072 38.5886 31.3866 40.9662 34.157 41.1549C37.1276 41.3589 39.8441 38.9929 40.0212 35.8586" stroke="white" stroke-width="1.73269" stroke-miterlimit="10"/>
<path d="M34.5691 31.1688C33.851 32.6936 33.1329 34.2203 32.4148 35.7451H36.6522C35.9572 34.2203 35.2641 32.6936 34.5691 31.1688Z" fill="white"/>
<path d="M18.5321 26.5426C15.2438 26.144 12.1115 27.8171 10.7716 30.6279C9.47207 33.354 10.2229 36.3939 11.7919 38.3884C13.6729 40.7776 16.8706 41.8422 19.951 41.0933" stroke="white" stroke-width="1.73269" stroke-miterlimit="10"/>
<path d="M17.7131 28.9356C17.6972 27.6672 17.7825 22.4434 21.8798 18.1569C26.5763 13.2449 32.9475 13.3239 34.5785 13.345C36.5646 13.3701 42.1639 13.4393 46.285 17.772C49.9498 21.6254 50.0649 26.3487 50.0549 27.5883C48.3585 27.6037 44.5112 27.415 40.531 25.0861C37.4734 23.298 35.6777 21.0306 34.7769 19.6967C33.4217 21.2635 31.3542 23.2883 28.4276 25.0861C24.2112 27.6749 20.1754 28.5795 17.7131 28.9356Z" fill="white" stroke="white" stroke-width="1.15512" stroke-miterlimit="10"/>
</g>
</svg>
