<?xml version="1.0" encoding="UTF-8" standalone="no"?>
<!DOCTYPE svg PUBLIC "-//W3C//DTD SVG 1.1//EN" "http://www.w3.org/Graphics/SVG/1.1/DTD/svg11.dtd">
<svg width="100%" height="100%" viewBox="0 0 390 144" version="1.1" xmlns="http://www.w3.org/2000/svg" xmlns:xlink="http://www.w3.org/1999/xlink" xml:space="preserve" xmlns:serif="http://www.serif.com/" style="fill-rule:evenodd;clip-rule:evenodd;stroke-linejoin:round;stroke-miterlimit:2;">
    <g transform="matrix(1,0,0,1,0,-215.092)">
        <g id="Artboard1" transform="matrix(1,0,0,1.27225,0,215.092)">
            <rect x="0" y="0" width="390" height="112.424" style="fill:none;"/>
            <clipPath id="_clip1">
                <rect x="0" y="0" width="390" height="112.424"/>
            </clipPath>
            <g clip-path="url(#_clip1)">
                <g transform="matrix(-1,-9.62582e-17,1.22465e-16,-0.786008,390,125.308)">
                    <path d="M390,16.4L390,115C390,115 344.155,145.78 314.552,144.736C275.883,143.372 281.997,124.193 230.563,124.193C179.129,124.193 163.723,161.146 88.761,159.361C12.099,157.536 0,115 0,115L-0,16.4L390,16.4Z" style="fill:white;"/>
                </g>
            </g>
        </g>
    </g>
</svg>
