<svg width="156" height="156" viewBox="0 0 156 156" fill="none" xmlns="http://www.w3.org/2000/svg">
<g id="Group 39">
<g id="Group">
<path id="Vector" d="M72.7753 92.03L70.8853 87.4L138.195 59.95C139.475 59.01 140.675 57.99 141.765 56.89C153.615 45.04 153.615 25.75 141.765 13.89C129.915 2.04 110.625 2.04 98.7653 13.89C97.6753 14.98 96.6453 16.18 95.7053 17.46L68.2653 84.77L63.6353 82.88L91.3153 15.04L91.4853 14.8C92.6253 13.21 93.8853 11.72 95.2353 10.37C101.925 3.68 110.815 0 120.265 0C129.715 0 138.615 3.68 145.295 10.37C151.985 17.06 155.665 25.95 155.665 35.4C155.665 44.85 151.985 53.75 145.295 60.43C143.945 61.78 142.455 63.04 140.865 64.18L140.625 64.35L72.7653 92.02L72.7753 92.03Z" fill="white"/>
<path id="Vector_2" d="M72.0753 90.47L69.4653 86.21L65.2053 83.6L101.315 24.63L101.425 24.49C102.625 23.04 103.895 21.64 105.205 20.33C119.245 6.29 136.855 1.91 145.305 10.36C153.755 18.81 149.375 36.42 135.335 50.46C134.025 51.77 132.625 53.04 131.175 54.24L130.885 54.45L72.0653 90.47H72.0753ZM105.395 27.55L69.4853 86.2L128.135 50.29C129.415 49.22 130.655 48.09 131.815 46.94C143.465 35.29 148.035 20.16 141.785 13.92C135.535 7.67 120.415 12.24 108.765 23.89C107.605 25.05 106.475 26.29 105.415 27.56L105.395 27.55Z" fill="white"/>
<path id="Vector_3" d="M141.778 10.3711L67.3201 84.8294L70.8556 88.3649L145.314 13.9066L141.778 10.3711Z" fill="white"/>
</g>
<g id="Group_2">
<path id="Vector_4" d="M70.6824 88.1964L67.4792 84.9932C64.6518 82.1658 60.0677 82.1658 57.2403 84.9932L5.11945 137.114C2.29205 139.941 2.29206 144.526 5.11945 147.353L8.32265 150.556C11.15 153.384 15.7341 153.384 18.5615 150.556L70.6824 98.4353C73.5098 95.6079 73.5098 91.0238 70.6824 88.1964Z" fill="white"/>
<path id="Vector_5" d="M13.4453 154.17C11.2053 154.17 8.96527 153.32 7.26527 151.61L4.06527 148.41C0.655267 145 0.655267 139.45 4.06527 136.04L56.1853 83.92C59.5953 80.51 65.1453 80.51 68.5553 83.92L71.7553 87.12C75.1653 90.53 75.1653 96.08 71.7553 99.49L19.6353 151.61C17.9353 153.32 15.6953 154.17 13.4553 154.17H13.4453ZM9.38527 149.49C11.6253 151.73 15.2653 151.73 17.5053 149.49L69.6253 97.37C71.8653 95.13 71.8653 91.49 69.6253 89.25L66.4253 86.05C64.1853 83.81 60.5453 83.81 58.3053 86.05L6.18527 138.18C3.94527 140.42 3.94527 144.06 6.18527 146.3L9.38527 149.5V149.49Z" fill="white"/>
</g>
<path id="Vector_6" d="M110.045 148.45H105.045C105.045 137.56 96.1853 128.71 85.3053 128.71V123.71C96.1953 123.71 105.045 114.85 105.045 103.97H110.045C110.045 114.86 118.905 123.71 129.785 123.71V128.71C118.895 128.71 110.045 137.57 110.045 148.45ZM96.1353 126.21C101.095 128.63 105.125 132.66 107.545 137.62C109.965 132.66 113.995 128.63 118.955 126.21C113.995 123.79 109.965 119.76 107.545 114.8C105.125 119.76 101.095 123.79 96.1353 126.21Z" fill="white"/>
<path id="Vector_7" d="M35.5153 70.37H30.5153C30.5153 59.48 21.6553 50.63 10.7753 50.63V45.63C21.6653 45.63 30.5153 36.77 30.5153 25.89H35.5153C35.5153 36.78 44.3753 45.63 55.2553 45.63V50.63C44.3653 50.63 35.5153 59.49 35.5153 70.37ZM21.6053 48.13C26.5653 50.55 30.5953 54.58 33.0153 59.54C35.4353 54.58 39.4653 50.55 44.4253 48.13C39.4653 45.71 35.4353 41.68 33.0153 36.72C30.5953 41.68 26.5653 45.71 21.6053 48.13Z" fill="white"/>
</g>
</svg>
