<svg width="359" height="359" viewBox="0 0 359 359" fill="none" xmlns="http://www.w3.org/2000/svg">
<g clip-path="url(#clip0_629_2075)">
<path d="M283.843 263.068C283.843 265.903 282.218 268.453 279.744 269.531C258.524 278.798 222.922 290.876 177.756 290.54C134.453 290.222 100.253 278.635 79.3999 269.531C76.9263 268.453 75.3083 265.903 75.3083 263.068V163.514C75.3083 159.657 78.2638 156.527 81.9024 156.527H277.242C280.887 156.527 283.836 159.657 283.836 163.514V263.068H283.843Z" fill="#ECAE54" stroke="white" stroke-width="6" stroke-miterlimit="10"/>
<path d="M75.5 162.5C74.4357 172.306 78.8102 204.323 84.6563 206.374C91.9838 208.939 102.662 201.732 104.072 188.396C103.072 204.216 113.945 216.065 124.206 215.362C131.915 214.839 139.285 207.232 141.464 196.568C142.744 208.416 152.114 216.637 161.598 215.362C169.897 214.243 176.764 206.055 177.418 195.751C179.144 207.289 188.348 215.419 198.272 214.545C207.627 213.72 215.35 205.091 216.249 194.116C217.306 205.916 226.474 214.553 236.383 213.728C246.86 212.854 255.036 201.667 253.641 189.213C256.331 201.904 266.556 208.245 273.776 205.556C285.5 205.556 282.065 164.954 283 158" fill="white"/>
<path d="M75.5 162.5C74.4357 172.306 78.8102 204.323 84.6563 206.374C91.9838 208.939 102.662 201.732 104.072 188.396C103.072 204.216 113.945 216.065 124.206 215.362C131.915 214.839 139.285 207.232 141.464 196.568C142.744 208.416 152.114 216.637 161.598 215.362C169.897 214.243 176.764 206.055 177.418 195.751C179.144 207.289 188.348 215.419 198.272 214.545C207.627 213.72 215.35 205.091 216.249 194.116C217.306 205.916 226.474 214.553 236.383 213.728C246.86 212.854 255.036 201.667 253.641 189.213C256.331 201.904 266.556 208.245 273.776 205.556C285.5 205.556 282.065 164.954 283 158" stroke="white" stroke-width="6" stroke-linecap="round" stroke-linejoin="round"/>
<path d="M179.216 183.493C235.808 183.493 281.686 171.969 281.686 157.753C281.686 143.537 235.808 132.013 179.216 132.013C122.624 132.013 76.7466 143.537 76.7466 157.753C76.7466 171.969 122.624 183.493 179.216 183.493Z" fill="white" stroke="white" stroke-width="6" stroke-miterlimit="10"/>
<path d="M171.68 158.162C170.091 158.162 168.789 156.691 168.789 154.877V95.6493C172.205 96.5972 175.7 97.0793 179.216 97.0793C179.554 97.0793 179.892 97.0793 180.23 97.063C183.401 96.9812 186.558 96.4991 189.636 95.6411V155.203C189.636 156.83 188.471 158.162 187.032 158.162H171.666H171.68Z" fill="#ECAE54"/>
<path d="M170.946 98.6809C173.672 99.2447 176.44 99.5307 179.223 99.5307C179.575 99.5307 179.928 99.5307 180.287 99.5144C182.703 99.449 185.112 99.1712 187.485 98.6727V155.203C187.485 155.481 187.284 155.71 187.04 155.71C187.04 155.71 182.263 158.083 179 158C176.003 157.924 171.673 155.71 171.673 155.71C171.27 155.71 170.939 155.334 170.939 154.877V98.6809M191.793 92.4215C188.96 93.4429 184.983 94.4971 180.18 94.6196C179.856 94.6278 179.532 94.636 179.216 94.636C173.909 94.636 169.566 93.4756 166.625 92.4215V154.885C166.625 158.055 168.883 160.621 171.673 160.621H187.04C189.664 160.621 191.8 158.202 191.8 155.212V92.4133L191.793 92.4215Z" fill="white"/>
<path d="M178.454 63.2722C181.549 65.7877 183.983 68.7142 185.434 71.7394C187.036 75.0604 187.35 78.2171 186.333 80.6093C185.366 82.8699 182.482 86.0595 179.081 86.0595C175.579 86.0595 172.746 82.6644 171.788 80.5271C170.702 78.102 170.88 74.9371 172.288 71.6078C173.535 68.6731 175.672 65.7959 178.454 63.2722ZM178.284 57C167.98 64.3902 163.79 75.0604 167.123 82.5C168.794 86.2239 173.187 90.9918 179.081 91C184.891 91 189.386 86.3636 191.031 82.5C194.211 75.044 189.462 64.2012 178.276 57H178.284Z" fill="white"/>
<path d="M97.0608 61.3804C97.7146 58.1814 102.285 58.1814 102.939 61.3804L105.713 74.949C105.953 76.1265 106.873 77.0468 108.051 77.2875L121.62 80.0608C124.819 80.7146 124.819 85.2854 121.62 85.9392L108.051 88.7125C106.873 88.9532 105.953 89.8735 105.713 91.051L102.939 104.62C102.285 107.819 97.7146 107.819 97.0608 104.62L94.2875 91.051C94.0468 89.8735 93.1265 88.9532 91.949 88.7125L78.3804 85.9392C75.1814 85.2854 75.1814 80.7146 78.3804 80.0608L91.949 77.2875C93.1265 77.0468 94.0468 76.1265 94.2875 74.949L97.0608 61.3804Z" fill="white"/>
</g>
<path d="M55.0608 103.38C55.7146 100.181 60.2854 100.181 60.9392 103.38L63.7125 116.949C63.9532 118.127 64.8735 119.047 66.051 119.287L79.6196 122.061C82.8186 122.715 82.8186 127.285 79.6196 127.939L66.051 130.713C64.8735 130.953 63.9532 131.873 63.7125 133.051L60.9392 146.62C60.2854 149.819 55.7146 149.819 55.0608 146.62L52.2875 133.051C52.0468 131.873 51.1265 130.953 49.949 130.713L36.3804 127.939C33.1814 127.285 33.1814 122.715 36.3804 122.061L49.949 119.287C51.1265 119.047 52.0468 118.127 52.2875 116.949L55.0608 103.38Z" fill="white"/>
<path d="M298.061 277.38C298.715 274.181 303.285 274.181 303.939 277.38L306.713 290.949C306.953 292.127 307.873 293.047 309.051 293.287L322.62 296.061C325.819 296.715 325.819 301.285 322.62 301.939L309.051 304.713C307.873 304.953 306.953 305.873 306.713 307.051L303.939 320.62C303.285 323.819 298.715 323.819 298.061 320.62L295.287 307.051C295.047 305.873 294.127 304.953 292.949 304.713L279.38 301.939C276.181 301.285 276.181 296.715 279.38 296.061L292.949 293.287C294.127 293.047 295.047 292.127 295.287 290.949L298.061 277.38Z" fill="white"/>
<defs>
<clipPath id="clip0_629_2075">
<rect width="213" height="238" fill="white" transform="translate(73 55)"/>
</clipPath>
</defs>
</svg>
