<svg width="359" height="359" viewBox="0 0 359 359" fill="none" xmlns="http://www.w3.org/2000/svg">
<rect width="359" height="359" rx="40" fill="#EA8E8C"/>
<path d="M58.28 167.73L64.48 276.35C64.86 283.07 70.7 288.15 77.41 287.6L283.02 270.79C289.2 270.28 293.93 265.07 293.82 258.87L291.72 130.85L58.28 167.73Z" stroke="white" stroke-width="6" stroke-linecap="square" stroke-linejoin="bevel"/>
<path d="M59 179.6C58.25 188.27 64.44 196.02 72.78 197.22C81.49 198.47 89.9 192.19 91.14 183.18C91.79 183.89 101.93 194.68 116.2 191.86C127.54 189.61 133.17 180.42 134.08 178.88C134.71 179.57 146.27 191.96 161.7 188.53C170.98 186.47 176.35 179.87 177.98 177.67C185.17 186.67 196.34 190 205.2 186.29C213.05 183 216.27 175.37 217.01 173.47C217.8 174.12 230.63 184.35 244.52 178.96C250.95 176.46 254.72 171.74 256.41 169.26C264.45 179.41 276.94 181.97 284.99 176.8C292.02 172.29 293.34 163.38 293.56 161.74C292.88 150.99 292.2 140.24 291.53 129.49C265.18 118.36 238.84 107.24 212.49 96.1099C161 118.94 109.5 141.77 58 164.6C58.33 169.6 58.67 174.6 59 179.6Z" fill="#E0ADAC" stroke="white" stroke-width="6" stroke-miterlimit="10" stroke-linejoin="round"/>
<path d="M220.59 132.28C217.11 132.28 213.61 132.04 210.17 131.58C201.1 130.36 192.36 127.56 184.19 123.28C179.45 121.22 176.57 116.3 177.18 111.27C177.73 106.72 180.99 102.93 185.49 101.6L186.37 101.5L188.18 101.62C187.23 99.72 186.89 97.66 187.29 95.71C188.22 91.24 192.96 87.87 198.33 87.87C198.97 87.87 199.62 87.92 200.25 88.01C200.3 87.55 200.33 87.08 200.33 86.62C200.3 83.21 198.65 80.62 197.67 79.37L199.05 75.39C201.46 74.81 203.97 74.51 206.52 74.51C211.08 74.51 215.46 75.45 219.54 77.31C227.83 81.08 232.31 87.5 234.38 91.35C234.79 91.31 235.19 91.29 235.6 91.29C240.95 91.29 245.67 95.05 246.1 99.66C246.32 101.94 245.46 104.23 243.89 106.09L247.41 106.69L247.9 106.83C252.36 108.57 255.2 112.92 254.98 117.66C254.77 122.12 251.76 126.11 247.49 127.58C238.81 130.69 229.75 132.27 220.61 132.27L220.59 132.28Z" fill="#EA8E8C"/>
<path d="M206.5 77.03C209.88 77.03 214.08 77.6 218.49 79.6C228.07 83.96 232.03 92.09 232.97 94.17C233.87 93.92 234.74 93.8 235.59 93.8C239.9 93.8 243.31 96.82 243.61 99.91C243.9 102.92 241.27 106.45 237.08 107.48C240.38 108.04 243.69 108.6 246.99 109.16C250.44 110.51 252.65 113.9 252.48 117.54C252.31 121.01 250.01 124.07 246.68 125.22C241.32 127.14 232.14 129.77 220.61 129.77C217.42 129.77 214.04 129.57 210.52 129.09C199.49 127.6 190.88 123.95 185.28 121.01C181.48 119.4 179.2 115.51 179.68 111.56C180.11 108.02 182.69 105.03 186.21 103.99C188.87 104.17 191.53 104.35 194.19 104.54C190.95 102.5 189.15 99.08 189.75 96.22C190.4 93.08 193.97 90.37 198.34 90.37C199.56 90.37 200.84 90.58 202.13 91.05C202.5 89.93 202.85 88.4 202.84 86.59C202.8 82.18 200.59 79.02 199.64 77.82C200.82 77.54 203.29 77.01 206.53 77.01M206.53 72.01C203.78 72.01 201.07 72.33 198.47 72.96L195.72 80.91C196.37 81.74 197.4 83.32 197.74 85.37C191.47 85.62 185.99 89.76 184.87 95.19C184.6 96.51 184.58 97.86 184.81 99.19C179.36 100.8 175.4 105.42 174.73 110.95C173.99 117.04 177.44 123 183.14 125.51C191.55 129.91 200.55 132.77 209.87 134.03C213.42 134.51 217.04 134.75 220.63 134.75C230.06 134.75 239.39 133.12 248.36 129.91C253.57 128.1 257.24 123.22 257.5 117.76C257.78 111.95 254.3 106.61 248.83 104.48L247.9 104.22C248.51 102.68 248.77 101.05 248.62 99.41C248.07 93.61 242.35 88.87 235.83 88.78C233.33 84.59 228.61 78.66 220.6 75.02C216.19 73.01 211.46 72 206.54 72L206.53 72.01Z" fill="white"/>
<path d="M65.5608 64.3804C66.2146 61.1814 70.7854 61.1814 71.4392 64.3804L75.3156 83.3459C75.5563 84.5234 76.4766 85.4437 77.6541 85.6844L96.6196 89.5608C99.8186 90.2146 99.8186 94.7854 96.6196 95.4392L77.6541 99.3156C76.4766 99.5563 75.5563 100.477 75.3156 101.654L71.4392 120.62C70.7854 123.819 66.2146 123.819 65.5608 120.62L61.6844 101.654C61.4437 100.477 60.5234 99.5563 59.3459 99.3156L40.3804 95.4392C37.1814 94.7854 37.1814 90.2146 40.3804 89.5608L59.3459 85.6844C60.5234 85.4437 61.4437 84.5234 61.6844 83.3459L65.5608 64.3804Z" fill="white"/>
<path d="M302.561 186.38C303.215 183.181 307.785 183.181 308.439 186.38L312.316 205.346C312.556 206.523 313.477 207.444 314.654 207.684L333.62 211.561C336.819 212.215 336.819 216.785 333.62 217.439L314.654 221.316C313.477 221.556 312.556 222.477 312.316 223.654L308.439 242.62C307.785 245.819 303.215 245.819 302.561 242.62L298.684 223.654C298.444 222.477 297.523 221.556 296.346 221.316L277.38 217.439C274.181 216.785 274.181 212.215 277.38 211.561L296.346 207.684C297.523 207.444 298.444 206.523 298.684 205.346L302.561 186.38Z" fill="white"/>
<path d="M264.061 229.38C264.715 226.181 269.285 226.181 269.939 229.38L271.185 235.476C271.426 236.654 272.346 237.574 273.524 237.815L279.62 239.061C282.819 239.715 282.819 244.285 279.62 244.939L273.524 246.185C272.346 246.426 271.426 247.346 271.185 248.524L269.939 254.62C269.285 257.819 264.715 257.819 264.061 254.62L262.815 248.524C262.574 247.346 261.654 246.426 260.476 246.185L254.38 244.939C251.181 244.285 251.181 239.715 254.38 239.061L260.476 237.815C261.654 237.574 262.574 236.654 262.815 235.476L264.061 229.38Z" fill="white"/>
</svg>
