<svg width="359" height="359" viewBox="0 0 359 359" fill="none" xmlns="http://www.w3.org/2000/svg">
<path d="M61.0608 223.38C61.7146 220.181 66.2854 220.181 66.9392 223.38L69.7125 236.949C69.9532 238.127 70.8735 239.047 72.051 239.287L85.6196 242.061C88.8186 242.715 88.8186 247.285 85.6196 247.939L72.051 250.713C70.8735 250.953 69.9532 251.873 69.7125 253.051L66.9392 266.62C66.2854 269.819 61.7146 269.819 61.0608 266.62L58.2875 253.051C58.0468 251.873 57.1265 250.953 55.949 250.713L42.3804 247.939C39.1814 247.285 39.1814 242.715 42.3804 242.061L55.949 239.287C57.1265 239.047 58.0468 238.127 58.2875 236.949L61.0608 223.38Z" fill="white"/>
<path d="M282.061 75.3804C282.715 72.1814 287.285 72.1814 287.939 75.3804L290.713 88.949C290.953 90.1265 291.873 91.0468 293.051 91.2875L306.62 94.0608C309.819 94.7146 309.819 99.2854 306.62 99.9392L293.051 102.713C291.873 102.953 290.953 103.873 290.713 105.051L287.939 118.62C287.285 121.819 282.715 121.819 282.061 118.62L279.287 105.051C279.047 103.873 278.127 102.953 276.949 102.713L263.38 99.9392C260.181 99.2854 260.181 94.7146 263.38 94.0608L276.949 91.2875C278.127 91.0468 279.047 90.1265 279.287 88.949L282.061 75.3804Z" fill="white"/>
<path d="M194.829 78.35L219.839 129.02C221.759 132.91 225.479 135.61 229.769 136.24L285.689 144.37C296.509 145.94 300.829 159.24 292.999 166.87L252.539 206.31C249.429 209.34 248.009 213.71 248.749 217.99L258.299 273.68C260.149 284.46 248.839 292.67 239.159 287.59L189.139 261.29C185.299 259.27 180.709 259.27 176.859 261.29L126.839 287.59C117.159 292.68 105.849 284.46 107.699 273.68L117.249 217.99C117.979 213.71 116.569 209.34 113.459 206.31L72.9986 166.87C65.1686 159.24 69.4886 145.94 80.3086 144.37L136.229 136.24C140.529 135.62 144.239 132.92 146.159 129.02L171.169 78.35C176.009 68.55 189.989 68.55 194.829 78.35Z" fill="#ABA0A2" stroke="white" stroke-width="6" stroke-miterlimit="10"/>
<path d="M188.839 136.443L200.539 160.143C201.439 161.963 203.179 163.223 205.189 163.523L231.349 167.323C236.409 168.063 238.429 174.273 234.769 177.843L215.839 196.293C214.389 197.713 213.719 199.752 214.069 201.752L218.539 227.802C219.399 232.842 214.109 236.682 209.589 234.302L186.189 222.002C184.389 221.062 182.249 221.062 180.449 222.002L157.049 234.302C152.519 236.682 147.229 232.842 148.099 227.802L152.569 201.752C152.909 199.752 152.249 197.713 150.799 196.293L131.869 177.843C128.209 174.273 130.229 168.053 135.289 167.323L161.449 163.523C163.459 163.233 165.199 161.973 166.099 160.143L177.799 136.443C180.059 131.852 186.599 131.852 188.869 136.443H188.839Z" fill="#444444"/>
</svg>
