<svg width="359" height="359" viewBox="0 0 359 359" fill="none" xmlns="http://www.w3.org/2000/svg">
<path d="M60.5608 69.3804C61.2146 66.1814 65.7854 66.1814 66.4392 69.3804L70.3156 88.3459C70.5563 89.5234 71.4766 90.4437 72.6541 90.6844L91.6196 94.5608C94.8186 95.2146 94.8186 99.7854 91.6196 100.439L72.6541 104.316C71.4766 104.556 70.5563 105.477 70.3156 106.654L66.4392 125.62C65.7854 128.819 61.2146 128.819 60.5608 125.62L56.6844 106.654C56.4437 105.477 55.5234 104.556 54.3459 104.316L35.3804 100.439C32.1814 99.7854 32.1814 95.2146 35.3804 94.5608L54.3459 90.6844C55.5234 90.4437 56.4437 89.5234 56.6844 88.3459L60.5608 69.3804Z" fill="white"/>
<path d="M281.561 256.38C282.215 253.181 286.785 253.181 287.439 256.38L291.316 275.346C291.556 276.523 292.477 277.444 293.654 277.684L312.62 281.561C315.819 282.215 315.819 286.785 312.62 287.439L293.654 291.316C292.477 291.556 291.556 292.477 291.316 293.654L287.439 312.62C286.785 315.819 282.215 315.819 281.561 312.62L277.684 293.654C277.444 292.477 276.523 291.556 275.346 291.316L256.38 287.439C253.181 286.785 253.181 282.215 256.38 281.561L275.346 277.684C276.523 277.444 277.444 276.523 277.684 275.346L281.561 256.38Z" fill="white"/>
<path d="M278.685 199.375C288.935 207.895 285.925 216.005 271.035 221.095C275.035 230.765 267.155 237.405 250.165 238.835C247.675 248.575 236.075 253.085 219.215 250.795C210.325 259.325 196.175 261.055 181.315 255.185C166.455 261.065 152.295 259.335 143.415 250.795C126.545 253.085 114.955 248.565 112.465 238.835C95.4746 237.405 87.5946 230.765 91.5946 221.095C76.7046 216.005 73.6946 207.885 83.9446 199.375C73.6946 190.855 76.7046 182.745 91.5946 177.655C87.5946 167.985 95.4746 161.345 112.465 159.915C114.955 150.175 126.555 145.665 143.415 147.955C152.305 139.425 166.455 137.695 181.315 143.565C196.175 137.685 210.335 139.415 219.215 147.955C236.085 145.665 247.675 150.185 250.165 159.915C267.155 161.345 275.035 167.985 271.035 177.655C285.925 182.745 288.935 190.865 278.685 199.375Z" fill="white"/>
<path d="M278.969 199.5C289.23 208.054 286.217 216.196 271.311 221.306C275.316 231.014 267.427 237.681 250.42 239.116C247.928 248.895 236.316 253.423 219.439 251.124C210.54 259.688 196.375 261.425 181.5 255.531C166.625 261.435 152.45 259.698 143.561 251.124C126.674 253.423 115.072 248.885 112.58 239.116C95.5725 237.681 87.6845 231.014 91.6886 221.306C76.7834 216.196 73.7703 208.044 84.0308 199.5C73.7703 190.946 76.7834 182.804 91.6886 177.694C87.6845 167.986 95.5725 161.319 112.58 159.884C115.072 150.105 126.684 145.577 143.561 147.876C152.46 139.312 166.625 137.575 181.5 143.469C196.375 137.565 210.55 139.302 219.439 147.876C236.326 145.577 247.928 150.115 250.42 159.884C267.427 161.319 275.316 167.986 271.311 177.694C286.217 182.804 289.23 190.956 278.969 199.5Z" fill="#799B91" stroke="white" stroke-width="7" stroke-linejoin="round"/>
<path d="M93.2347 162.663C93.6009 162.096 93.7679 161.417 93.6998 160.736C93.6763 160.501 93.6647 160.296 93.6647 160.135C93.6647 157.689 95.2861 154.786 99.5896 151.659C103.827 148.58 110.151 145.681 118.236 143.196C134.369 138.237 156.838 135.125 181.785 135.125C206.731 135.125 229.2 138.237 245.333 143.196C253.418 145.681 259.742 148.58 263.98 151.659C268.283 154.786 269.905 157.689 269.905 160.135C269.905 160.202 269.907 160.268 269.911 160.333C269.892 160.861 269.797 161.402 269.623 161.955C269.531 162.246 269.485 162.55 269.485 162.855V205.51C267.404 207.975 264.36 211.327 260.325 214.871L260.324 214.872C236.014 236.242 206.063 238.362 192.14 239.13L192.139 239.13C168.246 240.451 143.029 236.115 123.834 229.322C114.229 225.923 106.277 221.959 100.788 217.89C95.126 213.693 92.8152 209.944 92.8047 207.111C92.8052 206.415 92.9359 205.798 93.0924 205.308C93.1867 205.013 93.2347 204.705 93.2347 204.395V162.663Z" fill="white" stroke="#799B91" stroke-width="6" stroke-linejoin="round"/>
<path d="M275.765 162.265C286.015 170.785 283.005 178.895 268.115 183.985C272.115 193.655 264.235 200.295 247.245 201.725C244.755 211.465 233.155 215.975 216.295 213.685C207.405 222.215 193.255 223.945 178.395 218.075C163.535 223.955 149.375 222.225 140.495 213.685C123.625 215.975 112.035 211.455 109.545 201.725C92.5546 200.295 84.6746 193.655 88.6746 183.985C73.7846 178.895 70.7746 170.775 81.0246 162.265C70.7746 153.745 73.7846 145.635 88.6746 140.545C84.6746 130.875 92.5546 124.235 109.545 122.805C112.035 113.065 123.635 108.555 140.495 110.845C149.385 102.315 163.535 100.585 178.395 106.455C193.255 100.575 207.415 102.305 216.295 110.845C233.165 108.555 244.755 113.075 247.245 122.805C264.235 124.235 272.115 130.875 268.115 140.545C283.005 145.635 286.015 153.755 275.765 162.265Z" fill="#799B91"/>
<path d="M275.765 162.265C286.015 170.785 283.005 178.895 268.115 183.985C272.115 193.655 264.235 200.295 247.245 201.725C244.755 211.465 233.155 215.975 216.295 213.685C207.405 222.215 193.255 223.945 178.395 218.075C163.535 223.955 149.375 222.225 140.495 213.685C123.625 215.975 112.035 211.455 109.545 201.725C92.5546 200.295 84.6746 193.655 88.6746 183.985C73.7846 178.895 70.7746 170.775 81.0246 162.265C70.7746 153.745 73.7846 145.635 88.6746 140.545C84.6746 130.875 92.5546 124.235 109.545 122.805C112.035 113.065 123.635 108.555 140.495 110.845C149.385 102.315 163.535 100.585 178.395 106.455C193.255 100.575 207.415 102.305 216.295 110.845C233.165 108.555 244.755 113.075 247.245 122.805C264.235 124.235 272.115 130.875 268.115 140.545C283.005 145.635 286.015 153.755 275.765 162.265Z" stroke="white" stroke-width="7" stroke-linejoin="round"/>
</svg>
