<svg width="359" height="359" viewBox="0 0 359 359" fill="none" xmlns="http://www.w3.org/2000/svg">
<path d="M303.66 231.3C303.66 192.56 248.44 161.15 180.33 161.15C112.22 161.15 57 192.56 57 231.3C57 258.18 112.22 279.97 180.33 279.97C248.44 279.97 303.66 258.18 303.66 231.3Z" fill="white" stroke="#EA8E8C" stroke-width="6" stroke-miterlimit="10"/>
<path d="M198.59 176.92C198.59 165.79 190.81 156.34 180.01 153C169.21 156.34 161.43 165.79 161.43 176.92V177.31C161.43 183.32 169.75 188.19 180.01 188.19C190.27 188.19 198.59 183.32 198.59 177.31V176.92Z" fill="white" stroke="#EA8E8C" stroke-width="6" stroke-miterlimit="10"/>
<path d="M233.87 222.28C236.23 211.4 230.62 200.52 220.78 194.96C209.52 195.94 199.91 203.52 197.55 214.4L197.47 214.78C196.2 220.65 203.3 227.17 213.32 229.35C223.35 231.52 232.51 228.53 233.78 222.66L233.86 222.28H233.87Z" fill="white" stroke="#EA8E8C" stroke-width="6" stroke-miterlimit="10"/>
<path d="M124.67 222.28C122.31 211.4 127.92 200.52 137.76 194.96C149.02 195.94 158.63 203.52 160.99 214.4L161.07 214.78C162.34 220.65 155.24 227.17 145.22 229.35C135.19 231.52 126.03 228.53 124.76 222.66L124.68 222.28H124.67Z" fill="white" stroke="#EA8E8C" stroke-width="6" stroke-miterlimit="10"/>
<path d="M278.46 198.95C282.05 188.41 277.72 176.96 268.57 170.32C257.27 170.01 246.86 176.44 243.27 186.98L243.14 187.35C241.21 193.04 247.51 200.33 257.23 203.63C266.95 206.94 276.39 205 278.32 199.32L278.45 198.95H278.46Z" fill="white" stroke="#EA8E8C" stroke-width="6" stroke-miterlimit="10"/>
<path d="M81.56 198.95C77.97 188.41 82.3 176.96 91.45 170.32C102.75 170.01 113.16 176.44 116.75 186.98L116.88 187.35C118.81 193.04 112.51 200.33 102.79 203.63C93.07 206.93 83.63 205 81.7 199.32L81.57 198.95H81.56Z" fill="white" stroke="#EA8E8C" stroke-width="6" stroke-miterlimit="10"/>
<path d="M66.0608 113.38C66.7146 110.181 71.2854 110.181 71.9392 113.38L74.7125 126.949C74.9532 128.127 75.8735 129.047 77.051 129.287L90.6196 132.061C93.8186 132.715 93.8186 137.285 90.6196 137.939L77.051 140.713C75.8735 140.953 74.9532 141.873 74.7125 143.051L71.9392 156.62C71.2854 159.819 66.7146 159.819 66.0608 156.62L63.2875 143.051C63.0468 141.873 62.1265 140.953 60.949 140.713L47.3804 137.939C44.1814 137.285 44.1814 132.715 47.3804 132.061L60.949 129.287C62.1265 129.047 63.0468 128.127 63.2875 126.949L66.0608 113.38Z" fill="white"/>
<path d="M294.061 107.38C294.715 104.181 299.285 104.181 299.939 107.38L302.713 120.949C302.953 122.127 303.873 123.047 305.051 123.287L318.62 126.061C321.819 126.715 321.819 131.285 318.62 131.939L305.051 134.713C303.873 134.953 302.953 135.873 302.713 137.051L299.939 150.62C299.285 153.819 294.715 153.819 294.061 150.62L291.287 137.051C291.047 135.873 290.127 134.953 288.949 134.713L275.38 131.939C272.181 131.285 272.181 126.715 275.38 126.061L288.949 123.287C290.127 123.047 291.047 122.127 291.287 120.949L294.061 107.38Z" fill="white"/>
<path d="M121.061 68.3804C121.715 65.1814 126.285 65.1814 126.939 68.3804L129.713 81.949C129.953 83.1265 130.873 84.0468 132.051 84.2875L145.62 87.0608C148.819 87.7146 148.819 92.2854 145.62 92.9392L132.051 95.7125C130.873 95.9532 129.953 96.8735 129.713 98.051L126.939 111.62C126.285 114.819 121.715 114.819 121.061 111.62L118.287 98.051C118.047 96.8735 117.127 95.9532 115.949 95.7125L102.38 92.9392C99.1814 92.2854 99.1814 87.7146 102.38 87.0608L115.949 84.2875C117.127 84.0468 118.047 83.1265 118.287 81.949L121.061 68.3804Z" fill="white"/>
</svg>
