<svg width="1024" height="1024" viewBox="0 0 1024 1024" fill="none" xmlns="http://www.w3.org/2000/svg">
<rect width="1024" height="1024" fill="#EA8E8C"/>
<g filter="url(#filter0_d_782_2131)">
<path d="M394.796 464.508C394.328 427.077 393.845 389.633 393.376 352.202C364.466 361.301 334.021 353.226 316.698 332.3C294.162 305.077 303.265 267.533 316.698 247.005C345.992 202.239 422.642 199.552 448.756 228.524C458.426 239.257 465.27 258.889 457.276 271.172C449.508 283.099 428.166 287.492 417.516 279.701C397.892 265.343 403.742 201.671 438.816 167.396C478.646 128.473 549.958 131.842 592.174 164.553C615.745 182.82 639.374 217.294 633.353 251.27C632.544 255.847 626.566 286.355 606.373 289.653C592.273 291.956 575.901 280.227 572.294 265.486C567.991 247.872 583.569 232.732 587.914 228.524C611.627 205.495 660.375 197.79 692.992 224.26C712.46 240.053 727.64 269.196 719.972 298.182C710.813 332.798 671.579 357.732 627.673 350.781C628.625 386.79 629.562 422.813 630.513 458.821C551.946 460.712 473.364 462.617 394.796 464.508Z" stroke="white" stroke-width="21.5637" stroke-miterlimit="10"/>
<path d="M393.519 353.823C394.88 371.615 410.732 385.334 429.009 384.938C447.803 384.542 463.241 369.352 463.019 350.995C463.138 337.46 470.411 322.764 493.241 322.764C513.969 322.764 522.035 338.775 521.31 356.652C520.188 368.597 525.128 392.486 553.871 392.486C582.615 392.486 589.052 360.068 588.678 343.859C588.803 354.705 594.367 376.039 615.625 374.609" stroke="white" stroke-width="21.5637" stroke-linecap="square" stroke-linejoin="bevel"/>
<path d="M543.183 190.141C565.534 190.141 583.653 172.001 583.653 149.626C583.653 127.25 565.534 109.11 543.183 109.11C520.833 109.11 502.714 127.25 502.714 149.626C502.714 172.001 520.833 190.141 543.183 190.141Z" fill="#EA8E8C" stroke="white" stroke-width="26.3616" stroke-linecap="square" stroke-linejoin="bevel"/>
<path d="M398.303 532.843C394.554 603.524 452.461 662.193 519.811 660.501C584.988 658.867 638.99 601.207 635.298 532.843" stroke="white" stroke-width="21.5637" stroke-linejoin="round"/>
<path d="M631.677 478.954C655.93 476.011 679.033 488.365 688.916 509.12C698.501 529.25 692.963 551.696 681.39 566.424C667.517 584.066 643.931 591.927 621.212 586.397" stroke="white" stroke-width="21.5637" stroke-miterlimit="10"/>
<path d="M445.832 557.108C453.235 557.108 459.236 551.1 459.236 543.688C459.236 536.277 453.235 530.269 445.832 530.269C438.429 530.269 432.427 536.277 432.427 543.688C432.427 551.1 438.429 557.108 445.832 557.108Z" fill="white"/>
<path d="M586.806 557.108C594.209 557.108 600.21 551.1 600.21 543.688C600.21 536.277 594.209 530.269 586.806 530.269C579.402 530.269 573.401 536.277 573.401 543.688C573.401 551.1 579.402 557.108 586.806 557.108Z" fill="white"/>
<path d="M477.595 560.506C478.021 582.057 494.834 599.613 515.267 601.007C537.178 602.513 557.214 585.042 558.52 561.899" stroke="white" stroke-width="21.5637" stroke-miterlimit="10"/>
<path d="M518.307 527.284C513.011 538.543 507.714 549.816 502.418 561.075H533.671C528.545 549.816 523.433 538.543 518.307 527.284Z" fill="white"/>
<path d="M400.022 483.844C375.768 480.902 352.665 493.255 342.782 514.01C333.197 534.14 338.735 556.587 350.308 571.314C364.181 588.956 387.767 596.818 410.487 591.288" stroke="white" stroke-width="21.5637" stroke-miterlimit="10"/>
<path d="M549.496 130.815C550.377 124.275 554.225 101.971 573.636 83.9022C589.795 68.8618 607.772 65.0946 614.816 64" stroke="white" stroke-width="21.5637" stroke-linecap="square" stroke-linejoin="bevel"/>
<path d="M431.716 387.031V424.704V387.031Z" fill="white"/>
<path d="M431.716 387.031V424.704" stroke="white" stroke-width="21.5637" stroke-linecap="square" stroke-linejoin="bevel"/>
<path d="M522.182 378.83L522.774 420.569L522.182 378.83Z" fill="white"/>
<path d="M522.182 378.83L522.774 420.569" stroke="white" stroke-width="21.5637" stroke-linecap="square" stroke-linejoin="bevel"/>
<path d="M589.03 382.423L589.03 424.832L589.03 382.423Z" fill="white"/>
<path d="M589.03 382.423L589.03 424.832" stroke="white" stroke-width="21.5637" stroke-linecap="square" stroke-linejoin="bevel"/>
<path d="M637.698 480.629C638.152 490.808 630.3 499.422 620.133 499.877H619.991C615.021 500.105 610.406 498.484 606.799 495.612C605.351 504.341 597.768 510.994 588.637 510.994H588.495C580.302 510.994 573.273 506.004 570.291 498.896C567.75 505.478 561.487 510.269 553.99 510.61C544.618 511.022 536.467 504.853 534.068 496.167C531.199 501.967 525.335 506.09 518.405 506.402C509.871 506.786 502.359 501.683 499.264 494.205C496.14 499.977 490.048 503.9 483.033 503.9C474.215 503.9 466.746 498.129 464.219 490.139C462.06 497.915 454.946 503.602 446.497 503.602C438.049 503.602 431.062 498.456 428.165 491.163V493.693C428.165 503.886 419.93 512.131 409.748 512.131H408.158C397.253 512.131 388.406 503.275 388.406 492.357V463.797H636.903V466.768H637.073L637.698 480.629Z" fill="white"/>
</g>
<path d="M463.215 715.329V739.841C480.006 739.841 493.671 754.732 493.671 772.993V773.483C482.947 758.592 465.482 748.849 445.811 748.849C413.272 748.849 386.799 775.322 386.799 807.861C386.799 840.401 413.272 866.874 445.811 866.874C465.544 866.874 482.947 857.13 493.671 842.239V865.587H518.183V772.932C518.183 741.127 493.548 715.267 463.215 715.267V715.329ZM445.75 842.362C426.692 842.362 411.249 826.858 411.249 807.861C411.249 788.865 426.753 773.361 445.75 773.361C464.747 773.361 480.251 788.865 480.251 807.861C480.251 826.858 464.747 842.362 445.75 842.362Z" fill="white"/>
<path d="M321.168 748.787C305.358 748.787 291.018 755.099 280.417 765.21C276.801 737.083 253.821 715.329 226 715.329V739.841C242.791 739.841 256.456 754.732 256.456 772.993V961H280.968V850.941C291.508 860.807 305.664 866.874 321.168 866.874C353.707 866.874 380.18 840.401 380.18 807.861C380.18 775.322 353.707 748.849 321.168 748.849V748.787ZM321.168 842.362C302.11 842.362 286.667 826.858 286.667 807.861C286.667 788.865 302.171 773.361 321.168 773.361C340.165 773.361 355.668 788.865 355.668 807.861C355.668 826.858 340.165 842.362 321.168 842.362Z" fill="white"/>
<path d="M737.627 869.325C704.535 869.325 677.572 842.423 677.572 809.271C677.572 776.118 704.474 749.216 737.627 749.216C770.779 749.216 797.681 776.118 797.681 809.271V821.527H704.29C709.315 835.069 722.368 844.813 737.627 844.813V869.325ZM704.29 797.015H770.963C765.938 783.472 752.885 773.728 737.627 773.728C722.368 773.728 709.315 783.41 704.29 797.015Z" fill="white"/>
<path d="M797.742 715.206H677.449V739.718H797.742V715.206Z" fill="white"/>
<path d="M627.567 713.061C607.284 713.061 590.799 729.546 590.799 749.829C590.799 770.113 607.284 786.597 627.567 786.597C630.631 786.597 633.634 786.168 636.514 785.433C629.712 820.975 613.534 844.752 598.643 844.752C579.217 844.752 557.463 804.123 557.463 749.768H532.951C532.951 817.911 561.201 869.264 598.643 869.264C636.085 869.264 664.335 817.911 664.335 749.768C664.335 729.484 647.851 713 627.567 713V713.061ZM627.567 762.147C620.826 762.147 615.311 756.631 615.311 749.891C615.311 743.15 620.826 737.635 627.567 737.635C634.308 737.635 639.823 743.15 639.823 749.891C639.823 756.631 634.308 762.147 627.567 762.147Z" fill="white"/>
<defs>
<filter id="filter0_d_782_2131" x="292.219" y="51.6902" width="452.797" height="631.848" filterUnits="userSpaceOnUse" color-interpolation-filters="sRGB">
<feFlood flood-opacity="0" result="BackgroundImageFix"/>
<feColorMatrix in="SourceAlpha" type="matrix" values="0 0 0 0 0 0 0 0 0 0 0 0 0 0 0 0 0 0 127 0" result="hardAlpha"/>
<feOffset dx="9.34426" dy="9.34426"/>
<feGaussianBlur stdDeviation="1.43758"/>
<feComposite in2="hardAlpha" operator="out"/>
<feColorMatrix type="matrix" values="0 0 0 0 0.797591 0 0 0 0 0.427622 0 0 0 0 0.419579 0 0 0 1 0"/>
<feBlend mode="normal" in2="BackgroundImageFix" result="effect1_dropShadow_782_2131"/>
<feBlend mode="normal" in="SourceGraphic" in2="effect1_dropShadow_782_2131" result="shape"/>
</filter>
</defs>
</svg>
