<svg width="1024" height="1024" viewBox="0 0 1024 1024" fill="none" xmlns="http://www.w3.org/2000/svg">
<rect width="1024" height="1024" fill="#EA8E8C"/>
<path d="M447.649 409.099V441.715C469.991 441.715 488.175 461.53 488.175 485.83V486.482C473.905 466.667 450.666 453.702 424.491 453.702C381.192 453.702 345.966 488.928 345.966 532.227C345.966 575.526 381.192 610.752 424.491 610.752C450.747 610.752 473.905 597.787 488.175 577.972V609.039H520.792V485.748C520.792 443.428 488.012 409.017 447.649 409.017V409.099ZM424.409 578.135C399.05 578.135 378.501 557.505 378.501 532.227C378.501 506.949 399.131 486.319 424.409 486.319C449.687 486.319 470.317 506.949 470.317 532.227C470.317 557.505 449.687 578.135 424.409 578.135Z" fill="white"/>
<path d="M258.635 453.62C237.597 453.62 218.516 462.019 204.409 475.474C199.598 438.046 169.02 409.099 132 409.099V441.715C154.342 441.715 172.526 461.53 172.526 485.83V736H205.143V589.551C219.168 602.679 238.004 610.752 258.635 610.752C301.933 610.752 337.159 575.526 337.159 532.227C337.159 488.928 301.933 453.702 258.635 453.702V453.62ZM258.635 578.135C233.275 578.135 212.726 557.505 212.726 532.227C212.726 506.949 233.357 486.319 258.635 486.319C283.912 486.319 304.543 506.949 304.543 532.227C304.543 557.505 283.912 578.135 258.635 578.135Z" fill="white"/>
<path d="M812.793 614.013C768.761 614.013 732.882 578.216 732.882 534.102C732.882 489.988 768.679 454.191 812.793 454.191C856.907 454.191 892.704 489.988 892.704 534.102V550.41H768.435C775.121 568.431 792.489 581.396 812.793 581.396V614.013ZM768.435 517.794H857.152C850.466 499.773 833.097 486.808 812.793 486.808C792.489 486.808 775.121 499.691 768.435 517.794Z" fill="white"/>
<path d="M892.786 408.935H732.719V441.552H892.786V408.935Z" fill="white"/>
<path d="M666.344 406.082C639.353 406.082 617.418 428.016 617.418 455.007C617.418 481.997 639.353 503.932 666.344 503.932C670.421 503.932 674.416 503.361 678.249 502.382C669.197 549.677 647.67 581.315 627.856 581.315C602.007 581.315 573.06 527.253 573.06 454.925H540.443C540.443 545.6 578.034 613.932 627.856 613.932C677.678 613.932 715.269 545.6 715.269 454.925C715.269 427.935 693.334 406 666.344 406V406.082ZM666.344 471.397C657.374 471.397 650.035 464.058 650.035 455.088C650.035 446.119 657.374 438.78 666.344 438.78C675.313 438.78 682.652 446.119 682.652 455.088C682.652 464.058 675.313 471.397 666.344 471.397Z" fill="white"/>
</svg>
