<svg width="390" height="128" viewBox="0 0 390 128" fill="none" xmlns="http://www.w3.org/2000/svg">
<g clip-path="url(#clip0_523_4074)">
<path fill-rule="evenodd" clip-rule="evenodd" d="M21.1393 86.5912V127.317H11.14V56.2319C11.14 49.5916 6.24205 44.0573 0 44.0573V34.058C10.3968 34.058 19.1529 41.9821 20.8445 52.5143C24.8596 48.9182 30.1636 46.7318 35.978 46.7318C48.5104 46.7318 58.6693 56.8906 58.6693 69.423C58.6693 81.9554 48.5104 92.1142 35.978 92.1142C30.305 92.1142 25.1182 90.033 21.1393 86.5912ZM35.978 82.1149C42.9874 82.1149 48.6699 76.4324 48.6699 69.423C48.6699 62.4136 42.9874 56.7311 35.978 56.7311C28.9686 56.7311 23.2861 62.4136 23.2861 69.423C23.2861 76.4324 28.9686 82.1149 35.978 82.1149Z" fill="#EA8E8C"/>
<path fill-rule="evenodd" clip-rule="evenodd" d="M76.1974 74.026C78.1605 78.7593 82.8257 82.0889 88.2685 82.0889V92.0883C75.5318 92.0883 65.2065 81.763 65.2065 69.0263C65.2065 56.2896 75.5318 45.9644 88.2685 45.9644C101.005 45.9644 111.33 56.2896 111.33 69.0263V74.026H76.1974ZM76.1974 64.0266C84.9888 64.0266 100.34 64.0266 100.34 64.0266C98.3774 59.2934 93.7113 55.9637 88.2685 55.9637C82.8257 55.9637 78.1605 59.2934 76.1974 64.0266Z" fill="#EA8E8C"/>
<path fill-rule="evenodd" clip-rule="evenodd" d="M159.619 82.8451C155.474 88.2845 148.926 91.7952 141.559 91.7952C129.027 91.7952 118.868 81.6363 118.868 69.104C118.868 56.5716 129.027 46.4127 141.559 46.4127C147.236 46.4127 152.427 48.4974 156.406 51.9435V0.00170898H166.406V71.0869C166.406 77.7273 171.304 83.2615 177.546 83.2615V93.2609C170.029 93.2609 163.371 89.119 159.619 82.8451ZM141.559 81.7958C148.569 81.7958 154.251 76.1133 154.251 69.104C154.251 62.0946 148.569 56.4121 141.559 56.4121C134.55 56.4121 128.867 62.0946 128.867 69.104C128.867 76.1133 134.55 81.7958 141.559 81.7958Z" fill="#EA8E8C"/>
<path fill-rule="evenodd" clip-rule="evenodd" d="M186.238 49.0412H196.238V74.475C196.238 75.1423 196.32 78.5539 199.062 81.2636C202.218 84.3786 206.313 83.9993 206.87 83.9424L207.885 93.89C206.753 94.0055 198.45 94.7125 192.035 88.3782C186.416 82.8285 186.238 75.8424 186.238 74.475V49.0412ZM191.238 42.6948C187.838 42.6948 185.083 39.9394 185.083 36.5399C185.083 33.1404 187.838 30.3849 191.238 30.3849C194.638 30.3849 197.393 33.1404 197.393 36.5399C197.393 39.9394 194.638 42.6948 191.238 42.6948Z" fill="#EA8E8C"/>
<path fill-rule="evenodd" clip-rule="evenodd" d="M253.171 83.3993C249.025 88.8378 242.48 92.3468 235.113 92.3468C222.581 92.3468 212.422 82.1879 212.422 69.6556C212.422 57.1232 222.581 46.9643 235.113 46.9643C240.786 46.9643 245.973 49.0456 249.952 52.4873V0.544678H259.951V71.6299C259.951 78.2703 264.849 83.8045 271.091 83.8045V93.8038C263.58 93.8038 256.924 89.6672 253.171 83.3993ZM235.113 82.3474C242.123 82.3474 247.805 76.6649 247.805 69.6556C247.805 62.6462 242.123 56.9637 235.113 56.9637C228.104 56.9637 222.421 62.6462 222.421 69.6556C222.421 76.6649 228.104 82.3474 235.113 82.3474Z" fill="#EA8E8C"/>
<path fill-rule="evenodd" clip-rule="evenodd" d="M320.009 69.386C319.854 81.7847 309.755 91.7866 297.32 91.7866C284.787 91.7866 274.628 81.6278 274.628 69.0954C274.628 56.563 284.787 46.4042 297.32 46.4042C306.291 46.4042 314.046 51.6099 317.729 59.1659C318.816 58.4063 319.482 57.7907 319.636 57.6433L326.526 64.8906C326.148 65.2502 323.793 67.4064 320.009 69.386ZM308.332 62.7827C306.142 58.971 302.031 56.4035 297.32 56.4035C295.953 56.4035 294.637 56.6199 293.404 57.0191C295.385 59.1392 298.402 61.4549 302.645 62.4292C304.667 62.893 306.575 62.9628 308.332 62.7827ZM285.889 63.5733C285.081 65.2424 284.628 67.1159 284.628 69.0954C284.628 76.1048 290.31 81.7873 297.32 81.7873C303.081 81.7873 307.946 77.9481 309.495 72.6889C306.699 73.0079 303.648 72.9191 300.409 72.175C293.675 70.6301 288.939 66.9021 285.889 63.5733Z" fill="#EA8E8C"/>
<path fill-rule="evenodd" clip-rule="evenodd" d="M365.456 56.3323L355.457 56.1832C355.495 53.61 353.503 51.4598 350.811 50.6192C347.102 49.4665 342.72 50.7805 341.113 53.7766C340.571 54.788 340.363 56.0942 340.55 57.2731C340.64 57.8477 340.741 58.4738 341.273 58.7206C342.443 59.2647 343.847 59.3248 345.294 59.3588C347.487 59.4094 349.772 59.2769 351.911 59.3562C356.124 59.5114 359.834 60.5656 362.445 63.2512C366.636 67.5622 369.228 74.7776 365.774 81.5466C362.595 87.7741 354.578 92.3885 345.867 91.1948H345.863C336.955 89.9618 330.429 83.1501 330.062 75.3304L340.051 74.8631C340.209 78.2279 343.398 80.7566 347.231 81.2885C351.383 81.8561 355.351 79.9701 356.867 77.0002C358.16 74.4655 356.844 71.8365 355.275 70.2216C354.737 69.6688 353.948 69.5808 353.13 69.4726C352.021 69.3261 350.83 69.3192 349.614 69.3296C345.206 69.368 340.601 69.4351 337.061 67.7906C334.089 66.4103 332.116 63.9078 331.153 60.8786C329.954 57.1101 330.461 52.4826 332.3 49.0523C335.911 42.3173 345.451 38.4781 353.786 41.0722L353.788 41.0731C360.922 43.2992 365.558 49.5136 365.456 56.3323Z" fill="#EA8E8C"/>
</g>
<defs>
<clipPath id="clip0_523_4074">
<rect width="390" height="128" fill="white"/>
</clipPath>
</defs>
</svg>
