<svg width="390" height="128" viewBox="0 0 390 128" fill="none" xmlns="http://www.w3.org/2000/svg">
<g clip-path="url(#clip0_523_4093)">
<mask id="mask0_523_4093" style="mask-type:luminance" maskUnits="userSpaceOnUse" x="0" y="0" width="390" height="129">
<path d="M390 0H0V128H390V0Z" fill="white"/>
</mask>
<g mask="url(#mask0_523_4093)">
<path fill-rule="evenodd" clip-rule="evenodd" d="M249.387 89.739C248.823 90.0477 248.23 90.3363 247.604 90.6005L247.601 90.6022C246.495 91.067 239.864 93.7282 232.476 90.7984C221.882 86.6017 219.849 74.8713 219.768 74.2967L219.72 73.9514V48.499H229.721C229.721 48.499 229.721 73.1867 229.721 73.1893C229.97 74.4632 231.265 79.5633 236.161 81.5025C239.846 82.9639 243.156 81.6228 243.719 81.3865C247.345 79.851 248.867 76.6963 249.387 75.3073V48.499H259.387V92.5327H249.387V89.739ZM21.3337 86.7107V128.038H11.3343V56.1452C11.3343 49.3962 6.34862 43.7756 0 43.7756V33.776C10.5264 33.776 19.3844 41.8216 21.0518 52.4943C25.1144 48.8216 30.5015 46.5851 36.4112 46.5851C49.0622 46.5851 59.3155 56.8349 59.3155 69.4774C59.3155 82.1198 49.0622 92.3697 36.4112 92.3697C30.6367 92.3697 25.3622 90.2343 21.3337 86.7107ZM36.4112 82.3701C43.5373 82.3701 49.3161 76.5986 49.3161 69.4774C49.3161 62.3561 43.5373 56.5846 36.4112 56.5846C29.2852 56.5846 23.5063 62.3561 23.5063 69.4774C23.5063 76.5986 29.2852 82.3701 36.4112 82.3701ZM144.279 69.6988C144.132 82.2149 133.935 92.3174 121.376 92.3174C108.725 92.3174 98.4717 82.0675 98.4717 69.425C98.4717 56.7826 108.725 46.5327 121.376 46.5327C130.461 46.5327 138.309 51.8185 142.012 59.4813C143.154 58.6895 143.852 58.0434 144.012 57.8917L150.9 65.1411C150.517 65.5056 148.124 67.696 144.279 69.6988ZM132.621 63.0964C130.408 59.1778 126.2 56.5323 121.376 56.5323C119.955 56.5323 118.588 56.7616 117.309 57.1854C119.32 59.3557 122.403 61.7475 126.76 62.7467C128.846 63.2246 130.813 63.2908 132.621 63.0964ZM109.793 63.7355C108.947 65.4515 108.471 67.3829 108.471 69.425C108.471 76.5463 114.25 82.3178 121.376 82.3178C127.26 82.3178 132.225 78.3826 133.777 73.0027C130.933 73.3349 127.825 73.2503 124.525 72.4935C117.674 70.9222 112.87 67.1144 109.793 63.7355ZM76.9356 54.1214C84.1123 49.99 92.1938 50.4714 93.411 50.5673L92.6265 60.5363C91.7654 60.4692 85.4595 59.9556 80.5994 63.6667C78.6728 65.1411 77.3108 66.6827 76.9356 67.1248V92.5031H66.9354V66.7804C66.9354 66.5275 66.9214 66.2241 66.9354 65.8666V49.7773H76.9356V54.1214ZM197.205 83.7338C193.024 89.2603 186.392 92.8318 178.924 92.8318C166.273 92.8318 156.019 82.582 156.019 69.9395C156.019 57.297 166.273 47.0472 178.924 47.0472C184.698 47.0472 189.973 49.1826 194.001 52.7062V0.0435791H204.001V71.9363C204.001 78.6852 208.987 84.3058 215.335 84.3058V94.3054C207.724 94.3054 200.984 90.0991 197.205 83.7338ZM178.924 82.8322C186.05 82.8322 191.829 77.0608 191.829 69.9395C191.829 62.8182 186.05 57.0468 178.924 57.0468C171.798 57.0468 166.02 62.8182 166.02 69.9395C166.02 77.0608 171.798 82.8322 178.924 82.8322ZM268.708 28.3106H264.546V18.3102H268.708V0.204019H278.709V18.3102H290.723V28.3106H278.709V72.0967C278.709 78.8456 283.694 84.4654 290.042 84.4654V94.4659C278.346 94.4659 268.708 84.5317 268.708 72.0967V28.3106ZM340.115 69.6073C339.97 82.1251 329.772 92.2302 317.211 92.2302C304.56 92.2302 294.307 81.9803 294.307 69.3379C294.307 56.6954 304.56 46.4455 317.211 46.4455C326.294 46.4455 334.142 51.7296 337.846 59.3888C338.983 58.5997 339.679 57.9562 339.839 57.8045L346.727 65.0539C346.344 65.4175 343.954 67.6053 340.115 69.6073ZM328.457 63.0083C326.242 59.0898 322.036 56.4451 317.211 56.4451C315.788 56.4451 314.418 56.6753 313.138 57.1008C315.149 59.2703 318.231 61.6603 322.587 62.6595C324.676 63.1382 326.646 63.2045 328.457 63.0083ZM305.625 63.6553C304.781 65.3696 304.307 67.2983 304.307 69.3379C304.307 76.4591 310.085 82.2306 317.211 82.2306C323.096 82.2306 328.061 78.2954 329.613 72.9146C326.766 73.2477 323.656 73.164 320.352 72.4063C313.505 70.8359 308.703 67.0315 305.625 63.6553ZM385.907 57.5909L375.907 57.4418C375.946 54.8686 373.953 52.7184 371.261 51.8778C367.553 50.7251 363.171 52.0391 361.564 55.0352C361.022 56.0466 360.813 57.3528 361 58.5317C361.091 59.1063 361.191 59.7324 361.723 59.9792C362.893 60.5233 364.297 60.5834 365.744 60.6174C367.937 60.668 370.223 60.5355 372.361 60.6148C376.574 60.77 380.284 61.8242 382.895 64.5098C387.086 68.8208 389.679 76.0362 386.224 82.8052C383.046 89.0327 375.029 93.6471 366.317 92.4534H366.314C357.405 91.2204 350.879 84.4087 350.513 76.589L360.502 76.1217C360.66 79.4865 363.848 82.0152 367.681 82.5471C371.833 83.1147 375.802 81.2287 377.317 78.2588C378.61 75.724 377.295 73.0951 375.726 71.4802C375.187 70.9274 374.398 70.8394 373.58 70.7312C372.471 70.5847 371.28 70.5778 370.064 70.5882C365.657 70.6266 361.051 70.6937 357.511 69.0492C354.54 67.6689 352.567 65.1664 351.603 62.1372C350.405 58.3687 350.912 53.7412 352.75 50.3109C356.361 43.5759 365.901 39.7367 374.236 42.3308L374.238 42.3317C381.372 44.5578 386.008 50.7722 385.907 57.5909Z" fill="#EA8E8C"/>
</g>
</g>
<defs>
<clipPath id="clip0_523_4093">
<rect width="390" height="128" fill="white"/>
</clipPath>
</defs>
</svg>
