<svg width="160" height="160" viewBox="0 0 160 160" fill="none" xmlns="http://www.w3.org/2000/svg">
<path d="M74.7752 94.03L72.8853 89.4L140.195 61.95C141.475 61.01 142.675 59.99 143.765 58.89C155.615 47.04 155.615 27.75 143.765 15.89C131.915 4.04 112.625 4.04 100.765 15.89C99.6753 16.98 98.6452 18.18 97.7052 19.46L70.2653 86.77L65.6353 84.88L93.3153 17.04L93.4853 16.8C94.6253 15.21 95.8853 13.72 97.2353 12.37C103.925 5.68 112.815 2 122.265 2C131.715 2 140.615 5.68 147.295 12.37C153.985 19.06 157.665 27.95 157.665 37.4C157.665 46.85 153.985 55.75 147.295 62.43C145.945 63.78 144.455 65.04 142.865 66.18L142.625 66.35L74.7653 94.02L74.7752 94.03Z" fill="white"/>
<path d="M74.0753 92.47L71.4653 88.21L67.2053 85.6L103.315 26.63L103.425 26.49C104.625 25.04 105.895 23.64 107.205 22.33C121.245 8.29 138.855 3.91 147.305 12.36C155.755 20.81 151.375 38.42 137.335 52.46C136.025 53.77 134.625 55.04 133.175 56.24L132.885 56.45L74.0653 92.47H74.0753ZM107.395 29.55L71.4853 88.2L130.135 52.29C131.415 51.22 132.655 50.09 133.815 48.94C145.465 37.29 150.035 22.16 143.785 15.92C137.535 9.67 122.415 14.24 110.765 25.89C109.605 27.05 108.475 28.29 107.415 29.56L107.395 29.55Z" fill="white"/>
<path d="M143.778 12.3711L69.32 86.8294L72.8556 90.3649L147.314 15.9066L143.778 12.3711Z" fill="white"/>
<path d="M72.6824 90.1964L69.4792 86.9932C66.6518 84.1658 62.0677 84.1658 59.2403 86.9932L7.11945 139.114C4.29205 141.941 4.29206 146.526 7.11945 149.353L10.3226 152.556C13.15 155.384 17.7341 155.384 20.5615 152.556L72.6824 100.435C75.5098 97.6079 75.5098 93.0238 72.6824 90.1964Z" fill="white"/>
<path d="M15.4453 156.17C13.2053 156.17 10.9653 155.32 9.26528 153.61L6.06528 150.41C2.65528 147 2.65528 141.45 6.06528 138.04L58.1853 85.92C61.5953 82.51 67.1453 82.51 70.5553 85.92L73.7553 89.12C77.1653 92.53 77.1653 98.08 73.7553 101.49L21.6353 153.61C19.9353 155.32 17.6953 156.17 15.4553 156.17H15.4453ZM11.3853 151.49C13.6253 153.73 17.2653 153.73 19.5053 151.49L71.6253 99.37C73.8653 97.13 73.8653 93.49 71.6253 91.25L68.4253 88.05C66.1853 85.81 62.5453 85.81 60.3053 88.05L8.18528 140.18C5.94528 142.42 5.94528 146.06 8.18528 148.3L11.3853 151.5V151.49Z" fill="white"/>
<path d="M112.045 150.45H107.045C107.045 139.56 98.1853 130.71 87.3053 130.71V125.71C98.1953 125.71 107.045 116.85 107.045 105.97H112.045C112.045 116.86 120.905 125.71 131.785 125.71V130.71C120.895 130.71 112.045 139.57 112.045 150.45ZM98.1353 128.21C103.095 130.63 107.125 134.66 109.545 139.62C111.965 134.66 115.995 130.63 120.955 128.21C115.995 125.79 111.965 121.76 109.545 116.8C107.125 121.76 103.095 125.79 98.1353 128.21Z" fill="white"/>
<path d="M37.5153 72.37H32.5153C32.5153 61.48 23.6553 52.63 12.7753 52.63V47.63C23.6653 47.63 32.5153 38.77 32.5153 27.89H37.5153C37.5153 38.78 46.3753 47.63 57.2553 47.63V52.63C46.3653 52.63 37.5153 61.49 37.5153 72.37ZM23.6053 50.13C28.5653 52.55 32.5953 56.58 35.0153 61.54C37.4353 56.58 41.4653 52.55 46.4253 50.13C41.4653 47.71 37.4353 43.68 35.0153 38.72C32.5953 43.68 28.5653 47.71 23.6053 50.13Z" fill="white"/>
</svg>
