<svg width="200" height="369" viewBox="0 0 200 369" fill="none" xmlns="http://www.w3.org/2000/svg">
<path d="M48.3364 189.503C48.1287 172.923 47.9148 156.337 47.7072 139.757C34.8978 143.787 21.4089 140.211 13.7333 130.942C3.7488 118.883 7.78162 102.253 13.7333 93.1603C26.7126 73.3314 60.6739 72.1413 72.2439 84.9743C76.5284 89.7285 79.5609 98.4245 76.0188 103.865C72.5773 109.148 63.1213 111.094 58.4027 107.643C49.7079 101.283 52.3 73.0795 67.8399 57.8977C85.4874 40.6569 117.083 42.1492 135.788 56.6384C146.231 64.7298 156.7 79.9998 154.033 95.0493C153.674 97.0769 151.026 110.59 142.079 112.051C135.832 113.071 128.578 107.876 126.98 101.346C125.073 93.5444 131.975 86.8382 133.9 84.9743C144.407 74.7734 166.005 71.3605 180.457 83.0853C189.083 90.0811 195.808 102.99 192.411 115.829C188.353 131.162 170.969 142.207 151.516 139.127C151.938 155.077 152.353 171.034 152.775 186.984C117.964 187.821 83.147 188.665 48.3364 189.503Z" stroke="white" stroke-width="9" stroke-miterlimit="10"/>
<path d="M48.3363 140.387C48.9151 148.308 55.6596 154.416 63.4358 154.24C71.4323 154.064 78.0006 147.301 77.9062 139.127C77.9565 133.101 81.895 128.391 86.0851 127.793C91.2441 127.056 97.718 132.428 97.4097 140.387C95.4027 150.94 103.129 159.693 110.622 159.907C117.807 160.115 125.734 152.496 125.092 142.276C123.532 149.977 126.011 157.325 131.384 161.167C132.547 161.998 136.876 164.831 141.45 163.685C147.886 162.073 152.894 153.05 151.516 141.646" stroke="white" stroke-width="9" stroke-linecap="square" stroke-linejoin="bevel"/>
<path d="M114.082 67.9727C123.985 67.9727 132.013 59.938 132.013 50.0266C132.013 40.1153 123.985 32.0805 114.082 32.0805C104.179 32.0805 96.1514 40.1153 96.1514 50.0266C96.1514 59.938 104.179 67.9727 114.082 67.9727Z" fill="white" stroke="white" stroke-width="9" stroke-linecap="square" stroke-linejoin="bevel"/>
<path d="M49.8903 219.772C48.2294 251.08 73.886 277.067 103.726 276.318C132.604 275.593 156.531 250.053 154.895 219.772" stroke="white" stroke-width="9" stroke-linejoin="round"/>
<path d="M153.29 197.493C164.036 196.19 174.272 201.662 178.651 210.855C182.898 219.772 180.444 229.714 175.317 236.238C169.17 244.052 158.72 247.535 148.654 245.085" stroke="white" stroke-width="9" stroke-miterlimit="10"/>
<path d="M70.9478 230.52C74.2279 230.52 76.887 227.859 76.887 224.576C76.887 221.293 74.2279 218.632 70.9478 218.632C67.6677 218.632 65.0087 221.293 65.0087 224.576C65.0087 227.859 67.6677 230.52 70.9478 230.52Z" fill="white"/>
<path d="M133.409 230.52C136.69 230.52 139.349 227.859 139.349 224.576C139.349 221.293 136.69 218.632 133.409 218.632C130.129 218.632 127.47 221.293 127.47 224.576C127.47 227.859 130.129 230.52 133.409 230.52Z" fill="white"/>
<path d="M85.0218 232.025C85.2106 241.571 92.6597 249.348 101.713 249.965C111.421 250.633 120.298 242.894 120.877 232.642" stroke="white" stroke-width="9" stroke-miterlimit="10"/>
<path d="M103.059 217.31C100.713 222.297 98.366 227.29 96.0193 232.277H109.867C107.596 227.29 105.331 222.297 103.059 217.31Z" fill="white"/>
<path d="M50.6516 199.659C39.9058 198.356 29.6696 203.828 25.2908 213.021C21.044 221.938 23.4977 231.88 28.6252 238.404C34.772 246.218 45.2221 249.701 55.2884 247.251" stroke="white" stroke-width="9" stroke-miterlimit="10"/>
<path d="M115.026 41.5258C115.416 38.6293 117.121 28.7494 125.721 20.7461C132.881 14.084 140.846 12.4153 143.966 11.9305" stroke="white" stroke-width="9" stroke-linecap="square" stroke-linejoin="bevel"/>
<path d="M64.6942 155.185V171.871V155.185Z" fill="white"/>
<path d="M64.6942 155.185V171.871" stroke="white" stroke-width="9" stroke-linecap="square" stroke-linejoin="bevel"/>
<path d="M98.0326 150.777V171.632V150.777Z" fill="white"/>
<path d="M98.0326 150.777V171.632" stroke="white" stroke-width="9" stroke-linecap="square" stroke-linejoin="bevel"/>
<path d="M129.119 161.481V171.808V161.481Z" fill="white"/>
<path d="M129.119 161.481V171.808" stroke="white" stroke-width="9" stroke-linecap="square" stroke-linejoin="bevel"/>
<path d="M155.958 196.643C156.159 201.152 152.68 204.968 148.175 205.169H148.113C145.911 205.27 143.866 204.552 142.268 203.28C141.626 207.146 138.266 210.093 134.221 210.093H134.158C130.528 210.093 127.414 207.883 126.092 204.735C124.966 207.65 122.192 209.772 118.87 209.923C114.718 210.106 111.106 207.373 110.043 203.526C108.772 206.095 106.174 207.921 103.103 208.059C99.3223 208.229 95.9941 205.969 94.6226 202.657C93.2385 205.213 90.5394 206.951 87.4315 206.951C83.5245 206.951 80.2152 204.395 79.0953 200.856C78.139 204.3 74.987 206.819 71.2435 206.819C67.5001 206.819 64.4047 204.539 63.1213 201.309V202.43C63.1213 206.945 59.4722 210.597 54.9612 210.597H54.2566C49.4248 210.597 45.5052 206.674 45.5052 201.838V189.188H155.606V190.504H155.681L155.958 196.643Z" fill="white"/>
<path d="M85.2346 303.611V310.042C89.6398 310.042 93.225 313.949 93.225 318.74V318.868C90.4115 314.961 85.8295 312.405 80.6687 312.405C72.1317 312.405 65.1864 319.35 65.1864 327.887C65.1864 336.424 72.1317 343.37 80.6687 343.37C85.8455 343.37 90.4115 340.813 93.225 336.907V343.032H99.6558V318.723C99.6558 310.379 93.1928 303.595 85.2346 303.595V303.611ZM80.6526 336.939C75.6526 336.939 71.6012 332.871 71.6012 327.887C71.6012 322.904 75.6687 318.836 80.6526 318.836C85.6365 318.836 89.7041 322.904 89.7041 327.887C89.7041 332.871 85.6365 336.939 80.6526 336.939Z" fill="white"/>
<path d="M47.9678 312.389C43.8199 312.389 40.0579 314.045 37.2765 316.698C36.328 309.318 30.299 303.611 23 303.611V310.042C27.4051 310.042 30.9903 313.949 30.9903 318.74V368.064H37.4212V339.19C40.1865 341.778 43.9003 343.37 47.9678 343.37C56.5048 343.37 63.4501 336.424 63.4501 327.887C63.4501 319.351 56.5048 312.405 47.9678 312.405V312.389ZM47.9678 336.939C42.9678 336.939 38.9164 332.871 38.9164 327.887C38.9164 322.904 42.9839 318.836 47.9678 318.836C52.9517 318.836 57.0193 322.904 57.0193 327.887C57.0193 332.871 52.9517 336.939 47.9678 336.939Z" fill="white"/>
<path d="M157.228 344.013C148.547 344.013 141.473 336.955 141.473 328.257C141.473 319.559 148.531 312.502 157.228 312.502C165.926 312.502 172.984 319.559 172.984 328.257V331.473H148.482C149.801 335.026 153.225 337.582 157.228 337.582V344.013ZM148.482 325.042H165.974C164.656 321.489 161.232 318.932 157.228 318.932C153.225 318.932 149.801 321.473 148.482 325.042Z" fill="white"/>
<path d="M173 303.579H141.441V310.01H173V303.579Z" fill="white"/>
<path d="M128.354 303.016C123.032 303.016 118.707 307.341 118.707 312.662C118.707 317.984 123.032 322.309 128.354 322.309C129.157 322.309 129.945 322.196 130.701 322.003C128.916 331.328 124.672 337.566 120.765 337.566C115.669 337.566 109.961 326.907 109.961 312.646H103.53C103.53 330.524 110.942 343.997 120.765 343.997C130.588 343.997 138 330.524 138 312.646C138 307.325 133.675 303 128.354 303V303.016ZM128.354 315.894C126.585 315.894 125.138 314.447 125.138 312.678C125.138 310.91 126.585 309.463 128.354 309.463C130.122 309.463 131.569 310.91 131.569 312.678C131.569 314.447 130.122 315.894 128.354 315.894Z" fill="white"/>
</svg>
