<svg width="160" height="160" viewBox="0 0 160 160" fill="none" xmlns="http://www.w3.org/2000/svg">
<path d="M140.567 145.456H18.9042C11.4794 145.456 5.45001 139.416 5.45001 131.991V80.0915C5.45001 76.5016 6.84548 73.1141 9.39144 70.5787L29.8337 50.1365C31.3677 48.6025 32.2199 46.5572 32.2199 44.3841V28.4585C32.2199 21.0337 38.2599 15.0043 45.6741 15.0043H49.509L55.4957 25.3799L61.4825 15.0043H65.6583L71.645 25.3799L77.6318 15.0043H81.8076L87.7943 25.3799L93.781 15.0043H97.9569L103.944 25.3799L109.93 15.0043H113.765C121.19 15.0043 127.23 21.0443 127.23 28.4585V44.3841C127.23 46.5572 128.072 48.6025 129.616 50.1365L150.059 70.5787C152.605 73.1247 154 76.5016 154 80.0915V131.991C154 139.416 147.96 145.456 140.546 145.456H140.567ZM45.6741 20.3306C41.1893 20.3306 37.5462 23.9738 37.5462 28.4585V44.3841C37.5462 47.974 36.1507 51.3615 33.6047 53.8968L13.1625 74.3391C11.6285 75.8731 10.7763 77.9184 10.7763 80.0915V131.991C10.7763 136.475 14.4195 140.129 18.9042 140.129H140.567C145.052 140.129 148.695 136.475 148.695 131.991V80.0915C148.695 77.9184 147.853 75.8731 146.309 74.3391L125.867 53.8968C123.321 51.3509 121.925 47.974 121.925 44.3841V28.4585C121.925 23.9738 118.271 20.3306 113.787 20.3306H113.02L103.954 36.0325L95.8796 22.0457L87.805 36.0325L79.7303 22.0457L71.6557 36.0325L63.581 22.0457L55.5064 36.0325L46.4411 20.3306H45.6741Z" fill="white"/>
<path d="M148.205 72.4643L127.763 52.022C125.739 49.998 124.599 47.2497 124.599 44.3841V28.4586C124.599 22.4931 119.763 17.6569 113.797 17.6569H111.496L103.965 30.6956L96.4335 17.6569H95.3363L87.8049 30.6956L80.2736 17.6569H79.1764L71.645 30.6956L64.1136 17.6569H63.0164L55.4851 30.6956L47.9537 17.6569H45.6527C39.6873 17.6569 34.851 22.4931 34.851 28.4586V44.3841C34.851 47.2497 33.7112 49.998 31.6872 52.022L11.245 72.4643C9.22099 74.4883 8.08116 77.2366 8.08116 80.1022V132.001C8.08116 137.967 12.9174 142.803 18.8828 142.803H140.546C146.511 142.803 151.347 137.967 151.347 132.001V80.1022C151.347 77.2366 150.208 74.4883 148.184 72.4643H148.205ZM117.27 62.387H116.844C114.66 62.4402 112.625 63.3031 111.07 64.8584L97.8396 78.0889C96.2417 79.6867 95.3683 81.8066 95.3683 84.0649V122.787C95.3683 127.442 99.1606 131.234 103.816 131.234H117.27V136.561H103.816C96.2205 136.561 90.042 130.382 90.042 122.787V84.0649C90.042 80.3898 91.4801 76.9277 94.0793 74.3285L106.01 62.3976H41.2958V57.0713H116.78C116.961 57.0713 117.131 57.0713 117.313 57.0713L117.259 62.3976L117.27 62.387Z" fill="white"/>
</svg>
